<?xml version="1.0" encoding="UTF-8" standalone="no"?>
<!DOCTYPE svg PUBLIC "-//W3C//DTD SVG 1.1//EN" "http://www.w3.org/Graphics/SVG/1.1/DTD/svg11.dtd">
<!-- Generated by Microsoft Visio, SVG Export scalable-app-service-architecture.svg Page-1 -->
<svg xmlns="http://www.w3.org/2000/svg" xmlns:xlink="http://www.w3.org/1999/xlink" xmlns:ev="http://www.w3.org/2001/xml-events"
		xmlns:v="http://schemas.microsoft.com/visio/2003/SVGExtensions/" width="10.5414in" height="4.678in"
		viewBox="0 0 758.981 336.816" xml:space="preserve" color-interpolation-filters="sRGB" class="st33">
	<v:documentProperties v:langID="1033" v:viewMarkup="false"/>

	<style type="text/css">
	<![CDATA[
		.st1 {fill:#f2f2f2;stroke:none;stroke-linecap:round;stroke-linejoin:round;stroke-width:0.75}
		.st2 {fill:none;stroke:#0078d7;stroke-dasharray:5.25,3.75;stroke-linecap:round;stroke-linejoin:round;stroke-width:0.75}
		.st3 {fill:#0078d7;stroke:none;stroke-linecap:butt;stroke-width:0.75}
		.st4 {fill:#0078d7;font-family:Segoe UI;font-size:0.833336em}
		.st5 {marker-end:url(#mrkr4-18);stroke:#0078d7;stroke-linecap:round;stroke-linejoin:round;stroke-width:0.75}
		.st6 {fill:#0078d7;fill-opacity:1;stroke:#0078d7;stroke-opacity:1;stroke-width:0.22935779816514}
		.st7 {fill:#ffffff;stroke:#ffffff;stroke-linecap:butt;stroke-width:1.5}
		.st8 {fill:#0078d7;font-family:Segoe UI;font-size:1.00001em}
		.st9 {font-size:1em}
		.st10 {fill:#ffffff;stroke:#ffffff;stroke-linecap:butt;stroke-width:1.275}
		.st11 {fill:#0078d7;stroke:none;stroke-linecap:butt;stroke-width:0.6375}
		.st12 {marker-end:url(#mrkr4-67);stroke:#595959;stroke-dasharray:2.25,2.25;stroke-linecap:round;stroke-linejoin:round;stroke-width:0.75}
		.st13 {fill:#595959;fill-opacity:1;stroke:#595959;stroke-opacity:1;stroke-width:0.22935779816514}
		.st14 {fill:#0078d7}
		.st15 {stroke:none;stroke-linecap:butt;stroke-width:0.75}
		.st16 {fill:none;stroke:none;stroke-linecap:round;stroke-linejoin:round;stroke-width:0.75}
		.st17 {fill:#000000;font-family:Segoe UI;font-size:1.00001em}
		.st18 {fill:#ffffff;stroke:#595959;stroke-linecap:round;stroke-linejoin:round;stroke-width:0.75}
		.st19 {fill:#595959;stroke:none;stroke-linecap:butt;stroke-width:0.75}
		.st20 {fill:#595959;font-family:Segoe UI;font-size:0.75em}
		.st21 {fill:#ffffff;stroke:none;stroke-linecap:round;stroke-linejoin:round;stroke-width:0.75}
		.st22 {fill:#ffffff;stroke:none;stroke-linecap:butt;stroke-width:0.653846}
		.st23 {fill:#0078d7;stroke:none;stroke-linecap:butt;stroke-width:0.653846}
		.st24 {fill:#0078d7;font-family:Trebuchet MS;font-size:0.75em}
		.st25 {marker-end:url(#mrkr4-260);stroke:#7f7f7f;stroke-dasharray:2.25,2.25;stroke-linecap:round;stroke-linejoin:round;stroke-width:0.75}
		.st26 {fill:#7f7f7f;fill-opacity:1;stroke:#7f7f7f;stroke-opacity:1;stroke-width:0.22935779816514}
		.st27 {fill:#ffffff;stroke:#3f3f3f;stroke-linecap:butt;stroke-width:0.75}
		.st28 {fill:#3f3f3f;font-family:Segoe UI;font-size:0.833336em}
		.st29 {fill:#ffffff;stroke:none;stroke-linecap:butt;stroke-width:0.772727}
		.st30 {fill:#0078d7;stroke:none;stroke-linecap:butt;stroke-width:0.772727}
		.st31 {fill:#3f3f3f;font-family:Segoe UI;font-size:0.75em}
		.st32 {stroke:#0078d7;stroke-linecap:round;stroke-linejoin:round;stroke-width:0.75}
		.st33 {fill:none;fill-rule:evenodd;font-size:12px;overflow:visible;stroke-linecap:square;stroke-miterlimit:3}
	]]>
	</style>

	<defs id="Markers">
		<g id="lend4">
			<path d="M 2 1 L 0 0 L 2 -1 L 2 1 " style="stroke:none"/>
		</g>
		<marker id="mrkr4-18" class="st6" v:arrowType="4" v:arrowSize="2" v:setback="8.72" refX="-8.72" orient="auto"
				markerUnits="strokeWidth" overflow="visible">
			<use xlink:href="#lend4" transform="scale(-4.36,-4.36) "/>
		</marker>
		<marker id="mrkr4-67" class="st13" v:arrowType="4" v:arrowSize="2" v:setback="8.72" refX="-8.72" orient="auto"
				markerUnits="strokeWidth" overflow="visible">
			<use xlink:href="#lend4" transform="scale(-4.36,-4.36) "/>
		</marker>
		<marker id="mrkr4-260" class="st26" v:arrowType="4" v:arrowSize="2" v:setback="8.72" refX="-8.72" orient="auto"
				markerUnits="strokeWidth" overflow="visible">
			<use xlink:href="#lend4" transform="scale(-4.36,-4.36) "/>
		</marker>
	</defs>
	<g v:mID="0" v:index="1" v:groupContext="foregroundPage">
		<title>Page-1</title>
		<v:pageProperties v:drawingScale="1" v:pageScale="1" v:drawingUnits="19" v:shadowOffsetX="9" v:shadowOffsetY="-9"/>
		<g id="group1191-1" transform="translate(9.22293,-22.4412)" v:mID="1191" v:groupContext="group">
			<title>Sheet.1191</title>
			<g id="shape1149-2" v:mID="1149" v:groupContext="shape" transform="translate(202.223,-7.93921)">
				<title>Sheet.1149</title>
				<rect x="0" y="271.566" width="109.778" height="65.25" class="st1"/>
			</g>
			<g id="shape1125-4" v:mID="1125" v:groupContext="shape" transform="translate(586.427,-154.245)">
				<title>Sheet.1125</title>
				<rect x="0" y="250.247" width="148.5" height="86.5688" class="st1"/>
			</g>
			<g id="shape3-6" v:mID="3" v:groupContext="shape" transform="translate(202.223,-81.0642)">
				<title>Sheet.3</title>
				<rect x="0" y="177.066" width="270.653" height="159.75" class="st1"/>
			</g>
			<g id="shape4-8" v:mID="4" v:groupContext="shape" transform="translate(112.876,0)">
				<title>Sheet.4</title>
				<path d="M0 336.82 L630.56 336.82 L630.56 78.07 L0 78.07 L0 336.82 Z" class="st2"/>
			</g>
			<g id="shape20-10" v:mID="20" v:groupContext="shape" transform="translate(130.388,-39.8313)">
				<title>Content Delivery Network (CDN)</title>
				<desc>Azure CDN</desc>
				<v:textBlock v:margins="rect(0,0,0,0)" v:verticalAlign="0"/>
				<v:textRect cx="30.6175" cy="354.255" width="84.59" height="23.2729"/>
				<path d="M50.66 332.38 C50.66 330.01 48.76 327.95 46.39 327.95 L45.75 327.95 C45.91 327 46.23 326.05 46.23 324.94
							 C46.23 318.61 41 313.54 34.83 313.54 C29.92 313.54 25.65 316.87 24.06 321.3 C23.27 321.14 22.48 320.83
							 21.53 320.83 C17.1 320.83 13.77 324.31 13.77 328.74 C13.77 333.17 17.26 336.66 21.53 336.66 L46.55 336.66
							 C48.92 336.5 50.66 334.76 50.66 332.38 ZM2.06 324.63 C0.95 324.63 0 325.58 0 326.68 C0 327.79 0.95 328.74
							 2.06 328.74 L11.87 328.74 C11.87 327.32 12.19 325.89 12.82 324.63 L2.06 324.63 ZM12.67 332.7 L4.91 332.7
							 C3.8 332.7 2.85 333.65 2.85 334.76 C2.85 335.87 3.8 336.82 4.91 336.82 L15.67 336.82 C14.41 335.71 13.3
							 334.44 12.67 332.7 ZM22.96 319.08 C23.59 317.82 24.38 316.71 25.33 315.76 L8.39 315.76 C7.28 315.76
							 6.33 316.71 6.33 317.82 C6.33 318.93 7.28 319.88 8.39 319.88 L17.57 319.88 C18.84 319.24 20.11 318.93
							 21.69 318.93 C22.01 319.08 22.48 319.08 22.96 319.08 Z" class="st3"/>
				<text x="6.24" y="351.62" class="st4" v:langID="1033"><v:paragraph v:horizAlign="1"/><v:tabList/>Azure CDN</text>			</g>
			<g id="shape23-13" v:mID="23" v:groupContext="shape" transform="translate(586.427,497.933) rotate(180)">
				<title>Sheet.23</title>
				<path d="M0 336.82 C12.07 336.82 23.35 336.82 34.44 336.82 C57.5 336.82 79.74 336.82 105.81 336.82" class="st5"/>
			</g>
			<g id="shape61-19" v:mID="61" v:groupContext="shape" transform="translate(474.492,-221.312)">
				<title>Sheet.61</title>
				<path d="M0 336.82 C11.7 336.82 22.64 336.82 33.39 336.82 C55.69 336.82 77.2 336.82 102.39 336.82" class="st5"/>
			</g>
			<g id="group69-24" transform="translate(613.387,-192.528)" v:mID="69" v:groupContext="group">
				<title>SQL database (generic) (opaque).20</title>
				<desc>Azure SQL Database</desc>
				<g id="shape70-25" v:mID="70" v:groupContext="shape">
					<title>Sheet.70</title>
					<path d="M14.91 296.4 C6.68 296.4 0 299.26 0 302.4 L0 330.73 C0 333.86 6.68 336.82 14.91 336.82 C23.15 336.82
								 29.83 334 29.83 330.86 L29.83 302.55 C29.83 299.41 23.15 296.4 14.91 296.4 Z" class="st7"/>
				</g>
				<g id="group71-27" v:mID="71" v:groupContext="group">
					<title>Sheet.71</title>
					<g id="shape72-28" v:mID="72" v:groupContext="shape" transform="translate(13.5915,-16.7238)">
						<title>Sheet.72</title>
						<path d="M2.6 333.23 C2.49 333.04 2.33 332.88 2.15 332.76 C1.99 332.65 1.77 332.59 1.52 332.59 C1.26 332.59
									 1.02 332.65 0.83 332.76 C0.63 332.88 0.48 333.02 0.35 333.22 C0.23 333.41 0.14 333.63 0.08 333.9
									 C0.02 334.15 0 334.42 0 334.71 C0 335.09 0.04 335.41 0.12 335.67 C0.2 335.94 0.31 336.16 0.44
									 336.33 C0.57 336.5 0.73 336.62 0.91 336.69 C1.09 336.78 1.28 336.82 1.48 336.82 C1.67 336.82
									 1.85 336.78 2.02 336.69 C2.2 336.62 2.36 336.49 2.49 336.32 C2.63 336.16 2.74 335.94 2.82 335.67
									 C2.89 335.42 2.94 335.12 2.94 334.75 C2.94 334.46 2.92 334.18 2.86 333.92 C2.8 333.66 2.71 333.42
									 2.6 333.23 Z" class="st3"/>
					</g>
					<g id="shape73-30" v:mID="73" v:groupContext="shape">
						<title>Sheet.73</title>
						<path d="M14.91 296.4 C6.68 296.4 0 299.26 0 302.4 L0 330.73 C0 333.86 6.68 336.82 14.91 336.82 C23.15 336.82
									 29.83 334 29.83 330.86 L29.83 302.55 C29.83 299.41 23.15 296.4 14.91 296.4 ZM10.43 320.16 C10.4
									 320.36 10.32 320.56 10.22 320.75 C10.12 320.95 9.98 321.13 9.81 321.3 C9.64 321.47 9.43 321.63
									 9.16 321.76 C8.91 321.9 8.6 321.99 8.26 322.07 C7.9 322.15 7.49 322.19 7.02 322.19 C6.77 322.19
									 6.53 322.17 6.31 322.14 C6.08 322.11 5.88 322.09 5.67 322.04 C5.48 322 5.3 321.96 5.15 321.91
									 C4.98 321.86 4.85 321.8 4.73 321.75 L4.73 319.53 C4.86 319.62 5.02 319.73 5.19 319.83 C5.36
									 319.93 5.55 320.01 5.74 320.1 C5.94 320.17 6.14 320.23 6.35 320.28 C6.56 320.34 6.76 320.36
									 6.96 320.36 C7.13 320.36 7.27 320.34 7.38 320.3 C7.49 320.28 7.57 320.23 7.63 320.17 C7.69 320.12
									 7.74 320.06 7.76 320 C7.79 319.93 7.8 319.87 7.8 319.79 C7.8 319.67 7.76 319.56 7.7 319.47 C7.65
									 319.38 7.56 319.3 7.45 319.22 C7.33 319.15 7.2 319.08 7.06 319.02 C6.9 318.94 6.72 318.88 6.54
									 318.81 C6.2 318.68 5.9 318.52 5.65 318.34 C5.41 318.15 5.2 317.97 5.05 317.76 C4.89 317.56 4.78
									 317.33 4.71 317.1 C4.64 316.87 4.61 316.62 4.61 316.37 C4.61 315.97 4.69 315.61 4.84 315.29
									 C5 314.97 5.23 314.7 5.5 314.47 C5.79 314.25 6.14 314.07 6.53 313.96 C6.93 313.84 7.37 313.78
									 7.86 313.78 C8.13 313.78 8.37 313.79 8.6 313.8 C8.83 313.83 9.03 313.85 9.21 313.89 C9.39 313.91
									 9.54 313.95 9.69 313.99 C9.83 314.02 9.96 314.06 10.07 314.1 L10.07 316.16 C9.95 316.1 9.83
									 316.03 9.68 315.97 C9.53 315.89 9.38 315.83 9.21 315.79 C9.04 315.72 8.86 315.69 8.67 315.65
									 C8.48 315.62 8.29 315.6 8.08 315.6 C7.82 315.6 7.61 315.65 7.44 315.75 C7.27 315.86 7.19 315.99
									 7.19 316.17 C7.19 316.26 7.21 316.34 7.25 316.42 C7.28 316.49 7.34 316.55 7.41 316.61 C7.5 316.67
									 7.61 316.74 7.74 316.81 C7.87 316.88 8.02 316.95 8.22 317.02 C8.55 317.16 8.85 317.3 9.14 317.46
									 C9.41 317.62 9.65 317.8 9.85 318.01 C10.06 318.2 10.21 318.43 10.32 318.69 C10.44 318.94 10.5
									 319.25 10.5 319.59 C10.5 319.77 10.48 319.96 10.43 320.16 ZM16.5 324.11 L14.74 322.19 C14.22
									 322.15 13.75 322.03 13.3 321.83 C12.85 321.63 12.45 321.36 12.12 321.01 C11.78 320.66 11.52
									 320.24 11.32 319.74 C11.12 319.26 11.03 318.7 11.03 318.09 C11.03 317.45 11.12 316.86 11.33
									 316.34 C11.53 315.81 11.81 315.36 12.18 314.98 C12.54 314.59 12.97 314.3 13.47 314.09 C13.97
									 313.89 14.53 313.78 15.13 313.78 C15.71 313.78 16.23 313.88 16.72 314.07 C17.2 314.26 17.62
									 314.55 17.97 314.91 C18.31 315.26 18.59 315.7 18.79 316.22 C18.98 316.73 19.08 317.32 19.08
									 317.96 C19.08 318.42 19.03 318.86 18.91 319.26 C18.8 319.66 18.65 320.03 18.45 320.34 C18.25
									 320.67 18.01 320.95 17.75 321.19 C17.48 321.43 17.19 321.63 16.87 321.77 L19.56 324.11 L16.5
									 324.11 L16.5 324.11 ZM25.39 322.04 L20.22 322.04 L20.22 313.91 L22.63 313.91 L22.63 320.12 L25.38
									 320.12 L25.38 322.04 L25.39 322.04 ZM14.89 305.19 C9.03 305.19 4.27 303.72 4.27 301.88 C4.27
									 300.05 9.03 298.58 14.89 298.58 C20.77 298.58 25.53 300.05 25.53 301.88 C25.53 303.72 20.77
									 305.19 14.89 305.19 Z" class="st3"/>
					</g>
				</g>
				<g id="shape69-32" v:mID="69" v:groupContext="groupContent">
					<v:textBlock v:margins="rect(0,0,0,0)" v:verticalAlign="0"/>
					<v:textRect cx="14.9174" cy="362.017" width="99.25" height="44.1013"/>
					<text x="-12.46" y="350.77" class="st8" v:langID="1033"><v:paragraph v:horizAlign="1"/><v:tabList/>Azure SQL<v:lf/><tspan
								x="-9.69" dy="1.2em" class="st9">Database</tspan></text>				</g>
			</g>
			<g id="group87-35" transform="translate(635.346,-81.2863)" v:mID="87" v:groupContext="group">
				<title>Azure Search</title>
				<desc>Azure Search</desc>
				<g id="shape88-36" v:mID="88" v:groupContext="shape">
					<title>Sheet.88</title>
					<path d="M43.67 317.67 C43.97 316.65 44.08 315.64 44.08 314.52 C44.08 307.74 38.71 302.16 32.12 302.16 C27.15
								 302.16 22.9 305.3 21.08 309.76 C19.56 307.84 17.23 306.72 14.59 306.72 C9.93 306.72 6.18 310.67
								 6.18 315.44 C6.18 316.25 6.28 317.06 6.48 317.87 C2.63 319.29 0 322.63 0 326.99 C0 332.66 4.46 336.82
								 10.03 336.82 L40.73 336.82 C46.31 336.82 50.66 332.66 50.66 326.99 C50.66 322.43 47.72 318.98 43.67
								 317.67 ZM36.98 321.92 C36.07 325.47 32.93 328 29.28 328 C28.67 328 27.97 327.9 27.36 327.8 C26.75
								 327.6 26.04 327.39 25.43 327.09 L19.96 332.66 C19.56 333.07 18.95 333.37 18.34 333.37 C17.73 333.37
								 17.12 333.17 16.72 332.66 C16.31 332.26 16.01 331.65 16.01 331.04 C16.01 330.43 16.21 329.82 16.72
								 329.42 L22.19 323.85 C21.28 322.12 20.97 320.1 21.48 318.17 C22.39 314.63 25.53 312.09 29.18 312.09
								 C29.79 312.09 30.5 312.19 31.11 312.3 C33.13 312.8 34.96 314.12 35.97 315.94 C37.19 317.77 37.49
								 319.9 36.98 321.92 Z" class="st3"/>
				</g>
				<g id="shape89-38" v:mID="89" v:groupContext="shape" transform="translate(24.2165,-11.8549)">
					<title>Sheet.89</title>
					<path d="M6.28 327.09 C5.88 326.99 5.47 326.99 5.07 326.99 C2.84 326.99 0.81 328.51 0.3 330.74 C0 332.05 0.2
								 333.57 1.01 334.69 C1.32 335.2 1.82 335.6 2.33 336.01 C2.84 336.31 3.34 336.61 3.95 336.71 C4.36
								 336.82 4.76 336.82 5.17 336.82 C7.4 336.82 9.42 335.3 9.93 333.07 C10.23 331.75 10.03 330.43 9.32
								 329.32 C8.61 328.2 7.5 327.39 6.28 327.09 Z" class="st3"/>
				</g>
				<g id="shape87-40" v:mID="87" v:groupContext="groupContent">
					<v:textBlock v:margins="rect(0,0,0,0)" v:verticalAlign="0"/>
					<v:textRect cx="27.2625" cy="356.685" width="50.67" height="34.6529"/>
					<text x="12.06" y="350.16" class="st8" v:langID="1033"><v:paragraph v:horizAlign="1"/><v:tabList/>Azure<v:newlineChar/><tspan
								x="9.63" dy="1.2em" class="st9">Search</tspan></text>				</g>
			</g>
			<g id="group105-43" transform="translate(321.342,-136.065)" v:mID="105" v:groupContext="group">
				<title>Storage queue (opaque)</title>
				<desc>Queue</desc>
				<g id="shape106-44" v:mID="106" v:groupContext="shape" transform="translate(0,641.999) scale(1,-1)">
					<title>Sheet.106</title>
					<path d="M27.39 336.82 L9.07 336.82 L0 321 L9.16 305.18 L27.39 305.18 L36.46 321 L27.39 336.82 Z" class="st10"/>
				</g>
				<g id="group107-46" v:mID="107" v:groupContext="group">
					<title>Sheet.107</title>
					<g id="shape108-47" v:mID="108" v:groupContext="shape" transform="translate(20.4463,655.597) scale(1,-1)">
						<title>Sheet.108</title>
						<path d="M7.91 336.82 L0 336.82 L3.95 333.73 L7.91 336.82 Z" class="st11"/>
					</g>
					<g id="shape109-49" v:mID="109" v:groupContext="shape" transform="translate(8.39069,656.755) scale(1,-1)">
						<title>Sheet.109</title>
						<path d="M3.95 333.73 C3.86 333.73 3.76 333.73 3.66 333.83 L0 336.72 L0 331.99 L8.39 331.99 L8.39 336.82
									 L4.34 333.83 C4.24 333.73 4.05 333.73 3.95 333.73 Z" class="st11"/>
					</g>
					<g id="shape110-51" v:mID="110" v:groupContext="shape" transform="translate(20.2534,656.755) scale(1,-1)">
						<title>Sheet.110</title>
						<path d="M4.15 333.73 C4.05 333.73 3.86 333.73 3.76 333.83 L0 336.72 L0 331.99 L8.39 331.99 L8.39 336.82
									 L4.44 333.83 C4.34 333.73 4.24 333.73 4.15 333.73 Z" class="st11"/>
					</g>
					<g id="shape111-53" v:mID="111" v:groupContext="shape" transform="translate(0,641.999) scale(1,-1)">
						<title>Sheet.111</title>
						<path d="M27.39 336.82 L9.07 336.82 L0 321 L9.16 305.18 L27.39 305.18 L36.46 321 L27.39 336.82 ZM30.57 314.25
									 L5.59 314.25 C4.82 314.25 4.24 314.92 4.24 315.69 L4.24 325.24 C4.24 326.01 4.82 326.69 5.59
									 326.69 L30.57 326.69 C30.86 326.69 31.34 326.69 34.62 320.52 L34.72 320.23 L34.62 320.03 C31.34
									 314.25 30.86 314.25 30.57 314.25 Z" class="st11"/>
					</g>
					<g id="shape112-55" v:mID="112" v:groupContext="shape" transform="translate(8.29425,655.597) scale(1,-1)">
						<title>Sheet.112</title>
						<path d="M8 336.82 L0 336.82 L3.95 333.73 L8 336.82 Z" class="st11"/>
					</g>
					<g id="shape113-57" v:mID="113" v:groupContext="shape" transform="translate(5.20801,653.186) scale(1,-1)">
						<title>Sheet.113</title>
						<path d="M0.39 336.82 C0.19 336.82 0 336.62 0 336.43 L0 326.88 C0 326.69 0.19 326.4 0.39 326.4 L25.17 326.4
									 C25.65 326.88 27.1 329.2 28.35 331.42 C27.1 333.83 25.56 336.33 25.17 336.82 L0.39 336.82 ZM12.54
									 327.94 C12.54 327.65 12.25 327.36 11.86 327.36 L2.41 327.36 C2.12 327.36 2.03 327.65 2.03 327.94
									 L2.03 334.98 C2.03 335.27 2.12 335.37 2.41 335.37 L11.86 335.37 C12.15 335.37 12.54 335.27 12.54
									 334.98 L12.54 327.94 ZM24.4 327.94 C24.4 327.65 24.21 327.36 23.92 327.36 L14.56 327.36 C14.27
									 327.36 14.08 327.65 14.08 327.94 L14.08 334.98 C14.08 335.27 14.27 335.37 14.56 335.37 L23.92
									 335.37 C24.21 335.37 24.4 335.27 24.4 334.98 L24.4 327.94 Z" class="st11"/>
					</g>
				</g>
				<g id="shape105-59" v:mID="105" v:groupContext="groupContent">
					<v:textBlock v:margins="rect(0,0,0,0)" v:verticalAlign="0"/>
					<v:textRect cx="18.2281" cy="362.624" width="108.93" height="46.8041"/>
					<text x="0.64" y="350.02" class="st8" v:langID="1033"><v:paragraph v:horizAlign="1"/><v:tabList/>Queue</text>				</g>
			</g>
			<g id="group161-61" transform="translate(334.951,-116.084)" v:mID="161" v:groupContext="group">
				<title>Sheet.161</title>
			</g>
			<g id="shape205-62" v:mID="205" v:groupContext="shape" transform="translate(997.493,183.257) rotate(90)">
				<title>Sheet.205</title>
				<path d="M0 336.82 C4.07 336.82 7.88 336.82 11.63 336.82 C18.1 336.82 24.39 336.82 31.39 336.82" class="st12"/>
			</g>
			<g id="group206-68" transform="translate(510.93,-157.166)" v:mID="206" v:groupContext="group">
				<title>Azure Cache including Redis (opaque)</title>
				<desc>Redis cache</desc>
				<g id="group207-69" v:mID="207" v:groupContext="group">
					<title>Sheet.207</title>
					<g id="group208-70" transform="translate(-1.85851E-13,-0.360814)" v:mID="208" v:groupContext="group">
						<title>Sheet.208</title>
						<g id="shape209-71" v:mID="209" v:groupContext="shape">
							<title>Sheet.209</title>
							<path d="M14.09 334.63 L14.09 309.92 C14.09 306.85 18.91 305.41 25.95 305.41 C27.57 305.41 29.09 305.51
										 30.51 305.69 L30.51 300.22 C30.51 297.57 23.68 295.41 15.25 295.41 C6.83 295.41 0 297.57
										 0 300.22 L0 332 C0 334.66 6.83 336.82 15.25 336.82 L16.29 336.79 C14.91 336.18 14.09 335.44
										 14.09 334.63 Z" class="st7"/>
						</g>
					</g>
					<g id="group210-73" transform="translate(15.8842,2.27374E-13)" v:mID="210" v:groupContext="group">
						<title>Sheet.210</title>
						<g id="shape211-74" v:mID="211" v:groupContext="shape">
							<title>Sheet.211</title>
							<path d="M10.58 307.01 C4.52 307.01 0 306.85 0 310.41 L0 333.28 C0 335.19 4.52 336.82 10.58 336.82 C16.64
										 336.82 21.56 335.26 21.56 333.35 L21.56 310.48 C21.56 308.56 16.64 307.01 10.58 307.01 Z"
									class="st7"/>
						</g>
					</g>
				</g>
				<g id="group212-76" v:mID="212" v:groupContext="group">
					<title>Sheet.212</title>
					<g id="group213-77" transform="translate(-1.85851E-13,-0.360814)" v:mID="213" v:groupContext="group">
						<title>Sheet.213</title>
						<g id="shape214-78" v:mID="214" v:groupContext="shape">
							<title>Sheet.214</title>
							<path d="M4.95 300.23 C4.95 298.8 9.56 297.63 15.25 297.63 C20.93 297.63 25.53 298.8 25.53 300.23 C25.53
										 301.66 20.93 302.82 15.25 302.82 C9.56 302.82 4.95 301.66 4.95 300.23 ZM14.09 334.63 L14.09
										 309.92 C14.09 306.85 18.91 305.41 25.95 305.41 C27.57 305.41 29.09 305.51 30.51 305.69 L30.51
										 300.22 C30.51 297.57 23.68 295.41 15.25 295.41 C6.83 295.41 0 297.57 0 300.22 L0 332 C0
										 334.66 6.83 336.82 15.25 336.82 L16.29 336.79 C14.91 336.18 14.09 335.44 14.09 334.63 Z"
									class="st3"/>
						</g>
					</g>
					<g id="group215-80" transform="translate(15.8842,2.27374E-13)" v:mID="215" v:groupContext="group">
						<title>Sheet.215</title>
						<g id="shape216-81" v:mID="216" v:groupContext="shape">
							<title>Sheet.216</title>
							<path d="M10.58 312.93 C6.5 312.93 3.17 312.09 3.17 311.05 C3.17 310.03 6.5 309.18 10.58 309.18 C14.67
										 309.18 17.98 310.03 17.98 311.05 C17.98 312.09 14.67 312.93 10.58 312.93 ZM17.01 323.26
										 L3.47 334.49 L8.7 325.83 L4.15 325.83 L17.68 314.61 L12.46 323.26 L17.01 323.26 ZM10.58
										 307.01 C4.52 307.01 0 308.49 0 310.41 L0 333.28 C0 335.19 4.52 336.82 10.58 336.82 C16.64
										 336.82 21.56 335.26 21.56 333.35 L21.56 310.48 C21.56 308.56 16.64 307.01 10.58 307.01 Z"
									class="st3"/>
						</g>
					</g>
				</g>
				<g id="shape206-83" v:mID="206" v:groupContext="groupContent">
					<v:textBlock v:margins="rect(0,4,4,4)" v:verticalAlign="0"/>
					<v:textRect cx="18.7216" cy="364.038" width="97.92" height="44.9904"/>
					<text x="-12.31" y="352.34" class="st8" v:langID="1033"><v:paragraph v:horizAlign="1"/><v:tabList/>Redis cache</text>				</g>
			</g>
			<g id="group221-85" transform="translate(680.377,-192.523)" v:mID="221" v:groupContext="group">
				<title>DocumentDB (opaque)</title>
				<desc>Cosmos DB</desc>
				<g id="group222-86" v:mID="222" v:groupContext="group">
					<title>MySQL database (stackable)</title>
					<g id="shape223-87" v:mID="223" v:groupContext="shape">
						<title>Sheet.223</title>
						<path d="M14.92 296.4 C6.68 296.4 0 299.2 0 302.3 L0 330.2 C0 333.29 6.68 336.82 14.92 336.82 C23.16 336.82
									 29.84 333.43 29.84 330.34 L29.84 302.44 C29.84 299.36 23.16 296.4 14.92 296.4 Z" class="st7"/>
					</g>
				</g>
				<g id="group224-89" transform="translate(0,-0.91727)" v:mID="224" v:groupContext="group">
					<title>Sheet.224</title>
					<g id="shape225-90" v:mID="225" v:groupContext="shape">
						<title>Sheet.225</title>
						<path d="M14.92 298.03 C6.63 298.03 0 300.79 0 303.77 L0 330.96 C0 333.94 6.74 336.82 14.92 336.82 C23.21
									 336.82 29.84 334.16 29.84 331.07 L29.84 303.89 C29.84 300.9 23.1 298.03 14.92 298.03 ZM0.33
									 332.17 L0.33 331.84 C0.33 331.95 0.33 332.06 0.33 332.17 ZM10.61 315.27 C9.61 315.27 9.17 314.94
									 9.17 316.04 L9.17 318.14 C9.17 319.69 8.95 320.68 7.85 321.01 L7.85 321.12 C8.95 321.57 9.17
									 322.78 9.17 324.66 L9.17 327.09 C9.17 327.87 9.28 327.87 9.5 328.2 C9.72 328.53 10.06 328.53
									 10.61 328.53 L10.61 329.19 L10.61 330.63 C9.06 330.63 7.96 330.3 7.29 329.74 C6.63 329.19 6.3
									 328.09 6.3 326.54 L6.3 323.89 C6.3 322.45 5.75 322.45 4.86 322.45 L4.86 319.69 C5.86 319.69
									 6.3 319.69 6.3 318.47 L6.3 316.37 C6.3 315.05 6.63 314.16 7.29 313.72 C7.96 313.17 9.06 312.95
									 10.61 312.95 L10.61 315.27 ZM25.31 320.35 L25.31 322.56 C24.31 322.56 23.87 322.56 23.87 324
									 L23.87 326.54 C23.87 328.09 23.54 329.19 22.87 329.85 C22.21 330.41 21.11 330.74 19.45 330.74
									 L19.45 328.64 C19.89 328.64 20.33 328.53 20.55 328.31 C20.78 327.98 20.89 327.98 20.89 327.2
									 L20.89 324.77 C20.89 322.89 21.22 321.79 22.32 321.23 L22.32 321.12 C21.22 320.79 20.89 319.8
									 20.89 318.14 L20.89 316.15 C20.89 315.05 20.33 315.38 19.45 315.38 L19.45 313.06 C21 313.06
									 22.1 313.39 22.76 313.83 C23.43 314.38 23.87 315.27 23.87 316.48 L23.87 318.58 C23.87 319.8
									 24.31 319.69 25.31 319.69 L25.31 320.35 ZM14.92 306.43 C9.06 306.43 4.31 304.99 4.31 303.22
									 C4.31 301.45 9.06 300.02 14.92 300.02 C20.78 300.02 25.53 301.45 25.53 303.22 C25.53 305.1 20.78
									 306.43 14.92 306.43 Z" class="st11"/>
					</g>
				</g>
				<g id="shape221-92" v:mID="221" v:groupContext="groupContent">
					<v:textBlock v:margins="rect(0,0,0,0)" v:verticalAlign="0"/>
					<v:textRect cx="16.0076" cy="358.113" width="84.97" height="40.416"/>
					<text x="-14.29" y="348.71" class="st8" v:langID="1033"><v:paragraph v:horizAlign="1"/><v:tabList/>Cosmos DB</text>				</g>
			</g>
			<g id="shape1128-94" v:mID="1128" v:groupContext="shape" transform="translate(129.435,-126.852)">
				<title>Application Gateway (New) (nc).1128</title>
				<desc>Application Gateway</desc>
				<v:textBlock v:margins="rect(0,0,0,0)" v:verticalAlign="0"/>
				<v:textRect cx="25.4765" cy="367.894" width="110.35" height="48.0982"/>
				<path d="M37.87 320.92 L28.9 320.92 L32.03 317.8 L25.92 311.69 L25.92 326.23 L30.44 326.23 L24.09 332.58 L17.74 326.23
							 L22.17 326.23 L22.17 311.83 L16.17 317.83 L19.3 320.96 L10.32 320.96 L10.32 311.98 L13.45 315.11 L21.09
							 307.47 C20 306.98 19.02 306.22 18.25 305.21 C15.76 301.96 16.37 297.31 19.63 294.81 C20.97 293.78 22.56
							 293.29 24.13 293.29 C26.36 293.29 28.57 294.29 30.03 296.2 C32.52 299.45 31.9 304.11 28.65 306.6 C28.18
							 306.96 27.67 307.25 27.15 307.48 L34.75 315.07 L37.87 311.95 L37.87 320.92 ZM24.05 336.82 C25.2 336.82
							 26.36 336.34 27.22 335.47 L46.85 316.04 C47.71 315.17 48.19 314.02 48.19 312.86 C48.19 311.61 47.71
							 310.55 46.85 309.69 L27.22 290.06 C26.36 289.2 25.2 288.72 24.05 288.72 C22.89 288.72 21.74 289.2 20.87
							 290.06 L1.35 309.59 C0.48 310.46 0 311.61 0 312.77 C0 313.92 0.48 315.08 1.35 315.94 L20.87 335.47 C21.74
							 336.34 22.89 336.82 24.05 336.82 ZM20.01 305.68 C21.18 306.64 22.64 307.14 24.1 307.14 C25.47 307.14
							 26.84 306.7 28.01 305.81 C28.21 305.66 28.39 305.5 28.57 305.33 C27.92 305.33 27.06 305.29 26.08 305.07
							 C26 305.18 25.91 305.29 25.79 305.38 C25.23 305.81 24.43 305.7 23.99 305.14 C23.79 304.87 23.71 304.55
							 23.74 304.24 C23.13 303.93 22.5 303.54 21.87 303.04 C21.69 302.89 21.51 302.75 21.35 302.6 C21.06 302.72
							 20.75 302.77 20.45 302.75 C20.01 303.92 19.96 304.97 20.01 305.67 L20.01 305.68 ZM20.01 305.67 C20 305.66
							 19.98 305.65 19.97 305.64 C19.98 305.65 20 305.66 20.01 305.68 L20.01 305.67 ZM18.82 304.41 C18.93 304.54
							 18.87 304.46 18.82 304.38 C18.82 304.39 18.82 304.4 18.82 304.41 ZM18.82 304.38 C18.85 303.72 18.96
							 302.95 19.19 302.16 C19.14 302.1 19.1 302.05 19.05 301.99 C18.51 301.28 18.53 300.32 19.05 299.64 C18.61
							 298.57 18.64 297.69 18.79 297.07 C17.31 299.22 17.26 302.14 18.82 304.38 ZM19.49 296.22 C19.4 296.75
							 19.36 297.75 19.93 298.98 C20.28 298.86 20.64 298.84 20.99 298.91 C21.06 298.83 21.13 298.75 21.21 298.67
							 C21.79 298.05 22.43 297.52 23 297.12 C23 297.12 22.99 297.12 22.99 297.12 C22.31 296.4 21.71 295.66
							 21.26 294.93 C20.89 295.11 20.53 295.33 20.19 295.6 C19.94 295.79 19.7 296 19.49 296.22 ZM21.26 294.93
							 C22.11 294.58 22.11 294.57 22.11 294.57 C21.26 294.92 21.26 294.92 21.26 294.93 ZM22.12 294.58 C22.72
							 295.28 23.32 295.94 23.9 296.55 L23.9 296.55 C25.67 295.62 27.21 295.6 28.2 295.75 C27.03 294.78 25.57
							 294.27 24.09 294.27 C23.43 294.27 22.76 294.37 22.12 294.58 ZM28.2 295.75 C28.54 296.03 28.85 296.35
							 29.13 296.7 C29.14 296.7 29.14 296.7 29.14 296.7 C28.86 296.35 28.54 296.03 28.21 295.75 C28.21 295.75
							 28.2 295.75 28.2 295.75 ZM29.13 296.7 C29.01 296.69 27.38 296.56 25.1 297.79 C25.86 298.54 26.58 299.21
							 27.24 299.8 C27.83 299.46 28.59 299.6 29.02 300.16 C29.32 300.55 29.38 301.06 29.21 301.49 C29.71 301.89
							 30.06 302.16 30.32 302.35 C30.81 300.5 30.46 298.44 29.2 296.8 C29.18 296.76 29.16 296.73 29.13 296.7
							 ZM30.32 302.35 C30.27 302.51 30.3 302.43 30.32 302.35 L30.32 302.35 ZM30.25 302.59 C30.22 302.69 30.19
							 302.78 30.16 302.87 C30.19 302.77 30.22 302.68 30.25 302.59 ZM30.14 302.9 C29.9 302.74 29.47 302.45
							 28.85 302.01 C28.82 302.04 28.8 302.07 28.77 302.09 C28.16 302.55 27.29 302.44 26.82 301.83 C26.5 301.41
							 26.47 300.86 26.68 300.41 C25.87 299.78 25.02 299.07 24.22 298.33 C23.69 298.69 23.13 299.13 22.54 299.69
							 C22.46 299.76 22.39 299.84 22.32 299.91 C22.64 300.53 22.6 301.27 22.23 301.85 C22.35 301.95 22.46 302.04
							 22.58 302.14 C23.18 302.62 23.77 302.99 24.32 303.3 C24.88 302.94 25.62 303.05 26.03 303.59 C26.15 303.74
							 26.22 303.92 26.26 304.1 C27.86 304.56 29.03 304.4 29.42 304.31 C29.73 303.87 29.97 303.4 30.14 302.9
							 L30.14 302.9 ZM30.16 302.87 C30.15 302.88 30.15 302.89 30.14 302.9 C30.15 302.89 30.15 302.88 30.16
							 302.87 ZM29.42 304.31 C29.39 304.36 29.36 304.4 29.33 304.45 C29.36 304.41 29.39 304.36 29.42 304.31
							 L29.42 304.31 ZM24.22 298.33 C24.2 298.31 24.18 298.29 24.16 298.27 C24.18 298.29 24.2 298.31 24.22
							 298.33 L24.22 298.33 ZM24.22 298.33 L24.22 298.33 L24.22 298.33 Z" class="st14"/>
				<path d="M37.87 320.92 L28.9 320.92 L32.03 317.8 L25.92 311.69 L25.92 326.23 L30.44 326.23 L24.09 332.58 L17.74 326.23
							 L22.17 326.23 L22.17 311.83 L16.17 317.83 L19.3 320.96 L10.32 320.96 L10.32 311.98 L13.45 315.11 L21.09
							 307.47 C20 306.98 19.02 306.22 18.25 305.21 C15.76 301.96 16.37 297.31 19.63 294.81 C20.97 293.78 22.56
							 293.29 24.13 293.29 C26.36 293.29 28.57 294.29 30.03 296.2 C32.52 299.45 31.9 304.11 28.65 306.6 C28.18
							 306.96 27.67 307.25 27.15 307.48 L34.75 315.07 L37.87 311.95 L37.87 320.92" class="st15"/>
				<path d="M24.05 336.82 C25.2 336.82 26.36 336.34 27.22 335.47 L46.85 316.04 C47.71 315.17 48.19 314.02 48.19 312.86
							 C48.19 311.61 47.71 310.55 46.85 309.69 L27.22 290.06 C26.36 289.2 25.2 288.72 24.05 288.72 C22.89 288.72
							 21.74 289.2 20.87 290.06 L1.35 309.59 C0.48 310.46 0 311.61 0 312.77 C0 313.92 0.48 315.08 1.35 315.94
							 L20.87 335.47 C21.74 336.34 22.89 336.82 24.05 336.82" class="st15"/>
				<path d="M20.01 305.68 C21.18 306.64 22.64 307.14 24.1 307.14 C25.47 307.14 26.84 306.7 28.01 305.81 C28.21 305.66
							 28.39 305.5 28.57 305.33 C27.92 305.33 27.06 305.29 26.08 305.07 C26 305.18 25.91 305.29 25.79 305.38
							 C25.23 305.81 24.43 305.7 23.99 305.14 C23.79 304.87 23.71 304.55 23.74 304.24 C23.13 303.93 22.5 303.54
							 21.87 303.04 C21.69 302.89 21.51 302.75 21.35 302.6 C21.06 302.72 20.75 302.77 20.45 302.75 C20.01 303.92
							 19.96 304.97 20.01 305.67" class="st15"/>
				<path d="" class="st15"/>
				<path d="M20.01 305.67 C20 305.66 19.98 305.65 19.97 305.64 C19.98 305.65 20 305.66 20.01 305.68" class="st15"/>
				<path d="" class="st15"/>
				<path d="M18.82 304.41 C18.93 304.54 18.87 304.46 18.82 304.38 C18.82 304.39 18.82 304.4 18.82 304.41" class="st15"/>
				<path d="M18.82 304.38 C18.85 303.72 18.96 302.95 19.19 302.16 C19.14 302.1 19.1 302.05 19.05 301.99 C18.51 301.28
							 18.53 300.32 19.05 299.64 C18.61 298.57 18.64 297.69 18.79 297.07 C17.31 299.22 17.26 302.14 18.82 304.38"
						class="st15"/>
				<path d="M0 336.82 C18.8 297.05 18.79 297.06 18.79 297.07" class="st15"/>
				<path d="M19.49 296.22 C19.4 296.75 19.36 297.75 19.93 298.98 C20.28 298.86 20.64 298.84 20.99 298.91 C21.06 298.83
							 21.13 298.75 21.21 298.67 C21.79 298.05 22.43 297.52 23 297.12 C23 297.12 22.99 297.12 22.99 297.12
							 C22.31 296.4 21.71 295.66 21.26 294.93 C20.89 295.11 20.53 295.33 20.19 295.6 C19.94 295.79 19.7 296
							 19.49 296.22" class="st15"/>
				<path d="M21.26 294.93 C22.11 294.58 22.11 294.57 22.11 294.57 C21.26 294.92 21.26 294.92 21.26 294.93"
						class="st15"/>
				<path d="M22.12 294.58 C22.72 295.28 23.32 295.94 23.9 296.55 L23.9 296.55 C25.67 295.62 27.21 295.6 28.2 295.75
							 C27.03 294.78 25.57 294.27 24.09 294.27 C23.43 294.27 22.76 294.37 22.12 294.58" class="st15"/>
				<path d="M28.2 295.75 C28.54 296.03 28.85 296.35 29.13 296.7 C29.14 296.7 29.14 296.7 29.14 296.7 C28.86 296.35 28.54
							 296.03 28.21 295.75 C28.21 295.75 28.2 295.75 28.2 295.75" class="st15"/>
				<path d="M29.13 296.7 C29.01 296.69 27.38 296.56 25.1 297.79 C25.86 298.54 26.58 299.21 27.24 299.8 C27.83 299.46
							 28.59 299.6 29.02 300.16 C29.32 300.55 29.38 301.06 29.21 301.49 C29.71 301.89 30.06 302.16 30.32 302.35
							 C30.81 300.5 30.46 298.44 29.2 296.8 C29.18 296.76 29.16 296.73 29.13 296.7" class="st15"/>
				<path d="M30.32 302.35 C30.27 302.51 30.3 302.43 30.32 302.35" class="st15"/>
				<path d="" class="st15"/>
				<path d="M30.25 302.59 C30.22 302.69 30.19 302.78 30.16 302.87 C30.19 302.77 30.22 302.68 30.25 302.59"
						class="st15"/>
				<path d="M30.14 302.9 C29.9 302.74 29.47 302.45 28.85 302.01 C28.82 302.04 28.8 302.07 28.77 302.09 C28.16 302.55
							 27.29 302.44 26.82 301.83 C26.5 301.41 26.47 300.86 26.68 300.41 C25.87 299.78 25.02 299.07 24.22 298.33
							 C23.69 298.69 23.13 299.13 22.54 299.69 C22.46 299.76 22.39 299.84 22.32 299.91 C22.64 300.53 22.6 301.27
							 22.23 301.85 C22.35 301.95 22.46 302.04 22.58 302.14 C23.18 302.62 23.77 302.99 24.32 303.3 C24.88 302.94
							 25.62 303.05 26.03 303.59 C26.15 303.74 26.22 303.92 26.26 304.1 C27.86 304.56 29.03 304.4 29.42 304.31
							 C29.73 303.87 29.97 303.4 30.14 302.9" class="st15"/>
				<path d="" class="st15"/>
				<path d="M30.16 302.87 C30.15 302.88 30.15 302.89 30.14 302.9 C30.15 302.89 30.15 302.88 30.16 302.87" class="st15"/>
				<path d="M29.42 304.31 C29.39 304.36 29.36 304.4 29.33 304.45 C29.36 304.41 29.39 304.36 29.42 304.31" class="st15"/>
				<path d="" class="st15"/>
				<path d="M0 336.82 C28.58 305.33 28.59 305.33 28.6 305.33" class="st15"/>
				<path d="M24.22 298.33 C24.2 298.31 24.18 298.29 24.16 298.27 C24.18 298.29 24.2 298.31 24.22 298.33" class="st15"/>
				<path d="" class="st15"/>
				<path d="M24.22 298.33 L24.22 298.33" class="st15"/>
				<path d="" class="st15"/>
				<text x="0.43" y="352.84" class="st4" v:langID="1033"><v:paragraph v:horizAlign="1"/><v:tabList/>Application<v:newlineChar/><tspan
							x="6.62" dy="1.2em" class="st9">Gateway</tspan></text>			</g>
			<g id="shape1133-125" v:mID="1133" v:groupContext="shape" transform="translate(472.876,-98.7677)">
				<title>Sheet.1133</title>
				<path d="M0 336.82 C17.31 336.82 33.49 336.82 49.39 336.82 C83.31 336.82 115.99 336.82 154.61 336.82" class="st5"/>
			</g>
			<g id="shape1144-130" v:mID="1144" v:groupContext="shape" transform="translate(201.098,-238.716)">
				<title>Sheet.1144</title>
				<desc>Web front end</desc>
				<v:textBlock v:margins="rect(4,4,4,4)"/>
				<v:textRect cx="135.327" cy="327.611" width="270.66" height="18.4106"/>
				<rect x="0" y="318.406" width="270.653" height="18.4106" class="st16"/>
				<text x="96.8" y="331.21" class="st17" v:langID="1033"><v:paragraph v:horizAlign="1"/><v:tabList/>Web front end</text>			</g>
			<g id="group1145-133" transform="translate(385.353,-103.547)" v:mID="1145" v:groupContext="group">
				<title>Sheet.1145</title>
				<g id="shape129-134" v:mID="129" v:groupContext="shape" transform="translate(0.747246,-9.33409E-06)">
					<title>Sheet.129</title>
					<desc>Function App</desc>
					<v:textBlock v:margins="rect(4,4,4,4)" v:verticalAlign="0"/>
					<v:textRect cx="38.4013" cy="279.424" width="76.81" height="114.784"/>
					<rect x="0" y="222.032" width="76.8026" height="114.784" class="st18"/>
					<text x="15.51" y="236.83" class="st8" v:langID="1033"><v:paragraph v:horizAlign="1"/><v:tabList/>Function <tspan
								x="27.48" dy="1.2em" class="st9">App</tspan></text>				</g>
				<g id="shape1127-138" v:mID="1127" v:groupContext="shape" transform="translate(15.0513,-26.174)">
					<title>Azure Functions (nc).1127</title>
					<path d="M35.84 292.41 L21.16 292.41 L13.26 314.69 L22.89 314.76 L15.37 336.82 L36.14 307.38 L26.05 307.38 L35.84
								 292.41 ZM0.31 314.91 L2.64 317.55 L2.72 317.62 L13.26 327.71 C13.63 328.08 14.46 328.16 14.91 327.71
								 C15.37 327.26 15.37 326.43 14.91 325.98 L4 314.91 C3.55 314.46 3.55 313.63 4 313.18 L14.69 302.49
								 C15.29 302.04 15.14 301.21 14.69 300.76 C14.16 300.31 13.48 300.31 13.03 300.76 L2.64 310.85 L0.31
								 313.18 C-0.07 313.63 -0.14 314.46 0.31 314.91 ZM47.88 314.91 C48.33 314.46 48.26 313.63 47.88 313.18
								 L45.55 310.85 L35.16 300.76 C34.71 300.31 34.03 300.31 33.51 300.76 C33.05 301.21 32.9 302.04 33.51
								 302.49 L44.42 313.18 C44.87 313.63 44.87 314.46 44.42 314.91 L33.28 325.98 C32.83 326.43 32.83 327.26
								 33.28 327.71 C33.73 328.16 34.56 328.08 34.94 327.71 L45.25 317.47 L45.32 317.4 L47.88 314.91 Z"
							class="st3"/>
				</g>
			</g>
			<g id="shape1146-140" v:mID="1146" v:groupContext="shape" transform="translate(586.501,-238.716)">
				<title>Sheet.1146</title>
				<desc>Data storage</desc>
				<v:textBlock v:margins="rect(4,4,4,4)"/>
				<v:textRect cx="74.25" cy="327.611" width="148.51" height="18.4106"/>
				<rect x="0" y="318.406" width="148.5" height="18.4106" class="st16"/>
				<text x="40.36" y="331.21" class="st17" v:langID="1033"><v:paragraph v:horizAlign="1"/><v:tabList/>Data storage</text>			</g>
			<g id="group1148-143" transform="translate(212.317,-103.547)" v:mID="1148" v:groupContext="group">
				<title>Sheet.1148</title>
				<g id="shape27-144" v:mID="27" v:groupContext="shape">
					<title>Sheet.27</title>
					<desc>App Service plan</desc>
					<v:textBlock v:margins="rect(4,4,4,4)" v:verticalAlign="0"/>
					<v:textRect cx="40.3617" cy="279.424" width="80.73" height="114.784"/>
					<rect x="0" y="222.032" width="80.7234" height="114.784" class="st18"/>
					<text x="9.15" y="236.83" class="st8" v:langID="1033"><v:paragraph v:horizAlign="1"/><v:tabList/>App Service <tspan
								x="28.93" dy="1.2em" class="st9">plan</tspan></text>				</g>
				<g id="group28-148" transform="translate(15.4777,-26.8748)" v:mID="28" v:groupContext="group">
					<title>Web App (opaque)  (was websites)</title>
					<desc>Web App</desc>
					<g id="shape29-149" v:mID="29" v:groupContext="shape">
						<title>Sheet.29</title>
						<path d="M41.28 302.31 C37.05 296.78 30.66 293.9 24.22 293.9 C19.68 293.9 15.07 295.34 11.18 298.32 C1.79
									 305.54 -0 319 7.21 328.41 C11.42 333.93 17.81 336.82 24.25 336.82 C28.8 336.82 33.4 335.39 37.29
									 332.4 C46.68 325.19 48.47 311.72 41.28 302.31 Z" class="st7"/>
					</g>
					<g id="group30-151" v:mID="30" v:groupContext="group">
						<title>Sheet.30</title>
						<g id="group31-152" v:mID="31" v:groupContext="group">
							<title>Sheet.31</title>
							<g id="shape32-153" v:mID="32" v:groupContext="shape">
								<title>Sheet.32</title>
								<path d="M35.58 330.18 C32.2 332.76 28.21 334.03 24.25 334.03 C18.63 334.03 13.08 331.51 9.41 326.71
											 C3.14 318.52 4.69 306.82 12.89 300.53 C16.28 297.94 20.26 296.7 24.22 296.7 C29.84 296.7
											 35.39 299.22 39.06 304.02 C45.33 312.2 43.77 323.91 35.58 330.18 ZM41.28 302.31 C37.05
											 296.78 30.66 293.9 24.22 293.9 C19.68 293.9 15.07 295.34 11.18 298.32 C1.79 305.54 -0
											 319 7.21 328.41 C11.42 333.93 17.81 336.82 24.25 336.82 C28.8 336.82 33.4 335.39 37.29
											 332.4 C46.68 325.19 48.47 311.72 41.28 302.31 Z" class="st3"/>
							</g>
						</g>
						<g id="group33-155" transform="translate(7.70328,-6.65497)" v:mID="33" v:groupContext="group">
							<title>Sheet.33</title>
							<g id="group34-156" transform="translate(0.531329,-0.267209)" v:mID="34" v:groupContext="group">
								<title>Sheet.34</title>
								<g id="group35-157" transform="translate(0.679693,5.11591E-13)" v:mID="35" v:groupContext="group">
									<title>Sheet.35</title>
									<g id="shape36-158" v:mID="36" v:groupContext="shape">
										<title>Sheet.36</title>
										<path d="M5.62 326.18 C4.38 324.95 3.38 323.77 2.58 322.62 C0.79 326.28 0.15 330.04 0 333.04
													 C0.18 333.28 0.18 333.47 0.36 333.71 C1.25 334.85 2.38 335.94 3.47 336.82 C3.31
													 334.36 3.53 330.34 5.62 326.18 Z" class="st3"/>
									</g>
								</g>
								<g id="shape37-160" v:mID="37" v:groupContext="shape" transform="translate(5.11756,-13.5919)">
									<title>Sheet.37</title>
									<path d="M7.68 325.47 C5.99 326.63 4.26 328.11 2.51 329.98 C1.55 330.99 0.72 332.03 0 333.08
												 C0.75 334.28 1.72 335.52 2.95 336.82 C3.88 335.51 5 334.21 6.37 332.93 C8.09 331.32
												 9.72 330.03 11.23 328.99 C9.99 327.84 8.79 326.67 7.68 325.47 Z" class="st3"/>
								</g>
								<g id="group38-162" transform="translate(15.444,-23.0077)" v:mID="38" v:groupContext="group">
									<title>Sheet.38</title>
									<g id="shape39-163" v:mID="39" v:groupContext="shape">
										<title>Sheet.39</title>
										<path d="M15.18 333.68 C14.37 332.64 13.46 331.74 12.5 330.91 C9.61 330.47 5.13 330.52 0
													 333.24 C1.18 334.51 2.34 335.7 3.48 336.82 C10.32 333.13 15.18 333.68 15.18
													 333.68 Z" class="st3"/>
									</g>
								</g>
								<g id="group40-165" transform="translate(-3.44724E-14,-14.2023)" v:mID="40" v:groupContext="group">
									<title>Sheet.40</title>
									<g id="shape41-166" v:mID="41" v:groupContext="shape">
										<title>Sheet.41</title>
										<path d="M3.27 336.82 C3.79 335.78 4.41 334.73 5.12 333.69 C2.18 329.04 2.32 325.2 2.63 323.4
													 C1.9 324.18 1.22 324.98 0.62 325.84 C0.02 328.27 -0 332.14 3.27 336.82 Z"
												class="st3"/>
									</g>
								</g>
								<g id="group42-168" transform="translate(6.29794,-1.12074)" v:mID="42" v:groupContext="group">
									<title>Sheet.42</title>
									<g id="shape43-169" v:mID="43" v:groupContext="shape">
										<title>Sheet.43</title>
										<path d="M5.31 327.57 C3.94 326.48 2.77 325.39 1.77 324.34 C1.06 325.33 0.48 326.32 0 327.29
													 C0.94 328.24 2.01 329.19 3.24 330.18 C10.89 336.25 18.5 336.82 22.77 336.82
													 C23.05 336.82 24.39 335.01 25.16 333.88 C23.25 334.27 15.08 335.31 5.31 327.57
													 Z" class="st3"/>
									</g>
								</g>
								<g id="group44-171" transform="translate(3.26968,-10.6447)" v:mID="44" v:groupContext="group">
									<title>Sheet.44</title>
									<g id="shape45-172" v:mID="45" v:groupContext="shape">
										<title>Sheet.45</title>
										<path d="M0 333.26 C0.8 334.41 1.79 335.59 3.03 336.82 C3.51 335.84 4.1 334.85 4.8 333.87
													 C3.57 332.57 2.6 331.33 1.85 330.13 C1.13 331.17 0.52 332.22 0 333.26 Z"
												class="st3"/>
									</g>
								</g>
								<g id="group46-174" transform="translate(16.3523,-8.05994)" v:mID="46" v:groupContext="group">
									<title>Sheet.46</title>
									<g id="shape47-175" v:mID="47" v:groupContext="shape">
										<title>Sheet.47</title>
										<path d="M0 323.45 C6.98 329.9 15.24 335.38 17.34 336.82 C17.55 336.28 17.69 335.76 17.84
													 335.22 C15.59 333.55 9.66 328.93 2.57 321.87 C1.75 322.31 0.89 322.85 0 323.45
													 Z" class="st3"/>
									</g>
								</g>
								<g id="group48-177" transform="translate(7.75264,-24.9391)" v:mID="48" v:groupContext="group">
									<title>Sheet.48</title>
									<g id="shape49-178" v:mID="49" v:groupContext="shape">
										<title>Sheet.49</title>
										<path d="M7.69 335.17 C5.98 333.38 4.24 331.47 2.47 329.42 C1.62 329.68 0.8 330.03 0 330.42
													 C1.3 332.56 3.06 334.71 5.04 336.82 C5.94 336.18 6.82 335.64 7.69 335.17 Z"
												class="st3"/>
									</g>
								</g>
								<g id="shape50-180" v:mID="50" v:groupContext="shape" transform="translate(12.6498,-21.2734)">
									<title>Sheet.50</title>
									<path d="M2.9 331.45 C2.03 331.92 0.89 332.62 0 333.25 C1.11 334.44 2.25 335.66 3.49 336.82 C4.39
												 336.21 5.58 335.47 6.4 335.02 C5.26 333.91 4.08 332.72 2.9 331.45 Z" class="st3"/>
								</g>
								<g id="shape51-182" v:mID="51" v:groupContext="shape" transform="translate(12.6486,-21.2031)">
									<title>Sheet.51</title>
									<path d="M2.59 331.22 C1.71 331.69 0.89 332.29 0 332.92 C1.11 334.11 2.7 335.66 3.94 336.82 C4.84
												 336.21 5.58 335.59 6.4 335.14 C5.26 334.04 3.77 332.49 2.59 331.22 Z" class="st3"/>
								</g>
							</g>
							<g id="group52-184" transform="translate(23.1022,-9.44279)" v:mID="52" v:groupContext="group">
								<title>Sheet.52</title>
								<g id="shape53-185" v:mID="53" v:groupContext="shape">
									<title>Sheet.53</title>
									<path d="M2.09 329.12 C0.34 330.46 0 332.98 1.34 334.73 C2.7 336.5 5.22 336.82 6.98 335.49 C8.73
												 334.14 9.07 331.62 7.73 329.86 C6.37 328.11 3.86 327.76 2.09 329.12 Z" class="st3"/>
								</g>
							</g>
							<g id="group54-187" transform="translate(15.0023,-2.84217E-13)" v:mID="54" v:groupContext="group">
								<title>Sheet.54</title>
								<g id="shape55-188" v:mID="55" v:groupContext="shape">
									<title>Sheet.55</title>
									<path d="M1.93 329.69 C0.3 330.93 -0 333.27 1.23 334.89 C2.48 336.51 4.81 336.82 6.45 335.57
												 C8.07 334.33 8.37 332 7.13 330.38 C5.89 328.75 3.56 328.44 1.93 329.69 Z"
											class="st3"/>
								</g>
							</g>
							<g id="group56-190" transform="translate(0,-8.12206)" v:mID="56" v:groupContext="group">
								<title>Sheet.56</title>
								<g id="shape57-191" v:mID="57" v:groupContext="shape">
									<title>Sheet.57</title>
									<path d="M2.94 325.98 C0.47 327.88 -0 331.4 1.89 333.87 C3.79 336.35 7.33 336.82 9.8 334.92 C12.27
												 333.03 12.74 329.5 10.85 327 C8.95 324.56 5.41 324.08 2.94 325.98 Z" class="st3"/>
								</g>
							</g>
						</g>
					</g>
					<g id="shape28-193" v:mID="28" v:groupContext="groupContent">
						<v:textBlock v:margins="rect(0,0,0,0)" v:verticalAlign="0"/>
						<v:textRect cx="24.2352" cy="351.546" width="108.94" height="11.7682"/>
						<text x="3.54" y="354.66" class="st4" v:langID="1033"><v:paragraph v:horizAlign="1"/><v:tabList/>Web App</text>					</g>
				</g>
			</g>
			<g id="shape1130-195" v:mID="1130" v:groupContext="shape" transform="translate(275.008,-151.882)">
				<title>Sheet.1130</title>
				<path d="M0 336.82 C4.74 336.82 9.17 336.82 13.53 336.82 C21.4 336.82 29.02 336.82 37.6 336.82" class="st5"/>
			</g>
			<g id="shape1131-200" v:mID="1131" v:groupContext="shape" transform="translate(359.994,-151.882)">
				<title>Sheet.1131</title>
				<path d="M0 336.82 C4.03 336.82 7.79 336.82 11.5 336.82 C17.88 336.82 24.08 336.82 30.97 336.82" class="st5"/>
			</g>
			<g id="shape1147-205" v:mID="1147" v:groupContext="shape" transform="translate(178.732,-151.882)">
				<title>Sheet.1147</title>
				<path d="M0 336.82 L43.78 336.82" class="st5"/>
			</g>
			<g id="group1150-210" transform="translate(220.17,-36.3392)" v:mID="1150" v:groupContext="group">
				<title>Sheet.1150</title>
				<g id="shape120-211" v:mID="120" v:groupContext="shape" transform="translate(49.3004,-5.68434E-14)">
					<title>Document.225</title>
					<desc>Static content</desc>
					<v:userDefs>
						<v:ud v:nameU="msvShapeCategories" v:prompt="" v:val="VT4(Icon)"/>
						<v:ud v:nameU="visVersion" v:prompt="" v:val="VT0(15):26"/>
					</v:userDefs>
					<v:textBlock v:margins="rect(2,2,2,2)" v:verticalAlign="0"/>
					<v:textRect cx="11.8476" cy="350.325" width="64.68" height="30.2572"/>
					<path d="M4.73 330.2 L4.73 329.25 L19.86 329.25 L19.86 330.2 L4.73 330.2 ZM4.73 326.42 L4.73 325.47 L19.86 325.47
								 L19.86 326.42 L4.73 326.42 ZM4.73 322.63 L4.73 321.69 L19.86 321.69 L19.86 322.63 L4.73 322.63 ZM4.73
								 318.85 L4.73 317.91 L19.86 317.91 L19.86 318.85 L4.73 318.85 ZM4.73 315.07 L4.73 314.12 L14.22 314.12
								 L14.22 315.07 L4.73 315.07 ZM22.69 334.93 L22.69 314.12 L17.02 314.12 L17.02 308.45 L1.89 308.45
								 L1.89 334.93 L22.69 334.93 ZM22.46 313.18 L17.97 308.69 L17.97 313.18 L22.46 313.18 ZM18.67 306.56
								 L24.58 312.47 L24.58 336.82 L0 336.82 L0 306.56 L18.67 306.56 Z" class="st19"/>
					<text x="0.95" y="345.3" class="st20" v:langID="1033"><v:paragraph v:horizAlign="1"/><v:tabList/>Static<v:lf/><tspan
								x="-3.36" dy="1.2em" class="st9">content</tspan></text>				</g>
				<g id="group122-215" transform="translate(-1.39888E-14,-1.47196)" v:mID="122" v:groupContext="group">
					<title>Sheet.122</title>
					<g id="shape123-216" v:mID="123" v:groupContext="shape" transform="translate(6.42937,-3.83983)">
						<title>Sheet.123</title>
						<rect x="0" y="317.164" width="19.1062" height="19.6521" class="st21"/>
					</g>
					<g id="group124-218" v:mID="124" v:groupContext="group">
						<title>Storage blob</title>
						<desc>Blob</desc>
						<g id="shape125-219" v:mID="125" v:groupContext="shape">
							<title>Sheet.125</title>
							<path d="M23.66 309.5 L7.89 309.5 L0 323.16 L7.89 336.82 L23.66 336.82 L31.54 323.16 L23.66 309.5 ZM23.69
										 329.26 C23.69 330.44 22.74 331.39 21.56 331.39 L9.98 331.39 C8.8 331.39 7.85 330.44 7.85
										 329.26 L7.85 317.05 C7.85 315.88 8.8 314.93 9.98 314.93 L18.57 314.93 C19.42 314.93 20.17
										 314.93 20.17 314.93 L20.4 314.93 L23.69 318.18 L23.69 319.91 L23.69 329.26 Z" class="st3"/>
						</g>
						<g id="shape126-221" v:mID="126" v:groupContext="shape" transform="translate(13.1977,-8.81758)">
							<title>Sheet.126</title>
							<path d="M1.34 334.17 C1.32 334.04 1.29 333.94 1.25 333.85 C1.21 333.77 1.17 333.7 1.12 333.65 C1.06
										 333.59 1 333.56 0.94 333.54 C0.87 333.51 0.8 333.5 0.71 333.5 C0.57 333.5 0.46 333.54 0.36
										 333.61 C0.27 333.67 0.2 333.78 0.15 333.91 C0.09 334.05 0.05 334.22 0.03 334.42 C0.01 334.63
										 0 334.86 0 335.13 C0 335.46 0.01 335.74 0.04 335.95 C0.07 336.17 0.11 336.34 0.16 336.47
										 C0.22 336.6 0.29 336.69 0.38 336.74 C0.47 336.79 0.57 336.82 0.7 336.82 C0.79 336.82 0.87
										 336.8 0.95 336.77 C1.02 336.74 1.08 336.7 1.13 336.64 C1.19 336.58 1.23 336.5 1.27 336.41
										 C1.3 336.32 1.33 336.22 1.36 336.1 C1.38 335.98 1.39 335.84 1.4 335.69 C1.41 335.54 1.42
										 335.37 1.42 335.19 C1.42 334.97 1.41 334.78 1.4 334.61 C1.39 334.44 1.37 334.29 1.34 334.17
										 Z" class="st3"/>
						</g>
						<g id="shape127-223" v:mID="127" v:groupContext="shape" transform="translate(16.9227,-15.1854)">
							<title>Sheet.127</title>
							<path d="M1.34 334.17 C1.32 334.04 1.29 333.94 1.25 333.85 C1.21 333.77 1.17 333.7 1.12 333.65 C1.06
										 333.59 1 333.56 0.94 333.54 C0.87 333.51 0.8 333.5 0.71 333.5 C0.57 333.5 0.46 333.54 0.36
										 333.61 C0.27 333.67 0.2 333.78 0.14 333.91 C0.09 334.05 0.05 334.22 0.03 334.42 C0.01 334.63
										 0 334.86 0 335.13 C0 335.46 0.01 335.74 0.04 335.95 C0.07 336.17 0.11 336.34 0.16 336.47
										 C0.22 336.6 0.29 336.69 0.38 336.74 C0.47 336.79 0.57 336.82 0.7 336.82 C0.79 336.82 0.87
										 336.8 0.95 336.77 C1.02 336.74 1.08 336.7 1.13 336.64 C1.19 336.58 1.23 336.5 1.27 336.41
										 C1.3 336.32 1.33 336.22 1.36 336.1 C1.38 335.98 1.39 335.84 1.4 335.69 C1.41 335.54 1.41
										 335.37 1.41 335.19 C1.41 334.97 1.41 334.78 1.4 334.61 C1.39 334.44 1.37 334.29 1.34 334.17
										 Z" class="st3"/>
						</g>
						<g id="shape128-225" v:mID="128" v:groupContext="shape" transform="translate(9.00899,-6.58865)">
							<title>Sheet.128</title>
							<path d="M10.89 322.69 C10.59 322.68 10.1 322.68 9.56 322.68 L0.96 322.68 C0.43 322.68 0 323.12 0 323.64
										 L0 335.85 C0 336.39 0.43 336.82 0.96 336.82 L12.56 336.82 C13.08 336.82 13.52 336.39 13.52
										 335.85 L13.52 325.36 L10.89 325.36 L10.89 322.69 L10.89 322.69 ZM3.57 325.12 C3.57 325.08
										 3.58 325.05 3.59 325.02 C3.6 325 3.61 324.97 3.63 324.96 C3.64 324.94 3.67 324.92 3.69 324.9
										 L4.69 324.26 C4.7 324.25 4.72 324.24 4.74 324.23 C4.75 324.23 4.78 324.22 4.81 324.22 C4.83
										 324.22 4.87 324.21 4.92 324.21 C4.97 324.21 5.03 324.21 5.1 324.21 C5.19 324.21 5.27 324.21
										 5.32 324.22 C5.38 324.22 5.42 324.23 5.45 324.23 C5.48 324.24 5.5 324.25 5.51 324.27 C5.52
										 324.28 5.52 324.3 5.52 324.32 L5.52 328.16 L6.28 328.16 C6.3 328.16 6.32 328.16 6.34 328.18
										 C6.35 328.19 6.37 328.21 6.38 328.24 C6.4 328.27 6.41 328.31 6.41 328.35 C6.42 328.4 6.42
										 328.46 6.42 328.53 C6.42 328.59 6.42 328.65 6.41 328.7 C6.4 328.74 6.39 328.78 6.38 328.81
										 C6.37 328.84 6.35 328.86 6.34 328.87 C6.32 328.88 6.3 328.89 6.28 328.89 L3.72 328.89 C3.7
										 328.89 3.68 328.88 3.66 328.87 C3.64 328.86 3.63 328.84 3.62 328.81 C3.6 328.78 3.59 328.74
										 3.59 328.7 C3.58 328.65 3.58 328.59 3.58 328.53 C3.58 328.46 3.58 328.4 3.59 328.35 C3.59
										 328.31 3.6 328.27 3.61 328.24 C3.63 328.21 3.64 328.19 3.66 328.18 C3.68 328.16 3.69 328.16
										 3.72 328.16 L4.58 328.16 L4.58 325.14 L3.83 325.55 C3.78 325.58 3.73 325.59 3.7 325.6 C3.67
										 325.6 3.64 325.6 3.62 325.58 C3.6 325.56 3.58 325.52 3.58 325.47 C3.57 325.42 3.57 325.35
										 3.57 325.26 C3.57 325.2 3.57 325.15 3.57 325.12 ZM6.47 333.92 C6.41 334.22 6.31 334.47 6.18
										 334.68 C6.04 334.89 5.86 335.06 5.65 335.17 C5.43 335.28 5.17 335.34 4.85 335.34 C4.54 335.34
										 4.27 335.28 4.06 335.17 C3.86 335.06 3.69 334.91 3.57 334.7 C3.45 334.5 3.36 334.25 3.31
										 333.95 C3.26 333.66 3.24 333.32 3.24 332.95 C3.24 332.58 3.27 332.25 3.33 331.95 C3.39 331.65
										 3.49 331.39 3.63 331.18 C3.76 330.97 3.94 330.81 4.15 330.7 C4.37 330.58 4.63 330.53 4.94
										 330.53 C5.26 330.53 5.53 330.58 5.73 330.69 C5.94 330.8 6.11 330.96 6.23 331.16 C6.35 331.37
										 6.44 331.62 6.49 331.91 C6.53 332.21 6.56 332.54 6.56 332.92 C6.56 333.29 6.53 333.62 6.47
										 333.92 ZM10.13 335.07 C10.13 335.11 10.12 335.15 10.1 335.18 C10.09 335.2 10.08 335.22 10.06
										 335.24 C10.04 335.25 10.02 335.25 10 335.25 L7.44 335.25 C7.42 335.25 7.4 335.25 7.39 335.24
										 C7.37 335.22 7.35 335.2 7.34 335.18 C7.33 335.15 7.32 335.11 7.31 335.07 C7.3 335.02 7.3
										 334.96 7.3 334.9 C7.3 334.83 7.3 334.77 7.31 334.72 C7.31 334.67 7.32 334.64 7.34 334.61
										 C7.35 334.58 7.37 334.56 7.38 334.55 C7.4 334.53 7.42 334.53 7.44 334.53 L8.3 334.53 L8.3
										 331.51 L7.56 331.92 C7.5 331.94 7.46 331.96 7.42 331.97 C7.39 331.97 7.36 331.96 7.34 331.94
										 C7.32 331.92 7.31 331.89 7.3 331.84 C7.29 331.79 7.29 331.72 7.29 331.63 C7.29 331.57 7.29
										 331.52 7.29 331.49 C7.3 331.45 7.3 331.42 7.31 331.39 C7.32 331.36 7.33 331.34 7.35 331.33
										 C7.37 331.31 7.39 331.29 7.42 331.27 L8.42 330.63 C8.43 330.62 8.44 330.61 8.46 330.6 C8.48
										 330.6 8.5 330.59 8.53 330.59 C8.56 330.59 8.6 330.58 8.64 330.58 C8.69 330.58 8.75 330.58
										 8.83 330.58 C8.92 330.58 8.99 330.58 9.05 330.59 C9.1 330.59 9.15 330.59 9.17 330.6 C9.2
										 330.61 9.22 330.62 9.23 330.64 C9.24 330.65 9.25 330.67 9.25 330.69 L9.25 334.53 L10 334.53
										 C10.02 334.53 10.04 334.53 10.06 334.55 C10.08 334.56 10.1 334.58 10.11 334.61 C10.12 334.64
										 10.13 334.68 10.14 334.72 C10.14 334.77 10.15 334.83 10.15 334.9 C10.15 334.96 10.14 335.02
										 10.13 335.07 ZM10.19 327.55 C10.13 327.85 10.03 328.1 9.9 328.32 C9.76 328.53 9.59 328.69
										 9.37 328.8 C9.16 328.91 8.89 328.97 8.58 328.97 C8.26 328.97 8 328.91 7.79 328.8 C7.58 328.7
										 7.42 328.54 7.29 328.33 C7.17 328.13 7.09 327.88 7.04 327.58 C6.99 327.29 6.96 326.95 6.96
										 326.58 C6.96 326.21 6.99 325.88 7.05 325.58 C7.12 325.28 7.21 325.02 7.35 324.81 C7.48 324.6
										 7.66 324.44 7.88 324.33 C8.09 324.22 8.36 324.16 8.67 324.16 C8.99 324.16 9.25 324.21 9.46
										 324.32 C9.67 324.43 9.83 324.59 9.96 324.79 C10.08 325 10.16 325.25 10.21 325.54 C10.26
										 325.84 10.28 326.17 10.28 326.55 C10.28 326.92 10.25 327.25 10.19 327.55 Z" class="st3"/>
						</g>
						<g id="shape124-227" v:mID="124" v:groupContext="groupContent">
							<v:textBlock v:margins="rect(0,0,0,0)" v:verticalAlign="0"/>
							<v:textRect cx="15.7702" cy="356.447" width="78.53" height="34.3542"/>
							<text x="3.83" y="350.07" class="st8" v:langID="1033"><v:paragraph v:horizAlign="1"/><v:tabList/>Blob</text>						</g>
					</g>
				</g>
			</g>
			<g id="group1158-229" transform="translate(709.408,-2.46595)" v:mID="1158" v:groupContext="group">
				<title>Resource group (opaque).1158</title>
				<desc>Resource group</desc>
				<g id="group1159-230" v:mID="1159" v:groupContext="group">
					<title>Sheet.1159</title>
					<g id="shape1160-231" v:mID="1160" v:groupContext="shape" transform="translate(4.6138,-10.4859)">
						<title>Sheet.1160</title>
						<path d="M7.5 336.82 C7.36 336.82 7.27 336.77 7.18 336.72 L0.33 332.76 C0.14 332.62 0 332.44 0 332.16 C0
									 331.92 0.14 331.69 0.33 331.55 L7.13 327.64 C7.36 327.5 7.6 327.5 7.78 327.64 L14.63 331.6 C14.82
									 331.74 14.96 331.92 14.96 332.16 C14.96 332.39 14.82 332.62 14.63 332.72 L7.83 336.63 C7.74
									 336.77 7.6 336.82 7.5 336.82 Z" class="st22"/>
					</g>
					<g id="shape1161-233" v:mID="1161" v:groupContext="shape" transform="translate(3.63511,-0.885476)">
						<title>Sheet.1161</title>
						<path d="M7.5 336.82 C7.36 336.82 7.27 336.77 7.18 336.72 L0.33 332.76 C0.14 332.67 0 332.44 0 332.16 L0
									 324.23 C0 324 0.14 323.77 0.33 323.63 C0.51 323.49 0.79 323.49 0.98 323.63 L7.83 327.59 C8.02
									 327.73 8.16 327.91 8.16 328.19 L8.16 336.12 C8.16 336.35 8.02 336.58 7.83 336.68 C7.69 336.82
									 7.6 336.82 7.5 336.82 Z" class="st22"/>
					</g>
					<g id="shape1162-235" v:mID="1162" v:groupContext="shape" transform="translate(12.3967,-0.885476)">
						<title>Sheet.1162</title>
						<path d="M0.65 336.82 C0.56 336.82 0.42 336.77 0.33 336.72 C0.09 336.58 0 336.4 0 336.12 L0 328.24 C-0 328.01
									 0.14 327.78 0.33 327.68 L7.18 323.72 C7.41 323.58 7.64 323.58 7.83 323.72 C8.06 323.86 8.16
									 324.09 8.16 324.33 L8.16 332.2 C8.16 332.44 8.02 332.67 7.83 332.76 L0.98 336.72 C0.93 336.77
									 0.79 336.82 0.65 336.82 Z" class="st22"/>
					</g>
					<g id="shape1163-237" v:mID="1163" v:groupContext="shape">
						<title>Sheet.1163</title>
						<path d="M4.89 336.82 C4.71 336.82 4.47 336.77 4.33 336.68 L1.17 334.81 C0.47 334.44 0 333.6 0 332.81 L0
									 321.06 C0 320.27 0.47 319.43 1.17 319.06 L4.33 317.2 C4.89 316.87 5.59 317.06 5.92 317.62 C6.24
									 318.17 6.06 318.87 5.5 319.2 L2.33 321.06 C2.33 321.06 2.33 321.11 2.33 321.11 L2.33 332.81
									 C2.33 332.81 2.38 332.85 2.38 332.85 L5.55 334.67 C6.11 335 6.29 335.7 5.97 336.26 C5.69 336.58
									 5.31 336.82 4.89 336.82 Z" class="st22"/>
					</g>
					<g id="shape1164-239" v:mID="1164" v:groupContext="shape" transform="translate(17.9425,0)">
						<title>Sheet.1164</title>
						<path d="M1.35 336.82 C0.93 336.82 0.56 336.63 0.37 336.26 C0.05 335.7 0.23 335 0.79 334.67 L3.96 332.81
									 C3.96 332.81 3.96 332.76 3.96 332.76 L3.96 321.06 C3.96 321.06 3.91 321.02 3.91 321.02 L0.75
									 319.2 C0.19 318.87 0 318.17 0.33 317.62 C0.61 317.1 1.35 316.87 1.91 317.2 L5.08 319.06 C5.78
									 319.43 6.24 320.27 6.24 321.06 L6.24 332.81 C6.24 333.6 5.78 334.44 5.08 334.81 L1.91 336.68
									 C1.72 336.77 1.54 336.82 1.35 336.82 Z" class="st22"/>
					</g>
				</g>
				<g id="group1165-241" transform="translate(0.46604,-0.326228)" v:mID="1165" v:groupContext="group">
					<title>Sheet.1165</title>
					<g id="shape1166-242" v:mID="1166" v:groupContext="shape" transform="translate(4.6138,-10.6257)">
						<title>Sheet.1166</title>
						<path d="M7.04 336.82 C6.99 336.82 6.99 336.82 6.94 336.77 L0.09 332.81 C0.05 332.76 0 332.72 0 332.62 C0
									 332.53 0.05 332.48 0.09 332.44 L6.9 328.52 C6.94 328.47 7.04 328.47 7.08 328.52 L13.93 332.48
									 C13.98 332.53 14.03 332.58 14.03 332.67 C14.03 332.76 13.98 332.81 13.93 332.85 L7.13 336.77
									 C7.08 336.82 7.08 336.82 7.04 336.82 Z" class="st23"/>
					</g>
					<g id="shape1167-244" v:mID="1167" v:groupContext="shape" transform="translate(3.63511,-1.02529)">
						<title>Sheet.1167</title>
						<path d="M7.04 336.82 C6.99 336.82 6.94 336.82 6.94 336.77 L0.09 332.81 C0.05 332.76 0 332.72 0 332.62 L0
									 324.7 C0 324.61 0.05 324.56 0.09 324.51 C0.14 324.47 0.23 324.47 0.28 324.51 L7.13 328.47 C7.18
									 328.52 7.22 328.57 7.22 328.66 L7.22 336.58 C7.22 336.68 7.18 336.72 7.13 336.77 C7.08 336.82
									 7.04 336.82 7.04 336.82 Z" class="st23"/>
					</g>
					<g id="shape1168-246" v:mID="1168" v:groupContext="shape" transform="translate(12.3967,-1.02529)">
						<title>Sheet.1168</title>
						<path d="M0.19 336.82 C0.14 336.82 0.09 336.82 0.09 336.77 C0.05 336.72 0 336.68 0 336.58 L0 328.71 C0 328.61
									 0.05 328.57 0.09 328.52 L6.94 324.56 C6.99 324.51 7.08 324.51 7.13 324.56 C7.18 324.61 7.22
									 324.65 7.22 324.75 L7.22 332.62 C7.22 332.72 7.18 332.76 7.13 332.81 L0.28 336.77 C0.28 336.82
									 0.23 336.82 0.19 336.82 Z" class="st23"/>
					</g>
					<g id="shape1169-248" v:mID="1169" v:groupContext="shape" transform="translate(1.15907E-13,-0.139812)">
						<title>Sheet.1169</title>
						<path d="M4.43 336.82 C4.33 336.82 4.19 336.77 4.1 336.72 L0.93 334.86 C0.37 334.53 0 333.88 0 333.27 L0
									 321.53 C-0 320.92 0.37 320.23 0.93 319.95 L4.1 318.08 C4.43 317.9 4.85 317.99 5.03 318.31 C5.22
									 318.64 5.13 319.06 4.8 319.25 L1.63 321.11 C1.54 321.16 1.4 321.39 1.4 321.53 L1.4 333.27 C1.4
									 333.41 1.54 333.65 1.63 333.69 L4.8 335.56 C5.13 335.74 5.22 336.16 5.03 336.49 C4.89 336.68
									 4.66 336.82 4.43 336.82 Z" class="st23"/>
					</g>
					<g id="shape1170-250" v:mID="1170" v:groupContext="shape" transform="translate(18.0358,0)">
						<title>Sheet.1170</title>
						<path d="M0.79 317.9 C0.89 317.9 1.03 317.94 1.12 317.99 L4.29 319.85 C4.85 320.18 5.22 320.83 5.22 321.44
									 L5.22 333.18 C5.22 333.79 4.85 334.49 4.29 334.77 L1.12 336.63 C0.79 336.82 0.37 336.72 0.19
									 336.4 C-0 336.07 0.09 335.65 0.42 335.46 L3.59 333.6 C3.68 333.55 3.82 333.32 3.82 333.18 L3.82
									 321.44 C3.82 321.3 3.68 321.06 3.59 321.02 L0.42 319.15 C0.09 318.97 -0 318.55 0.19 318.22 C0.33
									 317.99 0.56 317.9 0.79 317.9 Z" class="st23"/>
					</g>
				</g>
				<g id="shape1158-252" v:mID="1158" v:groupContext="groupContent">
					<v:textBlock v:margins="rect(0,0,0,0)" v:verticalAlign="0"/>
					<v:textRect cx="11.8933" cy="350.097" width="37.29" height="19.9465"/>
					<text x="-6.31" y="348.22" class="st24" v:langID="1033"><v:paragraph v:horizAlign="1"/><v:tabList/>Resource <tspan
								x="0.5" dy="1.2em" class="st9">group</tspan></text>				</g>
			</g>
			<g id="shape1107-255" v:mID="1107" v:groupContext="shape" transform="translate(375.357,199.951) rotate(90)">
				<title>Sheet.1107</title>
				<path d="M0 336.82 C8.69 336.82 16.81 336.82 24.8 336.82 C40.87 336.82 56.38 336.82 74.37 336.82" class="st25"/>
			</g>
			<g id="shape1109-261" v:mID="1109" v:groupContext="shape" transform="translate(15.0013,-137.408)">
				<title>Internet white (opaque)</title>
				<desc>Internet</desc>
				<v:textBlock v:margins="rect(0,0,0,0)" v:verticalAlign="2"/>
				<v:textRect cx="24.5489" cy="320.319" width="71.32" height="28.8"/>
				<path d="M40.92 336.82 L7.12 336.82 C3.19 336.82 0 333.21 0 328.78 C0 324.35 3.19 320.74 7.12 320.74 C7.4 320.74
							 7.67 320.76 7.96 320.81 C9.13 318.71 11.16 317.43 13.36 317.43 C13.96 317.43 14.56 317.53 15.15 317.73
							 C15.15 317.64 15.15 317.55 15.15 317.45 C15.15 312.25 18.89 308.02 23.49 308.02 C26.73 308.02 29.65
							 310.18 31 313.48 C32.2 312.71 33.55 312.31 34.93 312.31 C39.36 312.31 42.97 316.38 42.97 321.38 C42.97
							 321.87 42.93 322.36 42.86 322.87 C45.24 324 46.8 326.61 46.8 329.54 C46.8 332.92 44.75 335.81 41.89
							 336.62 L40.92 336.82 Z" class="st27"/>
				<text x="7.2" y="331.72" class="st28" v:langID="1033"><v:paragraph v:horizAlign="1"/><v:tabList/>Internet</text>			</g>
			<g id="group1171-264" transform="translate(18.3763,-11.6197)" v:mID="1171" v:groupContext="group">
				<title>DNS (opaque).1171</title>
				<desc>Azure DNS</desc>
				<g id="shape1172-265" v:mID="1172" v:groupContext="shape">
					<title>XMLID_18_</title>
					<path d="M20.03 336.82 L19.85 336.82 C14.65 336.82 9.71 334.73 5.89 331 L4.68 329.69 C4.59 329.61 4.51 329.52
								 4.51 329.43 L4.33 329.26 C1.56 325.78 0 321.35 0 316.92 C0 312.49 1.47 308.06 4.25 304.5 L4.33 304.32
								 L4.42 304.24 C4.42 304.15 4.51 304.15 4.59 304.06 L5.89 302.67 C9.62 298.94 14.48 296.85 19.85 296.77
								 L20.03 296.77 C25.4 296.77 30.34 298.85 34.16 302.67 L35.37 303.98 C35.46 304.06 35.54 304.15 35.54
								 304.24 L35.72 304.41 C38.49 307.89 40.05 312.32 40.05 316.75 C40.05 321.27 38.49 325.7 35.72 329
								 L35.54 329.17 C35.54 329.26 35.46 329.34 35.37 329.43 L34.16 330.73 C30.34 334.73 25.31 336.82 20.03
								 336.82 Z" class="st29"/>
				</g>
				<g id="group1173-267" transform="translate(0.780195,-0.695011)" v:mID="1173" v:groupContext="group">
					<title>XMLID_3_</title>
					<g id="shape1174-268" v:mID="1174" v:groupContext="shape">
						<title>XMLID_9_</title>
						<path d="M38.4 317.7 C38.4 313.45 36.93 309.28 34.24 305.89 L34.07 305.71 C33.98 305.63 33.98 305.54 33.9
									 305.45 L32.68 304.15 C29.13 300.5 24.36 298.5 19.24 298.5 L19.07 298.5 C14.04 298.59 9.36 300.5
									 5.72 304.06 L4.42 305.45 C4.33 305.54 4.33 305.63 4.25 305.71 L4.07 305.8 C1.47 309.19 0 313.36
									 0 317.7 C0 321.96 1.47 326.13 4.16 329.52 L4.33 329.69 C4.42 329.78 4.42 329.87 4.51 329.95
									 L5.72 331.26 C9.28 334.82 13.96 336.82 19.07 336.82 L19.24 336.82 C24.27 336.82 29.13 334.82
									 32.68 331.26 L33.9 329.87 C33.98 329.78 33.98 329.69 34.07 329.61 L34.24 329.43 C36.93 326.22
									 38.4 321.96 38.4 317.7 ZM30.6 305.19 C30.51 305.19 30.43 305.28 30.34 305.28 C30.17 305.37 29.99
									 305.45 29.99 305.45 C29.65 305.63 29.3 305.71 28.95 305.8 C28.87 305.8 28.78 305.89 28.69 305.89
									 C28.26 306.06 27.83 306.15 27.39 306.24 C27.31 306.24 27.13 306.32 27.05 306.32 C26.35 304.5
									 25.49 302.85 24.53 301.63 C26.79 302.41 28.87 303.63 30.6 305.19 ZM19.07 300.76 C21.24 300.76
									 23.32 303.02 24.88 306.84 C23.15 307.19 21.24 307.28 19.24 307.28 C17.25 307.28 15.26 307.1
									 13.44 306.84 C14.91 303.02 16.99 300.85 19.07 300.76 ZM13.61 301.72 C12.66 302.93 11.88 304.5
									 11.18 306.32 L11.01 306.32 C10.58 306.15 10.06 306.06 9.71 305.98 C9.62 305.98 9.54 305.89 9.45
									 305.89 C9.1 305.71 8.76 305.54 8.5 305.45 C8.32 305.37 8.24 305.37 8.15 305.28 C8.06 305.19
									 7.98 305.19 7.8 305.11 C9.62 303.72 11.53 302.41 13.61 301.72 ZM7.8 330.21 C7.89 330.21 7.98
									 330.13 8.06 330.13 C8.24 330.04 8.32 330.04 8.41 329.95 C8.76 329.78 9.1 329.69 9.45 329.61
									 C9.54 329.61 9.62 329.52 9.71 329.52 C10.14 329.34 10.58 329.26 11.01 329.17 L11.18 329.17 C11.88
									 330.91 12.74 332.56 13.61 333.78 C11.53 332.91 9.54 331.69 7.8 330.21 ZM19.16 334.64 C16.99
									 334.56 14.91 332.39 13.44 328.65 C15.26 328.3 17.25 328.22 19.24 328.22 C21.24 328.22 23.06
									 328.39 24.88 328.65 C23.41 332.39 21.24 334.64 19.16 334.64 ZM24.62 333.69 C25.57 332.47 26.44
									 330.82 27.13 329 C27.22 329 27.39 329.08 27.48 329.08 C27.91 329.26 28.43 329.34 28.78 329.43
									 C28.87 329.43 28.95 329.52 29.04 329.52 C29.39 329.69 29.73 329.78 30.08 329.87 C30.25 329.95
									 30.34 329.95 30.43 330.04 C30.51 330.04 30.6 330.13 30.77 330.21 C28.87 331.78 26.79 332.99
									 24.62 333.69 ZM32.33 328.39 C32.07 328.39 31.99 328.3 31.73 328.22 C31.47 328.13 31.21 327.95
									 30.95 327.87 C30.86 327.87 30.77 327.78 30.69 327.78 C29.73 327.43 28.78 327.17 27.74 326.83
									 C28 325.87 28.17 325 28.35 324.05 L26.09 324.05 C25.92 324.91 25.75 325.7 25.57 326.3 C23.58
									 325.96 21.41 325.78 19.24 325.78 C16.99 325.78 14.82 326.04 12.74 326.39 C12.48 325.61 12.4
									 324.83 12.22 324.05 L9.97 324.05 C10.14 325 10.32 325.96 10.58 326.91 C9.62 327.17 8.76 327.43
									 7.89 327.78 C7.8 327.87 7.63 327.87 7.54 327.95 C7.28 328.04 7.02 328.22 6.76 328.3 C6.59 328.3
									 6.41 328.39 6.24 328.48 C3.99 325.7 2.69 322.31 2.43 318.75 L4.33 318.75 L4.33 316.49 L2.43
									 316.49 C2.69 312.93 3.99 309.62 6.15 306.93 L6.24 306.84 C6.41 306.93 6.59 307.02 6.76 307.1
									 C7.11 307.28 7.28 307.37 7.63 307.45 C7.72 307.45 7.8 307.54 7.89 307.54 C8.76 307.89 9.62 308.15
									 10.66 308.41 C10.4 309.28 10.32 310.06 10.14 310.93 L12.4 310.93 C12.57 310.23 12.74 309.45
									 12.83 308.84 C14.91 309.19 17.08 309.45 19.33 309.45 C21.59 309.45 23.67 309.19 25.66 308.93
									 C25.83 309.54 26.01 310.23 26.09 311.01 L28.35 311.01 C28.17 310.15 28 309.36 27.83 308.49 C28.78
									 308.23 29.73 307.97 30.69 307.54 C30.77 307.54 30.95 307.45 31.03 307.45 C31.38 307.37 31.55
									 307.19 31.9 307.1 C32.07 307.02 32.25 306.93 32.42 306.84 C34.68 309.62 35.98 313.01 36.24 316.49
									 L33.98 316.49 L33.98 318.75 L36.24 318.75 C35.8 322.31 34.5 325.78 32.33 328.39 Z"
								class="st30"/>
					</g>
					<g id="shape1175-270" v:mID="1175" v:groupContext="shape" transform="translate(6.32825,-14.074)">
						<title>XMLID_6_</title>
						<path d="M8.06 331.6 C8.06 332.56 7.89 333.25 7.72 333.86 C7.46 334.47 7.11 334.99 6.76 335.51 C6.33 335.86
									 5.81 336.21 5.11 336.47 C4.51 336.64 3.73 336.82 2.86 336.82 L0.52 336.82 C0.35 336.82 0.17
									 336.73 0.09 336.64 C-0 336.56 0 336.29 0 336.12 L0 327.43 C0 327.17 0.09 327.09 0.17 327 C0.26
									 326.91 0.43 326.83 0.61 326.83 L3.12 326.83 C4.07 326.83 4.77 326.91 5.37 327.17 C5.98 327.43
									 6.5 327.69 6.94 328.13 C7.37 328.56 7.72 329.08 7.89 329.69 C7.98 330.13 8.06 330.82 8.06 331.6
									 ZM5.98 331.69 C5.98 331.26 5.89 330.73 5.81 330.39 C5.72 330.04 5.46 329.61 5.29 329.34 C5.11
									 329.08 4.77 328.82 4.33 328.65 C3.99 328.48 3.47 328.39 2.77 328.39 L1.91 328.39 L1.91 335.17
									 L2.95 335.17 C3.47 335.17 3.9 335.08 4.33 334.9 C4.68 334.73 5.03 334.56 5.29 334.3 C5.55 333.95
									 5.72 333.69 5.81 333.25 C5.98 332.73 5.98 332.21 5.98 331.69 Z" class="st30"/>
					</g>
					<g id="shape1176-272" v:mID="1176" v:groupContext="shape" transform="translate(15.7773,-14.074)">
						<title>XMLID_5_</title>
						<path d="M8.41 335.95 C8.41 336.12 8.41 336.21 8.32 336.29 C8.24 336.38 8.24 336.47 8.15 336.56 C8.06 336.64
									 7.98 336.64 7.89 336.73 C7.8 336.73 7.72 336.82 7.54 336.82 L6.68 336.82 C6.5 336.82 6.33 336.82
									 6.24 336.73 C6.07 336.73 5.98 336.64 5.89 336.47 C5.81 336.38 5.63 336.21 5.55 336.12 C5.46
									 335.95 5.29 335.77 5.2 335.51 L2.77 330.91 C2.6 330.56 2.43 330.39 2.34 329.95 C2.17 329.61
									 1.99 329.34 1.99 329 C1.99 329.34 1.99 329.78 2.08 330.04 L2.08 336.38 L1.99 336.56 C1.99 336.64
									 1.91 336.64 1.82 336.64 C1.73 336.64 1.65 336.73 1.47 336.73 L0.52 336.73 C0.35 336.73 0.26
									 336.73 0.17 336.64 C0.09 336.64 0.09 336.56 0 336.56 L0 327.52 C0 327.26 0.09 327.17 0.26 327
									 C0.43 326.83 0.61 326.83 0.78 326.83 L1.82 326.83 C2.08 326.83 2.17 326.83 2.25 326.91 C2.43
									 326.91 2.51 327 2.6 327.09 C2.69 327.17 2.86 327.26 2.95 327.43 C3.03 327.61 3.12 327.78 3.29
									 327.95 L5.2 331.52 C5.29 331.78 5.46 331.95 5.55 332.12 C5.63 332.39 5.81 332.56 5.89 332.73
									 C5.98 332.99 6.15 333.08 6.24 333.34 C6.33 333.6 6.41 333.69 6.59 333.95 L6.59 327.09 L6.68
									 326.91 C6.68 326.83 6.76 326.83 6.85 326.83 C6.94 326.83 7.02 326.74 7.2 326.74 L8.15 326.74
									 C8.32 326.74 8.41 326.74 8.5 326.83 C8.58 326.83 8.58 326.91 8.67 326.91 L8.67 335.95 L8.41
									 335.95 Z" class="st30"/>
					</g>
					<g id="shape1177-274" v:mID="1177" v:groupContext="shape" transform="translate(25.6597,-13.9002)">
						<title>XMLID_4_</title>
						<path d="M6.59 333.6 C6.59 334.12 6.5 334.56 6.24 334.99 C5.98 335.43 5.81 335.69 5.46 335.95 C5.11 336.21
									 4.77 336.38 4.33 336.56 C3.9 336.73 3.38 336.82 2.86 336.82 C2.51 336.82 2.17 336.82 1.91 336.73
									 C1.65 336.64 1.39 336.56 1.13 336.47 C0.87 336.38 0.78 336.29 0.61 336.21 C0.43 336.12 0.35
									 336.03 0.26 335.95 C0.17 335.86 0.17 335.77 0.09 335.6 C0.09 335.43 0 335.25 0 335.08 L0 334.73
									 C0 334.64 -0 334.47 0.09 334.47 C0.09 334.38 0.17 334.38 0.17 334.3 C0.17 334.3 0.26 334.21
									 0.35 334.21 C0.43 334.21 0.52 334.3 0.69 334.38 C0.87 334.47 1.04 334.56 1.21 334.73 C1.47 334.82
									 1.65 334.99 1.99 335.08 C2.34 335.17 2.6 335.25 2.95 335.25 C3.21 335.25 3.38 335.25 3.64 335.17
									 C3.9 335.08 3.99 334.99 4.07 334.9 C4.25 334.82 4.33 334.64 4.42 334.56 C4.51 334.38 4.51 334.21
									 4.51 334.04 C4.51 333.78 4.42 333.69 4.33 333.43 L3.9 332.99 C3.64 332.82 3.55 332.73 3.21 332.65
									 C2.95 332.56 2.69 332.39 2.43 332.3 C2.17 332.12 1.91 332.04 1.65 331.95 C1.39 331.78 1.21 331.6
									 0.95 331.43 C0.69 331.17 0.61 331 0.52 330.65 C0.35 330.3 0.35 330.04 0.35 329.61 C0.35 329.17
									 0.43 328.65 0.61 328.39 C0.78 328.04 0.95 327.69 1.3 327.43 C1.65 327.17 1.91 327.09 2.34 326.91
									 C2.69 326.74 3.21 326.74 3.64 326.74 C3.9 326.74 4.07 326.74 4.33 326.83 C4.59 326.83 4.77 326.91
									 5.03 327 C5.29 327.09 5.37 327.17 5.55 327.26 C5.72 327.35 5.81 327.43 5.89 327.43 L5.98 327.61
									 C5.98 327.61 5.98 327.69 6.07 327.78 L6.07 328.91 C6.07 329 5.98 329 5.98 329.08 C5.98 329.08
									 5.89 329.17 5.81 329.17 C5.72 329.17 5.63 329.17 5.55 329.08 L5.11 328.82 C4.94 328.74 4.77
									 328.65 4.51 328.56 C4.25 328.48 4.07 328.48 3.73 328.48 C3.47 328.48 3.38 328.48 3.21 328.56
									 C3.03 328.65 2.86 328.74 2.86 328.82 C2.77 328.91 2.69 329.08 2.6 329.17 C2.51 329.34 2.51 329.52
									 2.51 329.52 C2.51 329.78 2.6 329.87 2.69 330.04 L3.12 330.47 C3.38 330.65 3.55 330.73 3.81 330.82
									 C4.07 330.91 4.33 331.08 4.59 331.17 C4.85 331.34 5.11 331.43 5.37 331.52 C5.63 331.69 5.81
									 331.86 6.07 332.04 C6.33 332.3 6.41 332.47 6.5 332.82 C6.5 332.82 6.59 333.17 6.59 333.6 Z"
								class="st30"/>
					</g>
				</g>
				<g id="shape1171-276" v:mID="1171" v:groupContext="groupContent">
					<v:textBlock v:margins="rect(0,0,0,0)" v:verticalAlign="0"/>
					<v:textRect cx="20.025" cy="342.818" width="50.63" height="12.0036"/>
					<text x="-3.92" y="345.82" class="st4" v:langID="1033"><v:paragraph v:horizAlign="1"/><v:tabList/>Azure DNS</text>				</g>
			</g>
			<g id="shape1178-278" v:mID="1178" v:groupContext="shape" transform="translate(-298.275,169.824) rotate(-90)">
				<title>Sheet.1178</title>
				<path d="M0 336.82 C8.05 336.82 15.57 336.82 22.96 336.82 C37.7 336.82 51.92 336.82 68.37 336.82" class="st25"/>
			</g>
			<g id="group1179-283" transform="translate(18.3882,-246.307)" v:mID="1179" v:groupContext="group">
				<title>Azure Active Directory (opaque).1179</title>
				<g id="shape1180-284" v:mID="1180" v:groupContext="shape">
					<title>Sheet.1180</title>
					<path d="M20.05 296.77 L0 320.55 L19.95 336.82 L40.03 320.64 L20.05 296.77 Z" class="st7"/>
				</g>
				<g id="group1181-286" v:mID="1181" v:groupContext="group">
					<title>Sheet.1181</title>
					<g id="group1182-287" transform="translate(11.8996,-11.9844)" v:mID="1182" v:groupContext="group">
						<title>Sheet.1182</title>
						<g id="shape1183-288" v:mID="1183" v:groupContext="shape">
							<title>Sheet.1183</title>
							<path d="M6.66 324.04 L0 330.17 C0.3 330.66 0.46 331.22 0.46 331.79 C0.46 332.09 0.41 332.37 0.33 332.66
										 L7.22 336.82 L7.22 324.81 C7.12 324.77 6.73 324.09 6.66 324.04 Z" class="st3"/>
						</g>
					</g>
					<g id="group1184-290" transform="translate(20.6079,-11.9797)" v:mID="1184" v:groupContext="group">
						<title>Sheet.1184</title>
						<g id="shape1185-291" v:mID="1185" v:groupContext="shape">
							<title>Sheet.1185</title>
							<path d="M1.33 323.91 C1.21 323.97 0.12 324.81 0 324.87 L0 336.82 L6.85 332.42 C6.79 332.19 6.78 331.97
										 6.78 331.74 C6.78 331.36 6.85 330.97 6.98 330.59 L1.33 323.91 Z" class="st3"/>
						</g>
					</g>
					<g id="shape1186-293" v:mID="1186" v:groupContext="shape">
						<title>Sheet.1186</title>
						<path d="M20.05 296.77 L0 320.55 L19.95 336.82 L40.03 320.64 L20.05 296.77 ZM30.59 322.97 C29.71 322.97 28.87
									 322.62 28.28 321.99 L22.78 325.9 C23.14 326.41 23.32 327.01 23.32 327.64 C23.32 329.42 21.87
									 330.85 20.09 330.85 C18.34 330.85 16.89 329.42 16.89 327.64 C16.89 326.86 17.18 326.14 17.67
									 325.57 L11.32 322.15 C10.74 322.71 9.97 323.02 9.16 323.02 C7.39 323.02 5.94 321.59 5.94 319.81
									 C5.94 318.04 7.39 316.59 9.16 316.59 C9.7 316.59 10.19 316.73 10.66 316.99 L17.31 310.83 C16.84
									 310.23 16.58 309.48 16.58 308.72 C16.58 306.77 18.17 305.2 20.12 305.2 C22.07 305.2 23.65 306.77
									 23.65 308.72 C23.65 309.38 23.46 310.02 23.09 310.57 L28.7 317.19 C29.24 316.77 29.92 316.55
									 30.62 316.55 C32.38 316.55 33.83 317.98 33.83 319.76 C33.8 321.53 32.36 322.97 30.59 322.97
									 Z" class="st3"/>
					</g>
				</g>
			</g>
			<g id="shape1187-295" v:mID="1187" v:groupContext="shape" transform="translate(0,-285.2)">
				<title>Sheet.1187</title>
				<desc>Azure Active Directory</desc>
				<v:textBlock v:margins="rect(4,4,4,4)"/>
				<v:textRect cx="38.4013" cy="322.416" width="76.81" height="28.8"/>
				<rect x="0" y="308.016" width="76.8026" height="28.8" class="st16"/>
				<text x="10.91" y="319.42" class="st4" v:langID="1033"><v:paragraph v:horizAlign="1"/><v:tabList/>Azure Active <tspan
							x="18.24" dy="1.2em" class="st9">Directory</tspan></text>			</g>
			<g id="shape1188-299" v:mID="1188" v:groupContext="shape" transform="translate(37.6396,-188.7)">
				<title>Sheet.1188</title>
				<desc>Authentication</desc>
				<v:textBlock v:margins="rect(4,4,4,4)"/>
				<v:textRect cx="36.9422" cy="326.816" width="73.89" height="20"/>
				<rect x="0" y="316.816" width="73.8844" height="20" class="st16"/>
				<text x="4" y="329.52" class="st31" v:langID="1033"><v:paragraph/><v:tabList/>Authentication</text>			</g>
			<g id="shape1189-302" v:mID="1189" v:groupContext="shape" transform="translate(39.3013,-89.7)">
				<title>Sheet.1189</title>
				<desc>DNS lookup</desc>
				<v:textBlock v:margins="rect(4,4,4,4)"/>
				<v:textRect cx="32.85" cy="326.816" width="65.7" height="20"/>
				<rect x="0" y="316.816" width="65.7" height="20" class="st16"/>
				<text x="4" y="329.52" class="st31" v:langID="1033"><v:paragraph/><v:tabList/>DNS lookup</text>			</g>
			<g id="shape1190-305" v:mID="1190" v:groupContext="shape" transform="translate(69.0013,-151.882)">
				<title>Sheet.1190</title>
				<path d="M0 336.82 L51.81 336.82" class="st5"/>
			</g>
		</g>
		<g id="shape1192-310" v:mID="1192" v:groupContext="shape" transform="translate(106.942,-74.1912)">
			<title>Sheet.1192</title>
			<path d="M0 336.82 L23.94 336.82" class="st5"/>
		</g>
		<g id="shape1193-315" v:mID="1193" v:groupContext="shape" transform="translate(-229.874,262.025) rotate(-90)">
			<title>Sheet.1193</title>
			<path d="M0 336.82 L99.53 336.82" class="st32"/>
		</g>
		<g id="shape1194-318" v:mID="1194" v:groupContext="shape" transform="translate(227.986,599.723) rotate(180)">
			<title>Sheet.1194</title>
			<path d="M0 336.82 C3.68 336.82 7.12 336.82 10.5 336.82 C16.15 336.82 21.64 336.82 27.7 336.82" class="st12"/>
		</g>
	</g>
</svg>
