<?xml version="1.0" encoding="UTF-8"?>
<svg width="349.97" height="175.64" enable-background="new 0 0 349.968 175.635" viewBox="0 0 349.968 175.635" xmlns="http://www.w3.org/2000/svg">
 <g fill-rule="evenodd">
  <path d="m269.09,5.235c-1.342-.498-2.754-.926-4.08-1.44 .68-.622 3.55.351 4.08,1.44z"/>
  <path d="m291.17,11.715c.007-.233.294-.187.48-.24 11.851,4.202 23.829,8.029 35.52,12.48 3.82,1.455 7.904,2.382 11.52,4.32-15.69-4.718-31.66-11.22-47.52-16.56z"/>
  <path d="m259.01,16.274c-3.433-.168-7.119-2.159-10.56-3.12 3.08-.408 7.17,2.249 10.56,3.12z"/>
  <path d="m246.29,13.635c1.93-.087 4.73,1.027 6.24,2.16-2.29-.511-4.31-1.292-6.24-2.16z"/>
  <path d="m244.85,14.115c1.122-.082 1.562.518 2.399.72-.58.482-2.2-.028-2.4-.72z"/>
  <path d="m336.53,29.235c-9.562-2.76-19.827-6.892-29.521-10.32 .085-.275.423-.608.48-.24 4.913,1.555 9.812,3.494 14.64,5.28 4.87,1.8 9.9,2.96 14.4,5.28z"/>
  <path d="m270.29,20.595c2.631.091 6.154,1.364 8.16,2.88-2.85-.828-5.39-1.969-8.16-2.88z"/>
  <path d="m278.93,23.475c.916-.269 2.93.426 3.601,1.2-1.45-.154-2.69-.508-3.6-1.2z"/>
  <path d="m224.21,24.675c3.771.389 6.535,1.785 9.12,3.36-3.6-.564-6.58-1.745-9.12-3.36z" fill="#4c5a52"/>
  <path d="m333.65,29.714c-4.738-1.183-8.799-3.042-13.2-4.56-.067-.429.227-.493.24-.24 4.44,1.475 9.17,2.667 12.96,4.8z"/>
  <path d="m195.65,25.395h3.12c.1,1.178-3.18,1.008-3.12,0z"/>
  <path d="m223.73,25.875c3.044.956 6.24,1.759 8.399,3.6-2.85-1.155-6.2-1.8-8.4-3.6z" fill="#4c5a52"/>
  <path d="m324.29,27.794c2.915.845 6.022,1.498 8.16,3.12-2.81-.95-5.94-1.584-8.16-3.12z"/>
  <path d="m310.85,36.195c-7.736-2.264-14.914-5.085-22.319-7.68 .085-.275.422-.608.479-.24 7.22,2.702 15.18,4.658 21.84,7.92z"/>
  <path d="m219.17,30.675c-2.311.959-5.131-.676-6.72-1.92 2.61-.553 5.27.55 6.72,1.92z" fill="#4c5a52"/>
  <path d="m233.33,29.475v-.48c1.31-.906.97,1.449 0,.48z" fill="#4c5a52"/>
  <path d="m211.73,29.955c2.027.853 4.782.977 5.76,2.88-2.344-.217-3.508-1.612-5.76-1.92-.4-.477.02-.306 0-.96z" fill="#4c5a52"/>
  <path d="m337.97,30.675c1.473.447 2.115,1.725 2.88,2.88-1.26-.661-2.22-1.621-2.88-2.88z"/>
  <path d="m220.85,31.635c-.288.752-1.191.889-2.16.96-.01-.897 1.79-1.239 2.16-.96z" fill="#4c5a52"/>
  <path d="m236.93,31.395c.73.23 1.955-.034 1.921.96-.62-.34-1.9-.021-1.92-.96z"/>
  <path d="m325.97,31.635c.671.37 1.861.218 1.92,1.2-.92-.122-1.87-.218-1.92-1.2z"/>
  <path d="m212.69,38.595c-2.111-.289-3.58-1.22-5.521-1.68-.405.395-.298,1.302-.72,1.68-1.779,1.082-2.97.415-4.56-.24-1.876-.772-4.842-1.032-5.521-2.64 2.813-1.249 6.915-2.746 10.08-.96 .2,2.51 4.6,2.057 6.24,3.84zm-11.04-3.361c1.141.367 1.973,1.257 3.359.72-.21-.899-2.76-1.792-3.36-.72zm-3.6.48c.036.769 1.336.994 1.681.72 .018-.418-.054-.747-.24-.96-.57-.005-.71.414-1.44.24zm2.4.481v.96c1.064.136 1.622.777 2.88.72 .24-1.66-2.14-1.774-2.88-1.68zm3.84,1.92c.886.006 1.653-.107 1.681-.96-.6-.481-1.89-.112-1.68.96z"/>
  <path d="m237.65,38.354c-3.295,2.851-7.328,1.256-10.561-.72 .146-.575.346-1.095.24-1.92 2.92-2.603 9.57-1.583 10.32,2.64zm-8.64-2.159c2.06.479 3.96,1.801 6.24.72-1.3-1.328-4.9-2.811-6.24-.72zm-1.2.96c1.389.53 3.83,2.3 5.04,1.44-1.39-.529-3.6-2.529-5.04-1.44zm6,1.92c1.155-.125 1.883-.677 2.64-1.2-.61-.183-2.63.008-2.64,1.2z"/>
  <path d="m309.17,37.395c-2.72-.72-4.936-1.944-7.68-2.64 1.97-.4 5.99,1.173 7.68,2.64z"/>
  <path d="m205.01,35.955c-1.387.537-2.219-.353-3.359-.72 .6-1.073 3.15-.18 3.36.72z" fill="#4c5a52"/>
  <path d="m211.49 34.754c4.603 1.797 9.829 2.971 13.92 5.28-4.7-1.699-10.09-2.707-13.92-5.28z"/>
  <path d="m208.13,34.995c3.201,1.039 6.316,2.164 9.36,3.36-2.97-.317-6.97-1.674-9.36-3.36z"/>
  <path d="m235.25,36.915c-2.28,1.082-4.181-.241-6.24-.72 1.34-2.091 4.94-.608 6.24.72z" fill="#4c5a52"/>
  <path d="m265.49,37.875c-.118,1.078.121,1.798.24,2.64-3.67,2.834-7.319-.146-11.04-1.2-.08-.959.428-1.332.239-2.4 3.38-2.959 6.81-.129 10.56.96zm-9.12-.48c2.197.28 4.847,2.859 6.96.96-2.05-.526-5.16-3.111-6.96-.96zm-.72,1.2c1.814.826 3.55,1.73 5.76,2.16-.89-1.451-4.42-2.748-5.76-2.16zm6.96,1.92c.456.336 1.647-.13 1.92-.72-.53-.41-1.96-.177-1.92.72z"/>
  <path d="m199.49,35.475c.187.213.258.542.24.96-.345.273-1.645.048-1.681-.72 .73.173.87-.246 1.44-.24z" fill="#4c5a52"/>
  <path d="m203.33,37.875c-1.258.058-1.815-.584-2.88-.72v-.96c.74-.094 3.12.02 2.88,1.68z" fill="#4c5a52"/>
  <path d="m263.33,38.354c-2.113,1.899-4.763-.68-6.96-.96 1.8-2.15 4.91.435 6.96.96z" fill="#4c5a52"/>
  <path d="m232.85,38.595c-1.21.86-3.651-.91-5.04-1.44 1.44-1.089 3.65.911 5.04,1.44z" fill="#4c5a52"/>
  <path d="m303.17,36.675c1.678.242 2.843.997 4.32,1.44-1.39.421-3.43-.572-4.32-1.44z"/>
  <path d="m205.97,37.155c-.027.853-.795.966-1.681.96-.21-1.072 1.08-1.441 1.68-.96z" fill="#4c5a52"/>
  <path d="m347.57,36.915c1.08,1.263.238,4.01.239,5.28-.88-1.436-.25-3.16-.24-5.28z"/>
  <path d="m346.13,37.155c.672,1.272.093,4.032.24,6-.65-.913-.63-3.841-.24-6z"/>
  <path d="m195.89,42.675c-3.124,3.334-7.247.59-10.801-.72-.202-.917-.404-1.835-.479-2.88 2.63-2.519 11.77-1.034 11.28,3.6zm-9.12-3.12c2.443.355 4.057,2.279 6.96,1.44-1.25-1.35-5.3-3.511-6.96-1.44zm-1.2.719c.758,2.062 4.246,2.608 6,2.88-.96-1.858-4.34-2.511-6-2.88zm6.96,2.881c1.08-.12 2.238-.162 2.4-1.2-1.1.098-2.42-.017-2.4,1.2z"/>
  <path d="m236.45,37.875c-.757.523-1.484,1.076-2.64,1.2 .01-1.192 2.03-1.383 2.64-1.2z" fill="#4c5a52"/>
  <path d="m344.45,37.875c1.103.437.146,2.769.239,3.12-.55-.568-.09-2.155-.24-3.12z"/>
  <path d="m261.41,40.754c-2.21-.43-3.945-1.334-5.76-2.16 1.34-.587 4.87.71 5.76,2.16z" fill="#4c5a52"/>
  <path d="m302.45,38.115c1.143-.103 1.794.285 2.399.72-.58.482-2.2-.028-2.4-.72z"/>
  <path d="m193.73,40.995c-2.903.839-4.517-1.085-6.96-1.44 1.66-2.071 5.71.09 6.96,1.44z" fill="#4c5a52"/>
  <path d="m224.93,41.955v1.92c-3.191,2.809-6.991,1.256-10.32-.48-.317-.703.153-1.239 0-2.4 3.14-2.467 7.49-.752 10.32.96zm-8.4-.96c1.192,1.404 3.752,2.205 5.76,1.44-1.17-1.428-3.73-2.227-5.76-1.44zm-1.44,1.68c1.616.495 3.404,1.994 5.04,1.68-.97-1.001-4.19-2.871-5.04-1.68zm6,1.679c.594.163 2.399-.241 2.641-1.2-1.25.033-2.04.524-2.64,1.2z"/>
  <path d="m264.53,39.794c-.272.59-1.464,1.056-1.92.72-.04-.896 1.39-1.129 1.92-.72z" fill="#4c5a52"/>
  <path d="m191.57,43.155c-1.754-.272-5.242-.819-6-2.88 1.66.368 5.04,1.021 6,2.88z" fill="#4c5a52"/>
  <path d="m254.21,45.794c-3.614,2.818-7.128-.156-10.56-1.44-.024-.984-.048-1.967.24-2.64 3.459-2.386 6.795-.288 10.079,1.2 .54,1.035.27,1.428.24,2.88zm-8.88-3.359c1.774.884 5.105,3.042 6.96.96-2.35-.681-5.04-3.222-6.96-.96zm4.56,3.359c-1.082-1.639-3.471-1.969-5.521-2.64 .91,1.806 3.46,1.983 5.52,2.64zm.96,0c.792.43 2.157-.313 2.64-.96-.87-.508-2.27.205-2.64.96z"/>
  <path d="m222.29,42.435c-2.008.765-4.567-.036-5.76-1.44 2.03-.787 4.59.012 5.76,1.44z" fill="#4c5a52"/>
  <path d="m252.29,43.395c-1.854,2.083-5.186-.076-6.96-.96 1.92-2.262 4.61.279 6.96.96z" fill="#4c5a52"/>
  <path d="m344.45,41.234c.549.201.657,1.475.239,1.92-.54-.178-.1-1.345-.24-1.92z"/>
  <path d="m194.93,41.955c-.162,1.039-1.32,1.08-2.4,1.2-.02-1.217 1.3-1.102 2.4-1.2z" fill="#4c5a52"/>
  <path d="m220.13,44.354c-1.636.314-3.424-1.185-5.04-1.68 .85-1.19 4.07.68 5.04,1.68z" fill="#4c5a52"/>
  <path d="m281.81,44.834v2.16c-3.208,3.215-7.085.168-10.561-.96-.064-1.298-.206-1.429 0-2.64 3.33-2.536 7.61-.335 10.56,1.44zm-9.12-.959c1.835.574 5.266,3.265 6.96.96-2.24-.387-5.06-3.128-6.96-.96zm4.8,3.6c-.85-1.871-3.319-2.121-5.521-2.64 1.08,1.642 3.48,1.959 5.52,2.64zm.96-.241c.914.483 2.576-.063 2.64-1.2-1.11.174-2.26.299-2.64,1.2z"/>
  <path d="m279.65,44.834c-1.694,2.305-5.125-.386-6.96-.96 1.9-2.167 4.72.574 6.96.96z" fill="#4c5a52"/>
  <path d="m335.33,42.915c.973-.093.264,1.496.479,2.16-.8-.085-.38-1.384-.48-2.16z"/>
  <path d="m170.45,47.475c-.315-.725-.165-1.916-.48-2.64 2.571-2.355 4.923-1.227 7.92,0 1.639.671 3.124.875 3.36,2.16 .336,1.828-1.808,3.362-3.6,3.36-2.3-.003-5.17-2.746-7.2-2.88zm1.2-2.4c2.283.619 4.682,2.782 7.2,1.68-1.53-1.275-4.95-3.375-7.2-1.68zm-.96.96v.72c2.127.482 4.903,2.709 6.72,1.92-1.72-1.263-4.81-2.368-6.72-2.64zm7.44,2.88c.977-.144 2.211-.029 2.16-1.2-.84.283-2.28-.042-2.16,1.2z"/>
  <path d="m223.73,43.155c-.241.959-2.047,1.363-2.641,1.2 .6-.677 1.39-1.168 2.64-1.2z" fill="#4c5a52"/>
  <path d="m244.37,43.155c2.05.67 4.438,1.001 5.521,2.64-2.06-.658-4.61-.835-5.52-2.64z" fill="#4c5a52"/>
  <path d="m178.85,46.754c-2.518,1.103-4.917-1.061-7.2-1.68 2.25-1.694 5.67.406 7.2,1.68z" fill="#4c5a52"/>
  <path d="m212.21,46.995c.17.791.386,1.534.48,2.4-3.296,2.737-7.413.8-10.561-.96 .327-.633.284-1.636.48-2.4 2.85-2.503 7.08-.742 9.6.96zm-8.16-.96c1.113,1.107 4.889,3.084 6.24.96-2.23-.438-3.78-2.086-6.24-.96zm-.96,1.44v.72c1.659.661 3.294,1.346 5.04,1.92 .28-1.823-3.74-2.41-5.04-2.64zm6.24,2.4c.732-.468 2.204-.196 2.16-1.44-1.02.114-2.68.555-2.16,1.44z"/>
  <path d="m253.49,44.834c-.482.647-1.848,1.39-2.64.96 .37-.755 1.77-1.468 2.64-.96z" fill="#4c5a52"/>
  <path d="m271.97,44.834c2.201.519 4.671.77 5.521,2.64-2.04-.68-4.44-.997-5.52-2.64z" fill="#4c5a52"/>
  <path d="m347.09,45.314c.499.134.509.375.24.72-37.34,19.06-75.752,38.248-114.72,57.84-35.307,17.751-71.726,35.999-107.28,54.72-2.364,1.245-5.697,3.279-7.2,3.36-3.048.164-6.476-2.623-9.12-3.84-3.288-1.514-6.38-2.227-8.64-4.32 2.797.748 5.469,2.165 8.64,3.6 2.759,1.248 5.862,3.861 8.88,3.84 1.544-.01 4.923-2.04 7.44-3.359 54.288-28.458 109.38-55.977 164.16-83.52 9.477-4.765 19.063-9.704 28.56-14.4 9.91-4.895 19.63-9.835 29.04-14.636z" fill="#4c5a52"/>
  <path d="m210.29,46.995c-1.352,2.125-5.127.147-6.24-.96 2.46-1.126 4.01.522 6.24.96z" fill="#4c5a52"/>
  <path d="m177.41,48.674c-1.816.789-4.592-1.438-6.72-1.92v-.72c1.91.273 5,1.378 6.72,2.64z" fill="#4c5a52"/>
  <path d="m242.93,48.915c-.255,1-.062,1.059 0,2.16-1.434.486-2.859.98-3.84,1.92-2.8-.48-4.668-1.892-7.199-2.64 .275-.991.275-1.888 0-2.88 3.43-3.24 7.37.249 11.04,1.44zm-9.6-.96c2.304.495 4.072,2.264 6.96,1.44-1.43-1.154-5.3-3.531-6.96-1.44zm-.72.96v.96c1.79.317 4.217,2.467 5.76,1.44-1.19-1.395-4.19-2.18-5.76-2.4zm6.96,2.399c.867-.333 2.229-.17 2.399-1.2-.68-.314-2.42.055-2.4,1.2z"/>
  <path d="m281.09,46.035c-.063,1.136-1.726,1.683-2.64,1.2 .38-.902 1.53-1.027 2.64-1.2z" fill="#4c5a52"/>
  <path d="m348.05,46.995c-1.246.478-.718,2.501-.96,4.8-.663.297-1.219.701-2.16.72-.233-.709.314-3.25-.24-4.32 1.03-.331 2.15-1.845 3.36-1.2zm-1.92,4.56c-.266-1.014.565-3.125-.479-3.36 .26,1.014-.57,3.125.48,3.36z" fill="#4c5a52"/>
  <path d="m240.29,49.395c-2.888.824-4.656-.945-6.96-1.44 1.66-2.091 5.53.286 6.96,1.44z" fill="#4c5a52"/>
  <path d="m270.53,49.635v2.64c-1.046.794-2.438,1.243-3.601,1.92-2.044-1.316-4.945-1.773-6.96-3.12 .4-6.582 7.23-2.803 10.56-1.44zm-9.12-.48c2.183.401 5.499,3.334 7.439.96-2.43-.448-5.58-3.518-7.44-.96zm-.96.96c1.273,1.227 4.536,2.956 6.24,2.16-1.85-.817-4.13-2.4-6.24-2.16zm6.96,2.639c.704.407 2.024-.276 2.4-.96-.7-.398-2.41-.103-2.4.96z"/>
  <path d="m208.13,50.115c-1.746-.574-3.381-1.259-5.04-1.92v-.72c1.3.23 5.32.817 5.04,2.64z" fill="#4c5a52"/>
  <path d="m180.29,47.714c.051,1.171-1.183,1.057-2.16,1.2-.12-1.241 1.32-.916 2.16-1.2z" fill="#4c5a52"/>
  <path d="m268.85,50.115c-1.94,2.374-5.257-.559-7.439-.96 1.86-2.558 5.01.512 7.44.96z" fill="#4c5a52"/>
  <path d="m345.65,48.195c1.045.235.214,2.346.479,3.36-1.05-.235-.22-2.346-.48-3.36z"/>
  <path d="m136.13,48.674c-.035.525-.604.516-1.2.48-.17-.83.84-.86 1.2-.48z"/>
  <path d="m167.81,51.555v2.64c-3.958,2.578-7.825.05-11.52-1.44v-2.64c3.81-2.939 7.88-.235 11.52,1.44zm-9.84-1.44c1.64,1.155 5.277,3.347 7.44,1.68-2.43-.721-4.65-2.72-7.44-1.68zm-.96,2.159c2.201.46 4.212,2.319 6.48,1.92-1.377-1.742-4.158-2.082-6.48-2.88v.96zm7.2,1.92c.767.218 2.301-.042 2.64-.96-.75-.501-2.4.153-2.64.96z"/>
  <path d="m211.49,48.435c.044,1.244-1.428.972-2.16,1.44-.52-.885 1.14-1.326 2.16-1.44z" fill="#4c5a52"/>
  <path d="m343.97,48.435c.731.557.969,4.601-.239,4.8 .13-1.551-.28-3.639.24-4.8z" fill="#4c5a52"/>
  <path d="m238.37,51.314c-1.543,1.027-3.97-1.123-5.76-1.44v-.96c1.57.221 4.57,1.006 5.76,2.4z" fill="#4c5a52"/>
  <path d="m142.61,48.915c1.125.154 2.256.304 2.64,1.2-20.077,6.963-39.361,14.719-59.04,22.08-.492-.467-1.585-.335-1.68-1.2 .879-.08 1.333.267 1.92.48 .587-.566-.358-.447-.24-1.2 17.989-6.731 35.753-13.687 53.76-20.4 .655-.175.483.477.96.48 .326-.074.199-.601.24-.96 1.051-.091 1.234.686 2.16.72 .25-.896-.9-.38-.72-1.2z" fill="#e7e7e8"/>
  <path d="m347.81,49.155c.348.058.559,1.975-.239,1.68 0-.638-.09-1.371.24-1.68z" fill="#4c5a52"/>
  <path d="m135.65,49.875c-.045.758-1.773.557-2.16.24 .04-.759 1.77-.557 2.16-.24z"/>
  <path d="m165.41,51.794c-2.163,1.667-5.8-.525-7.44-1.68 2.79-1.039 5.01.96 7.44,1.68z" fill="#4c5a52"/>
  <path d="m241.97,50.115c-.17,1.03-1.532.867-2.399,1.2-.02-1.146 1.72-1.515 2.4-1.2z" fill="#4c5a52"/>
  <path d="m266.69,52.274c-1.704.796-4.967-.933-6.24-2.16 2.11-.239 4.39,1.344 6.24,2.16z" fill="#4c5a52"/>
  <path d="m299.33,49.875c.849.191.879,1.201 1.68,1.44-.38.939-1.69-.492-1.68-1.44z"/>
  <path d="m132.77,50.354c-.224.903-2.991.519-3.6.24 .22-.903 2.99-.518 3.6-.24z"/>
  <path d="m198.05,52.995c.066.873.232,1.696 0,2.64-3.396,2.463-6.346-.03-9.84-1.2 .024-.984.048-1.967-.239-2.64 3.23-2.474 7.15-.451 10.08,1.2zm-8.16-1.201c1.272,1.442 4.188,2.156 6,1.68-1.28-1.244-3.66-2.259-6-1.68zm-1.2,1.201v.72c1.882.598 3.223,1.738 5.52,1.92-.72-1.862-4.01-2.363-5.52-2.64zm6.48,2.4c.905.185 1.147-.293 1.92-.24v-.96c-.74.299-1.88.197-1.92,1.2z"/>
  <path d="m129.17,51.555c.196.897-1.479.444-1.68.24-.1-.598 1.5-.711 1.68-.24z"/>
  <path d="m157.01,51.314c2.322.798 5.103,1.138 6.48,2.88-2.268.399-4.279-1.459-6.48-1.92v-.96z" fill="#4c5a52"/>
  <path d="m230.69,56.354c-1.158.682-2.669,1.012-3.601,1.92-2.384-.896-4.688-1.871-6.96-2.88-.225-.815-.32-1.759-.479-2.64 2.099-1.86 4.951-1.065 7.68,0 2.02.789 3.82.938 3.36,3.6zm-9.36-3.6c1.525,1.505 4.513,2.763 6.96,1.92-1.81-1.123-4.53-2.891-6.96-1.92zm-.96,1.44c1.121,1.679 3.644,1.957 5.76,2.64-.97-1.688-4.09-2.447-5.76-2.64zm6.72,2.401c.721.29 2.428-.212 2.641-1.2-1.17.117-2.29.266-2.64,1.2z"/>
  <path d="m195.89,53.475c-1.812.476-4.728-.238-6-1.68 2.34-.58 4.72.435 6,1.68z" fill="#4c5a52"/>
  <path d="m269.81,51.794c-.376.684-1.696,1.367-2.4.96-.01-1.063 1.7-1.358 2.4-.96z" fill="#4c5a52"/>
  <path d="m339.41,51.555c.301.317.63,2.698-.24,2.64 .17-1.315.04-1.439.24-2.64z"/>
  <path d="m228.29,54.674c-2.447.843-5.435-.415-6.96-1.92 2.43-.971 5.15.797 6.96,1.92z" fill="#4c5a52"/>
  <path d="m259.25,55.395c-.142,1.022.173,1.587.24,2.4-1.521.319-2.561,1.12-3.84,1.68-2.622-.979-5.379-1.821-7.681-3.12 .533-.663.458-1.219.24-2.16 3.3-3.465 7.54-.322 11.04,1.2zm-9.12-1.201c1.997.629 5.028,3.296 7.2,1.44-2.26-.342-5.11-3.253-7.2-1.44zm-1.2,1.201c1.135,1.906 3.972,2.109 6.24,2.88-.89-2.013-4.25-2.768-6.24-2.88zm7.44,2.64c.828-.212 2.019-.062 1.92-1.2-.81.233-1.95.131-1.92,1.2z"/>
  <path d="m337.73,52.274c.911.219.175.965.239,1.68-.54-.103-.1-1.182-.24-1.68z"/>
  <path d="m194.21,55.635c-2.297-.183-3.638-1.322-5.52-1.92v-.72c1.51.277 4.8.778 5.52,2.64z" fill="#4c5a52"/>
  <path d="m166.85,53.234c-.339.918-1.874,1.178-2.64.96 .24-.807 1.89-1.461 2.64-.96z" fill="#4c5a52"/>
  <path d="m257.33,55.635c-2.172,1.855-5.203-.812-7.2-1.44 2.09-1.814 4.94,1.097 7.2,1.44z" fill="#4c5a52"/>
  <path d="m226.13,56.834c-2.116-.684-4.639-.961-5.76-2.64 1.67.193 4.79.952 5.76,2.64z" fill="#4c5a52"/>
  <path d="m197.09,54.194v.96c-.772-.053-1.015.424-1.92.24 .04-1.002 1.18-.9 1.92-1.2z" fill="#4c5a52"/>
  <path d="m151.97,59.955c-3.624,3.175-7.789.09-11.52-1.2 .26-.974-.093-1.316 0-2.64 2.662-1.962 5.454-1.14 8.64.24 1.69.73 3.58,1.572 2.88,3.6zm-9.84-3.36c2.474.584 4.685,2.826 7.44,1.68-1.83-1.162-5.45-3.602-7.44-1.68zm-.96.96v.72c2.302.28 4.266,2.104 6.24,1.92-1.33-1.491-4.4-2.456-6.24-2.64zm7.2,2.88c1.007-.354 2.589-.131 2.64-1.44-1.01.353-2.59.13-2.64,1.44z"/>
  <path d="m293.81,54.915c1.566.116 2.749,2.688 4.319,3.6-1.75.064-2.96-2.481-4.32-3.6z"/>
  <path d="m255.17,58.274c-2.269-.771-5.105-.974-6.24-2.88 1.99.113 5.35.868 6.24,2.88z" fill="#4c5a52"/>
  <path d="m229.73,55.395c-.213.988-1.92,1.49-2.641,1.2 .35-.934 1.47-1.083 2.64-1.2z" fill="#4c5a52"/>
  <path d="m149.57,58.274c-2.755,1.146-4.966-1.095-7.44-1.68 1.99-1.921 5.61.519 7.44,1.68z" fill="#4c5a52"/>
  <path d="m185.57,60.674c-3.596,2.927-7.245.295-11.04-.96 .118-1.078-.122-1.798-.24-2.64 1.165.115 2.552-1.463 4.32-1.44 1.912.025 6.287,2.232 6.72,3.12 .3.62-.06,1.414.24,1.92zm-9.36-3.119c2.195.473 4.062,2.188 6.72,1.44-1.41-1.135-4.77-3.112-6.72-1.44zm4.8,3.36c-1.218-1.662-3.618-2.142-6-2.64 1.09,1.648 4.33,2.364 6,2.64zm.96-.241c.723.489 2.038-.09 2.4-.72-.74-.503-1.95.183-2.4.72z"/>
  <path d="m182.93,58.995c-2.658.748-4.525-.967-6.72-1.44 1.95-1.672 5.31.305 6.72,1.44z" fill="#4c5a52"/>
  <path d="m258.29,56.834c.099,1.139-1.092.988-1.92,1.2-.03-1.068 1.11-.966 1.92-1.2z" fill="#4c5a52"/>
  <path d="m293.33,57.075c1.297-.252 2.099,2.058 3.36,2.64-1.15.944-2.02-2.209-3.36-2.64z"/>
  <path d="m217.49,62.115c-3.508,3.118-7.129.612-11.04-.72-.185-1.047.071-1.465-.24-2.64 2.067-2.112 5.002-1.358 7.92-.24 1.95.748 3.79,1.058 3.36,3.6zm-9.36-2.881c2.166.117 5.104,3.057 6.721.72-2.23-.053-5.03-3.129-6.72-.72zm-1.2.721v.72c2.062.658 3.862,1.578 6,2.16-.69-2.135-4.31-2.542-6-2.88zm7.44,2.64c.425-.696 2.125-.115 1.92-1.44-.7.269-2.77.417-1.92,1.44z"/>
  <path d="m147.41,60.194c-1.974.184-3.938-1.64-6.24-1.92v-.72c1.84.185 4.91,1.15 6.24,2.64z" fill="#4c5a52"/>
  <path d="m247.97,61.155c-.201.598-.313,1.286-.239,2.16-3.666,2.709-7.577-.015-11.04-1.44v-2.4c3.75-2.926 7.84-.177 11.28,1.68zm-9.6-1.68c1.597,1.073 5.146,3.387 7.2,1.68-2.15-.781-4.54-2.887-7.2-1.68zm-.96,1.44c-.011.331.113.527.24.72 2.063.061 4.827,2.839 6,1.44-1.93-.73-4.16-2.372-6.24-2.16zm7.2,2.64c1.13-.07 2.046-.354 2.399-1.2-.74-.372-2.19.287-2.4,1.2z"/>
  <path d="m175.01,58.274c2.382.498 4.782.978 6,2.64-1.67-.275-4.91-.991-6-2.64z" fill="#4c5a52"/>
  <path d="m214.85,59.955c-1.616,2.336-4.555-.604-6.721-.72 1.69-2.41 4.49.666 6.72.72z" fill="#4c5a52"/>
  <path d="m293.57,61.875c-1.475-.766-2.41-2.07-3.36-3.36 1.42.82 2.54,1.941 3.36,3.36z"/>
  <path d="m151.01,58.995c-.051,1.309-1.633,1.086-2.64,1.44 .05-1.31 1.63-1.087 2.64-1.44z" fill="#4c5a52"/>
  <path d="m245.57,61.155c-2.055,1.707-5.604-.607-7.2-1.68 2.66-1.207 5.05.899 7.2,1.68z" fill="#4c5a52"/>
  <path d="m138.53,62.354c.177.943.417,1.823.72,2.64-4.107,3.227-8.925.034-12.72-1.68 .148-.892.572-1.508.72-2.4 3.87-2.591 7.84-.218 11.28,1.44zm-9.84-.719c2.673.396 5.683,3.53 8.16,1.2-2.33-.738-5.81-3.416-8.16-1.2zm-1.2,1.199c2.071.858 4.562,2.413 6.72,2.4-1.39-1.375-4.79-3.151-6.72-2.4zm7.68,2.641c.746.314 2.148-.491 2.88-.96-.57-.708-2.63-.097-2.88.96z"/>
  <path d="m184.37,59.955c-.362.629-1.677,1.208-2.4.72 .45-.538 1.66-1.224 2.4-.72z" fill="#4c5a52"/>
  <path d="m212.93,62.834c-2.138-.583-3.938-1.502-6-2.16v-.72c1.69.339 5.31.746 6,2.88z" fill="#4c5a52"/>
  <path d="m301.25,60.435c.787.228-.057,2.118.24,3.36-.87-.525-.11-2.623-.24-3.36z"/>
  <path d="m136.85,62.834c-2.477,2.33-5.487-.804-8.16-1.2 2.35-2.215 5.83.463 8.16,1.2z" fill="#4c5a52"/>
  <path d="m243.65,63.075c-1.173,1.399-3.937-1.379-6-1.44-.127-.193-.251-.39-.24-.72 2.08-.212 4.31,1.43 6.24,2.16z" fill="#4c5a52"/>
  <path d="m289.97,60.674c2.17,1.038.64,2.563 0,0z"/>
  <path d="m299.81,60.915c.71.708.358,2.035.24,3.12-.13,3.621-.45-2.778-.24-3.12z"/>
  <path d="m216.29,61.155c.205,1.325-1.495.744-1.92,1.44-.85-1.023 1.22-1.171 1.92-1.44z" fill="#4c5a52"/>
  <path d="m298.61,61.395c.278.609.663,3.376-.24,3.6 .55-1.392-.37-2.374.24-3.6z"/>
  <path d="m169.49,64.754c.209,1.276.222,1.793 0,2.88-3.931,2.508-7.887-.488-11.28-1.92v-2.16c3.74-2.658 7.83-.3 11.28,1.2zm-9.12-.719c2.029.365 5.022,3.252 6.72.96-2.14-.32-5.02-3.157-6.72-.96zm-1.44,1.44c2.45.005 4.527,2.758 6.48,1.68-2.11-.93-4.04-2.041-6.48-2.64v.96zm7.2,1.92c.759.525 1.772-.356 2.64-.48-.11-1.393-2.34-.17-2.64.48z"/>
  <path d="m247.01,62.354c-.354.847-1.27,1.13-2.399,1.2 .21-.912 1.66-1.571 2.4-1.2z" fill="#4c5a52"/>
  <path d="m134.21,65.234c-2.158.013-4.649-1.542-6.72-2.4 1.93-.751 5.33,1.025 6.72,2.4z" fill="#4c5a52"/>
  <path d="m204.53,68.115c-1.736.395-2.746,1.921-4.32,1.92-1.928-.002-5.074-3.008-7.439-3.12v-2.4c1.026.103 2.239-1.603 3.84-1.68 2.235-.108 7.564,2.484 7.92,3.6 .2.634-.16,1.218 0,1.68zm-9.6-3.12c2.075.271 4.732,2.89 6.72.96-1.89-.503-5.06-3.219-6.72-.96zm-1.68.96c1.952.946 4.485,2.53 6.721,2.4-1.58-1.184-4.89-3.054-6.72-2.4zm7.68,2.399c.672.375 1.665-.636 2.64-.72-.11-1.36-2.5-.134-2.64.72z"/>
  <path d="m167.09,64.995c-1.698,2.292-4.691-.595-6.72-.96 1.7-2.197 4.58.64 6.72.96z" fill="#4c5a52"/>
  <path d="m234.05,66.915c-.079.959.429,1.332.24,2.4-3.305,3.269-7.5-.223-11.04-1.44 .236-.959.236-1.44 0-2.4 3.41-2.874 7.52-.319 10.8,1.44zm-8.88-1.201c1.952.622 5.155,3.244 7.2,1.44-2.27-.328-5.1-3.264-7.2-1.44zm-.96,1.681c1.901.759 4.143,2.389 6.24,2.16-1.12-2-4.193-2.046-6.24-3.12 .02.654-.4.482 0,.96zm7.2,2.399c.897-.143 1.792-.288 1.92-1.2-.97.068-1.95.129-1.92,1.2z"/>
  <path d="m138.05,64.515c-.731.469-2.134,1.274-2.88.96 .25-1.057 2.31-1.668 2.88-.96z" fill="#4c5a52"/>
  <path d="m201.65,65.955c-1.987,1.93-4.645-.689-6.72-.96 1.66-2.259 4.83.457 6.72.96z" fill="#4c5a52"/>
  <path d="m158.93,64.515c2.44.6 4.37,1.71 6.48,2.64-1.953,1.078-4.03-1.675-6.48-1.68v-.96z" fill="#4c5a52"/>
  <path d="m121.25,64.754c5.972,1.948 11.313,4.527 17.04,6.72-5.651-.99-11.115-4.245-16.56-6.24-.41.089-.45-.187-.48-.48z"/>
  <path d="m297.17,64.754c.757.54-.034,2.554.24,4.08-.94-.719.11-2.479-.24-4.08z"/>
  <path d="m232.37,67.155c-2.045,1.804-5.248-.818-7.2-1.44 2.1-1.825 4.93,1.111 7.2,1.44z" fill="#4c5a52"/>
  <path d="m123.89,68.595c.024.984.047,1.967-.24,2.64-3.818,2.836-7.786-.015-11.52-1.2 .044-1.188-.542-2.117 0-3.12 3.83-3.061 8.38-.252 11.76,1.68zm-10.08-1.68c1.924,1.345 5.975,4.21 8.16,1.68-2.85-.411-5.01-3.034-8.16-1.68zm-1.2,2.399c2.191.688 4.069,1.691 6.24,2.4-.447-2.833-3.952-2.608-6-3.84-.28.284-.27.849-.24,1.44zm7.2,2.4c1.137-.463 2.98-.22 3.12-1.68-1.17.432-2.82.382-3.12,1.68z"/>
  <path d="m199.97,68.354c-2.235.13-4.769-1.454-6.721-2.4 1.83-.653 5.14,1.217 6.72,2.4z" fill="#4c5a52"/>
  <path d="m299.81,65.714c.348.058.559,1.976-.239,1.68-.12-.757.43-.847.24-1.68z"/>
  <path d="m168.77,66.915c-.868.124-1.881,1.005-2.64.48 .3-.65 2.53-1.873 2.64-.48z" fill="#4c5a52"/>
  <path d="m121.97,68.595c-2.185,2.53-6.235-.335-8.16-1.68 3.15-1.354 5.31,1.269 8.16,1.68z" fill="#4c5a52"/>
  <path d="m224.21,66.435c2.047,1.074 5.12,1.12 6.24,3.12-2.098.229-4.339-1.401-6.24-2.16-.4-.478.02-.306 0-.96z" fill="#4c5a52"/>
  <path d="m203.57,67.634c-.975.084-1.968,1.095-2.64.72 .14-.854 2.53-2.08 2.64-.72z" fill="#4c5a52"/>
  <path d="m157.25,70.035c.326,1.048-.152,1.417.24,2.4-3.744,3.306-8.107.595-12-.96 .118-1.078-.122-1.798-.24-2.64 3.91-2.877 8.4-.645 12,1.2zm-10.08-1.201c1.823,1.07 5.876,3.768 7.68,1.2-2.72-.578-4.79-2.797-7.68-1.2zm-1.2,1.92c2.341.478 4.352,2.503 6.72,2.16-1.503-1.777-4.138-2.422-6.72-3.12v.96zm7.44,2.161c.815.244 2.542-.432 3.12-1.2-.99-.416-2.79.18-3.12,1.2z"/>
  <path d="m112.85,67.875c2.048,1.231 5.553,1.007 6,3.84-2.171-.709-4.049-1.711-6.24-2.4-.03-.592-.04-1.157.24-1.44z" fill="#4c5a52"/>
  <path d="m154.85,70.035c-1.804,2.568-5.857-.13-7.68-1.2 2.89-1.598 4.96.621 7.68,1.2z" fill="#4c5a52"/>
  <path d="m233.33,68.595c-.128.912-1.022,1.057-1.92,1.2-.03-1.072.95-1.133 1.92-1.2z" fill="#4c5a52"/>
  <path d="m129.89 69.555c5.327 2.112 10.966 3.913 15.6 6.72-5.25-2.191-11.03-3.854-15.6-6.72z"/>
  <path d="m145.97,69.794c2.583.698 5.217,1.343 6.72,3.12-2.368.343-4.379-1.682-6.72-2.16v-.96z" fill="#4c5a52"/>
  <path d="m188.21,72.435c.01.802.835,2.029.24,2.64-2.945,3.372-7.362-.026-10.56-1.2 .135-1.095-.425-1.495-.24-2.64 3.33-2.72 7.37-.179 10.56,1.2zm-8.88-.721c2.158.327 4.972,3.004 6.96,1.2-2.12-.423-4.81-3.081-6.96-1.2zm5.28,3.841c-1.15-1.811-3.68-2.24-6-2.88 1.11,1.851 3.84,2.077 6,2.88zm1.44-.48c.36.383 1.01-.007 1.199-.48-.36-.383-1.01.006-1.2.48z"/>
  <path d="m222.05,72.674c.264.697.217,1.704.48,2.4-1.372.708-2.755,1.405-4.08,2.16-2.809-.951-5.245-2.274-8.16-3.12-.004-1.044-.079-2.16.24-2.88 3.89-2.883 7.39.59 11.52,1.44zm-10.08-.96c2.523.256 5.709,3.669 7.68,1.44-2.42-.4-5.24-3.355-7.68-1.44zm-.96.96c1.3,1.916 4.912,2.748 6.961,3.12-1.24-1.972-4.82-2.836-6.96-3.12zm7.92,2.881c.576.342 2.044-.084 2.159-.96-.65-.413-1.91.217-2.16.96z"/>
  <path d="m122.93,70.035c-.14,1.46-1.983,1.217-3.12,1.68 .3-1.299 1.95-1.249 3.12-1.68z" fill="#4c5a52"/>
  <path d="m127.73,70.035c5.216,1.824 9.838,4.242 14.64,6.48v2.4c-3.862,3.36-8.146-.333-12.24-1.44v-2.4c.992-.769 2.67-.85 3.6-1.68-1.35-1.77-4.71-1.527-6-3.36zm4.32,5.52c3,.241 5.111,3.115 7.92,1.44-1.68-1.37-5.95-4.037-7.92-1.44zm5.76,3.599c-1.53-1.83-4.318-2.402-6.96-3.12 1.35,1.86 4.77,2.884 6.96,3.12zm1.2.241c.821-.459 2.169-.392 2.4-1.44-1.28-.08-2.83.579-2.4,1.44z"/>
  <path d="m124.85,70.274c2.366,1.074 4.866,2.014 7.2,3.12-2.209.127-4.571-1.667-6.72-2.4-.51.112-.46-.342-.48-.72z"/>
  <path d="m109.73,74.115c.225.815.321,1.759.48,2.64-4.107,3.22-8.439-.026-12.48-1.44v-2.64c3.81-3.209 8.42-.203 12,1.44zm-10.321-1.2c2.596.622 5.754,3.797 8.4,1.44-2.51-.735-5.95-3.576-8.401-1.44zm-1.201.96c.355.044.22.58.24.96 2.648.391 4.15,1.929 6.72,2.4-.89-2.274-5.259-3.493-6.962-3.36zm7.922,3.359c1.05-.47 2.877-.163 2.88-1.68-1.24.278-2.72.318-2.88,1.68z"/>
  <path d="m186.29,72.915c-1.988,1.804-4.802-.873-6.96-1.2 2.15-1.882 4.84.776 6.96,1.2z" fill="#4c5a52"/>
  <path d="m219.65 73.154c-1.971 2.229-5.156-1.184-7.68-1.44 2.44-1.915 5.26 1.04 7.68 1.44z" fill="#4c5a52"/>
  <path d="m83.088,71.475c.806.314 1.957.283 2.16,1.2-1.094-.026-2.171-.069-2.16-1.2z" fill="#e7e7e8"/>
  <path d="m156.53,71.714c-.578.769-2.305,1.444-3.12,1.2 .33-1.019 2.13-1.615 3.12-1.2z" fill="#4c5a52"/>
  <path d="m107.81,74.354c-2.646,2.357-5.804-.818-8.4-1.44 2.45-2.135 5.89.706 8.4,1.44z" fill="#4c5a52"/>
  <path d="m125.09,72.194c1.199.001 1.686.714 2.64.96-.62.367-2.41-.146-2.64-.96z"/>
  <path d="m217.97,75.794c-2.049-.372-5.661-1.204-6.961-3.12 2.14.284 5.72,1.148 6.96,3.12z" fill="#4c5a52"/>
  <path d="m178.61,72.674c2.32.64 4.85,1.07 6,2.88-2.16-.802-4.89-1.028-6-2.88z" fill="#4c5a52"/>
  <path d="m299.81,72.674c.632.326.247,2.064.24,3.12-.92-.315.11-1.876-.24-3.12z"/>
  <path d="m105.17,77.234c-2.569-.471-4.071-2.009-6.72-2.4-.02-.38.115-.916-.24-.96 1.701-.132 6.07,1.087 6.96,3.36z" fill="#4c5a52"/>
  <path d="m139.97,76.995c-2.809,1.675-4.919-1.199-7.92-1.44 1.97-2.597 6.24.07 7.92,1.44z" fill="#4c5a52"/>
  <path d="m187.25,74.595c-.189.473-.839.863-1.199.48 .19-.474.84-.863 1.2-.48z" fill="#4c5a52"/>
  <path d="m221.09,74.595c-.115.875-1.583,1.302-2.159.96 .25-.743 1.51-1.373 2.16-.96z" fill="#4c5a52"/>
  <path d="m177.41,78.435c.065.995-.315.935 0,1.68-1.396.844-3.11,1.37-4.56,2.16-2.431-1.088-5.144-1.896-7.44-3.12v-2.64c3.95-2.872 8.62-.286 12,1.92zm-10.08-1.44c2.301.533 5.366,3.366 7.44,1.2-2.22-.672-5.29-3.346-7.44-1.2zm-1.44.719c1.097,2.263 4.376,2.344 6.72,3.36-.87-2.351-4.63-3.032-6.72-3.36zm7.92,2.881c1.195-.085 2.153-.407 2.64-1.2-.83-.223-2.29.234-2.64,1.2z"/>
  <path d="m109.01,75.555c-.003,1.517-1.83,1.21-2.88,1.68 .16-1.363 1.64-1.403 2.88-1.68z" fill="#4c5a52"/>
  <path d="m130.85,76.035c2.642.717 5.43,1.29 6.96,3.12-2.19-.237-5.61-1.261-6.96-3.12z" fill="#4c5a52"/>
  <path d="m174.77,78.194c-2.075,2.166-5.139-.667-7.44-1.2 2.15-2.145 5.22.529 7.44,1.2z" fill="#4c5a52"/>
  <path d="m206.69,80.354c-.77,6.452-7.848,2.316-11.04.72 .167-1.208-.407-1.673-.24-2.88 3.61-2.966 8.18.448 11.28,2.16zm-9.84-1.68c2.583.615 4.539,2.873 7.68,2.16-1.7-1.265-5.42-3.79-7.68-2.16zm6,4.08c-1.491-1.708-4.181-2.219-6.48-3.12 .86,2.192 4.49,2.842 6.48,3.12zm1.2,0c.758-.042 1.432-.168 1.44-.96-.81-.004-1.6,0-1.44.96z"/>
  <path d="m202.13 76.754c3.309 1.572 7.229 2.531 10.08 4.56-3.45-1.426-7.44-2.324-10.08-4.56z"/>
  <path d="m172.61,81.075c-2.344-1.016-5.623-1.098-6.72-3.36 2.09.327 5.85,1.008 6.72,3.36z" fill="#4c5a52"/>
  <path d="m292.37,77.714c.737-.367.737,1.567 0,1.2v-1.2z"/>
  <path d="m141.41,77.955c-.231,1.048-1.579.981-2.4,1.44-.43-.861 1.12-1.52 2.4-1.44z" fill="#4c5a52"/>
  <path d="m204.53,80.834c-3.141.712-5.097-1.545-7.68-2.16 2.26-1.63 5.98.895 7.68,2.16z" fill="#4c5a52"/>
  <path d="m128.21,82.274v2.64c-3.757,2.979-8.157-.591-11.52-2.16-.003-1.42.169-1.238.24-2.4 3.77-2.8 8.07.135 11.28,1.92zm-9.6-1.199c2.419.229 5.457,3.559 7.44,1.2-2.26-.764-5.45-3.689-7.44-1.2zm-1.2.719c1.265,2.016 4.127,2.432 6.72,3.12-1.14-1.999-4.64-2.862-6.72-3.12zm7.92,3.121c.923-.197 2.053-.188 2.16-1.2-1.1.025-2.17.068-2.16,1.2z"/>
  <path d="m176.45,79.395c-.486.793-1.445,1.115-2.64,1.2 .35-.966 1.81-1.423 2.64-1.2z" fill="#4c5a52"/>
  <path d="m196.37,79.634c2.3.901 4.989,1.412 6.48,3.12-1.99-.278-5.62-.928-6.48-3.12z" fill="#4c5a52"/>
  <path d="m126.05,82.274c-1.983,2.359-5.021-.97-7.44-1.2 1.99-2.488 5.18.437 7.44,1.2z" fill="#4c5a52"/>
  <path d="m124.13,84.915c-2.592-.688-5.455-1.104-6.72-3.12 2.08.257 5.58,1.12 6.72,3.12z" fill="#4c5a52"/>
  <path d="m208.85,81.555c.565.234 1.522.078 1.439.96-.76-.043-1.43-.169-1.44-.96z"/>
  <path d="m213.41,81.555c1.31.13 2.098.782 3.12,1.2-.5.893-2.7-.438-3.12-1.2z"/>
  <path d="m195.89,85.154c.146.815.338,1.582.72,2.161-1.339.98-3.123,1.517-4.56,2.399-2.865-1.215-5.866-2.295-8.641-3.6 .074-.875-.038-1.562-.24-2.16 1.251-.829 2.802-1.358 4.08-2.16 2.95,1.05 5.45,2.553 8.64,3.36zm-10.56-1.199c2.192,1.161 5.135,3.337 8.16,2.16-2-1.258-5.99-4.076-8.16-2.16zm-1.2,1.199c1.875,1.646 4.599,2.441 7.44,3.121-1.8-1.579-5.08-2.901-7.44-3.121zm8.4,2.881c.9.4 2.611-.196 2.64-1.44-.97.394-2.2.517-2.64,1.44z"/>
  <path d="m205.49,81.794c-.009.792-.683.917-1.44.96-.16-.96.63-.964 1.44-.96z" fill="#4c5a52"/>
  <path d="m193.49,86.115c-3.025,1.177-5.968-1-8.16-2.16 2.17-1.916 6.16.902 8.16,2.16z" fill="#4c5a52"/>
  <path d="m127.49,83.714c-.107,1.013-1.236,1.003-2.16,1.2-.01-1.131 1.06-1.174 2.16-1.2z" fill="#4c5a52"/>
  <path d="m231.17 84.194c1.66 1.061 3.02 2.42 4.08 4.081-1.52-1.206-2.98-2.459-4.08-4.081z"/>
  <path d="m210.77,84.915c.062-.562 1.054-.138 1.2,0-.19.842-.84.277-1.2,0z"/>
  <path d="m233.81 84.674c1.502 1.458 3.218 2.702 4.319 4.561-1.73-1.228-3.36-2.565-4.32-4.561z"/>
  <path d="m253.01,84.674c1.156,1.229-.124,2.868.48,4.561-1.08-.606-.19-3.168-.48-4.561z"/>
  <path d="m191.57,88.275c-2.841-.68-5.565-1.475-7.44-3.121 2.36.22 5.64,1.542 7.44,3.121z" fill="#4c5a52"/>
  <path d="m251.57,85.154c1.111,1.492.137,5.099.24,6.48-1.03-1.801.13-3.806-.24-6.48z"/>
  <path d="m248.45,93.315c1.51-1.98-.758-6.271 1.2-7.681 .456,2.815-.058,4.085 0,7.681-1.362.558-2.403,1.437-4.08,1.68 .172-3.114.116-4.861.24-7.68 .387.067.413-.228.72-.24 .94-.221.174,1.266.72,1.439 .619-.329.054-1.47 0-1.92 .578.099.521-.438 1.2-.24 .18,1.947-.08,4.082 0,6.961zm-1.2.239c.177-1.079.747-4.137-.24-4.8 .16,1.523-.32,3.677.24,4.8z" fill="#4c5a52"/>
  <path d="m195.17,86.594c-.028,1.244-1.739,1.841-2.64,1.44 .44-.922 1.67-1.045 2.64-1.44z" fill="#4c5a52"/>
  <path d="m228.77,86.594c1.023.977 2.255,1.745 2.88,3.12-1.24-.762-2.44-1.565-2.88-3.12z"/>
  <path d="m181.01,92.594c-.633,7.573-11.358-1.206-15.12-1.439v-2.88c4.11-2.735 11.17,2.673 15.12,4.319zm-13.68-4.319c.74.779 2.011,1.456 3.12,1.92 2.731,1.142 5.901,2.629 8.4,2.159-3.84-1.235-7.36-3.953-11.52-4.079zm-.72,2.159c3.361,1.367 7.285,3.426 10.8,3.841-2.905-2.296-7.08-3.32-10.8-4.801v.96zm12,4.32c.849.129 1.236-.203 1.44-.72-.46-.431-1.48-.067-1.44.72z"/>
  <path d="m178.85,92.354c-2.499.47-5.669-1.018-8.4-2.159-1.109-.464-2.38-1.141-3.12-1.92 4.16.126 7.68,2.844 11.52,4.079z" fill="#4c5a52"/>
  <path d="m247.01,88.754c.987.663.417,3.721.24,4.8-.56-1.123-.08-3.277-.24-4.8z"/>
  <path d="m243.41,89.235c1.024.096.229,2.011.48,2.88-.9-.222-.31-1.928-.48-2.88z"/>
  <path d="m166.61,89.474c3.72,1.48 7.895,2.505 10.8,4.801-3.515-.415-7.439-2.474-10.8-3.841v-.96z" fill="#4c5a52"/>
  <path d="m151.49,91.875v1.68c.445.915 1.955.766 2.4,1.681-.449,1.551-2.527,1.472-3.84,2.159-2.888-1.991-7.344-2.416-9.84-4.8 3.56-1.801 7.86-4.264 11.28-.72zm-6-.96c.369,1.037 2.983,1.962 3.84.96-1.38-.423-2.31-1.323-3.84-.96zm-1.44,2.879c1.177.503 2.178,1.183 3.6,1.44 .371-.35.211-1.229.24-1.92-1.083-.598-2.236-1.124-3.6-1.44 .18.905-.29,1.148-.24,1.92zm-1.92-.96c.12.768 1.822,1.033 1.44-.24-.59-.031-1.16-.036-1.44.24zm6.72.241v2.64c.744.024 1.146-.293 1.68-.479-.255-1.06.475-1.855 0-2.4-.76-.119-.85.431-1.68.239zm2.64,2.16c-.013.412.185.615.48.72 .027-.453.793-.167.72-.72-.32-.309-.89-.309-1.2,0z"/>
  <path d="m149.33,91.875c-.857,1.002-3.472.077-3.84-.96 1.53-.363 2.46.537 3.84.96z" fill="#4c5a52"/>
  <path d="m144.29,91.875c1.364.316 2.517.843 3.6,1.44-.029.69.131,1.57-.24,1.92-1.422-.258-2.423-.938-3.6-1.44-.05-.773.42-1.016.24-1.92z" fill="#4c5a52"/>
  <path d="m143.57,92.594c.382,1.273-1.32,1.008-1.44.24 .28-.276.85-.271 1.44-.24z" fill="#4c5a52"/>
  <path d="m150.53,92.834c.475.545-.255,1.341 0,2.4-.533.187-.936.504-1.68.479v-2.64c.83.194.92-.356 1.68-.239z" fill="#4c5a52"/>
  <path d="m180.05,94.035c-.204.517-.591.849-1.44.72-.04-.788.98-1.152 1.44-.72z" fill="#4c5a52"/>
  <path d="m152.69,95.235c.073.553-.693.267-.72.72-.295-.104-.493-.308-.48-.72 .31-.309.88-.309 1.2,0z" fill="#4c5a52"/>
  <path d="m19.489,96.915c1.039.562 2.604.596 3.12,1.68-1.124-.477-2.668-.533-3.12-1.68z"/>
  <path d="m9.649,97.875c-1.096.747-5.487.926-6.24-.24 1.315-.07 4.6-.154 6.24.24z"/>
  <path d="m251.81,97.634c.88.486.329,1.859.239,2.4-.55-.328-.09-1.666-.24-2.396z"/>
  <path d="m13.729 98.115c4.572 2.147 9.762 3.678 13.68 6.479-4.404-2.31-9.793-3.64-13.68-6.475z"/>
  <path d="m16.849,98.354c1.854.069 4.587,1.332 6,2.641-2.046-.84-4.143-1.623-6-2.646z"/>
  <path d="m114.77,98.115c5.706,2.134 10.69,4.989 16.32,7.2-1.166.608-2.416-.657-3.6-1.2-3.748-1.72-8.262-3.504-12-5.28-.53.038-.77-.202-.72-.725z"/>
  <path d="m7.009,98.834c-.306.895-1.629.771-2.64.96 .249-.95 1.465-.934 2.64-.96z"/>
  <path d="m244.13,99.315c1.079.681.19,3.329.48,4.8-1.16-1.1-.03-3.34-.48-4.805z"/>
  <path d="m8.208,99.794c.11.75-.513.768-1.2.72 .22-.42.447-.83 1.2-.716z"/>
  <path d="m1.729,100.28c.557,1.203.083,3.438.24,5.04-.886-1.58-.117-3.09-.24-5.04z"/>
  <path d="m118.37 101.47c4.337 2.062 9.047 3.753 12.96 6.24-4.53-1.87-9.19-3.61-12.96-6.24z"/>
  <path d="m131.33,102.2c.373-.279 2.166.063 2.16.96-.89-.16-1.41-.68-2.16-.96z"/>
  <path d="m237.89,102.43c.779-.841.395,1.511.479,2.16-1.17.12-.01-2.23-.48-2.16z"/>
  <path d="m2.688,102.92c.871.402.429,3.151.48,3.6-.86-.73-.147-2.26-.48-3.6z"/>
  <path d="m99.168,143.96c-1.484.46-1.748.951-3.12.72-.805-.136-1.93-1.133-2.64-1.439-5.794-2.505-11.863-4.875-17.76-7.44-15.333-6.67-30.427-13.819-45.84-20.88-5.749-2.634-11.47-5.052-17.28-7.92-1.724-.852-3.999-1.289-5.04-3.12 .204.044.227-.094.24-.24 .135-.346.375-.585.72-.72 30.038,13.88 60.856,26.98 90.72,41.04z" fill="#6a737b"/>
  <path d="m236.69,102.92c.866.153-.065,1.15.239,2.16-.76-.05-.56-1.78-.24-2.16z"/>
  <path d="m235.01,104.35c.868-.227.335.945.48,1.44-.87.23-.34-.94-.48-1.44z"/>
  <path d="m174.05,105.08c.958-.55 2.515.357 2.88,1.2-1.27-.1-1.88-.85-2.88-1.2z"/>
  <path d="m183.41 106.04c1.441 1.438 3.232 2.527 4.08 4.56-1.51-1.37-3.21-2.56-4.08-4.56z"/>
  <path d="m126.29,107c2.357.842 4.816,1.583 6.48,3.12-2.3-.91-4.73-1.68-6.48-3.12z"/>
  <path d="m141.89,107.47c.715.005 1.462-.022 1.44.721-.73.01-1.58.14-1.44-.72z" fill="#6db33f"/>
  <path d="m183.41 107.96c1.706 1.494 3.473 2.927 4.561 5.04-1.72-1.48-3.48-2.92-4.56-5.04z"/>
  <path d="m6.529,111.32c-1.831-.409-3.288-1.192-4.8-1.921 .975-1.16 4.443.19 4.8,1.92z" fill="#4c5a52"/>
  <path d="m177.89,109.39c1.967.515 3.765,3.274 5.28,5.04-2.15-1.29-3.49-3.39-5.28-5.04z"/>
  <path d="m137.33,111.32c-.745,1.028-2.908,1.281-3.84.239-.7-2.85 4.12-2.36 3.84-.24zm-3.12,0c.664-.216 2.253.492 2.16-.48-.39-.78-2.23-.59-2.16.48z"/>
  <path d="m136.37,110.83c.093.973-1.496.265-2.16.48-.07-1.06 1.77-1.25 2.16-.48z" fill="#6db33f"/>
  <path d="m181.73 110.59c1.368 1.513 3.219 2.541 4.08 4.561-1.63-1.25-3.36-2.4-4.08-4.56z"/>
  <path d="m1.729,110.83c1.107,1.187.069,3.067.48,4.8-1.079-.68-.19-3.33-.48-4.8z"/>
  <path d="m175.25,110.83c.776.185 1.256.664 1.44,1.44-.78-.18-1.26-.66-1.44-1.44z"/>
  <path d="m183.65,110.83c1.73.51 2.243,2.236 3.6,3.12-1.45.17-2.74-1.89-3.6-3.12z"/>
  <path d="m176.93,112.51c.927.193 1.277.963 1.68,1.681-.92-.2-1.48-.76-1.68-1.68z"/>
  <path d="m196.37,112.51c.876,1.239.64,4.343-.24,5.04-.08-2.19.22-3.45.24-5.04z"/>
  <path d="m130.13,114.92c-.679,1.065-3.986,1.111-4.08-.48 .2-1.86 4.37-1.61 4.08.48zm-3.12-.25c.389.36 1.771.36 2.16,0 .13-1.21-2.19-.81-2.16,0z"/>
  <path d="m175.25,113.47c1.259.661 2.219,1.621 2.88,2.88-1.26-.66-2.22-1.62-2.88-2.88z"/>
  <path d="m2.929,113.96c1.024.096.229,2.011.48,2.88-1.025-.1-.229-2.02-.48-2.88z"/>
  <path d="m129.17,114.67c-.389.36-1.771.36-2.16,0-.03-.81 2.29-1.21 2.16,0z" fill="#6db33f"/>
  <path d="m193.49,114.2c.51,1.548.597,5.266-.24,6.96 .14-2.26-.3-5.1.24-6.96z"/>
  <path d="m213.89,114.92c.897-.195.443,1.479.239,1.68-.54-.11-.1-1.19-.24-1.68z"/>
  <path d="m212.45,115.39c.346.055.084.717.48.721-.341.55-.052,2.975-.48,2.64v-3.36z"/>
  <path d="m190.37,115.63c.254,1.696.701,5.659-.24,6.96 .02-1.45-.22-5.14.24-6.96z"/>
  <path d="m122.21,118.04c-.125,1.61-4.034,1.771-3.84-.24 .42-1.66 3.68-1.52 3.84.24zm-3.12,0c.398.401 1.409.19 2.16.239 .19-1.15-1.97-.82-2.16-.24z"/>
  <path d="m121.25,118.27c-.751-.049-1.762.162-2.16-.239 .19-.57 2.35-.9 2.16.24z" fill="#6db33f"/>
  <path d="m187.01,117.79c1.155.623-.006,2.392.479,3.36-1.05-.23-.22-2.34-.48-3.36z"/>
  <path d="m93.168,120.67c.539.422 1.725.195 1.68,1.2-.344-.61-1.644-.27-1.68-1.2z"/>
  <path d="m109.97,122.35c.095-2.636 4-1.991 3.84-.239-.14,1.5-3,1.65-3.84.24zm.96,0c.554.153 1.825.233 2.16-.479-.62-.35-2.28-.97-2.16.48z"/>
  <path d="m113.09,121.88c-.335.713-1.606.633-2.16.479-.12-1.46 1.54-.84 2.16-.48z" fill="#6db33f"/>
  <path d="m57.648,121.88c.467.328.063,1.807-.72,1.68 .063-.74.521-1.08.72-1.68z"/>
  <path d="m59.568,122.12c-.484.556-.191,1.888-1.2,1.92 .37-.68.219-1.87 1.2-1.92z"/>
  <path d="m205.97,122.12c.689.366.459,1.204.239,1.92-.99-.28-.06-1.07-.24-1.92z"/>
  <path d="m104.93,124.04c1.219.62 2.964.716 3.6,1.92-1.28-.57-2.93-.76-3.6-1.92z"/>
  <path d="m110.21 126.43c2.752 1.328 6.125 2.035 8.16 4.08-2.68-1.4-6.08-2.08-8.16-4.08z"/>
  <path d="m106.85,127.39c2.141-.378 4.124,1.475 6,2.16-2.1.34-3.91-1.69-6-2.16z"/>
  <path d="m205.01,127.88c.738-.367.738,1.567 0,1.2v-1.2z"/>
  <path d="m205.01,129.31c.731.02.562,1.569.24,1.921-.54-.17-.1-1.34-.24-1.92z"/>
  <path d="m203.33,129.55c.82.176-.067,1.737.24,2.88-.93-.05-.47-2.42-.24-2.88z"/>
  <path d="m201.65,131.24h.479v1.92h-.479v-1.92z"/>
  <path d="m199.97,132.2c.686.033.438,1.001.479,1.68-.91.19-.31-1.14-.48-1.68z"/>
  <path d="m98.449,132.67c.246-.535 1.606-.189 1.44.48-.307-.33-1.134-.14-1.44-.48z"/>
  <path d="m108.29,135.31c1.626.454 2.997,1.163 4.32,1.921-1.24.11-3.28-1.03-4.32-1.92z"/>
  <path d="m119.81 137c2.632 2.647 5.711 4.849 7.68 8.16-2.75-2.54-5.58-4.98-7.68-8.16z"/>
  <path d="m117.89 137.96c2.746 2.301 6.131 5.219 7.68 7.92-2.84-2.37-5.33-5.08-7.68-7.92z"/>
  <path d="m123.17,138.67c2.188.533 4.221,3.298 5.76,5.28-2.35-1.33-3.68-3.68-5.76-5.28z"/>
  <path d="m115.97 138.67c2.873 2.487 5.827 4.894 7.92 8.16-3.01-2.35-5.48-5.23-7.92-8.16z"/>
  <path d="m129.17,140.12c1.099.501 1.898,1.301 2.4,2.399-.85.13-2.14-1.17-2.4-2.4z"/>
  <path d="m131.81,140.12c.794.246 1.415.664 1.44,1.68-.76-.24-1.84-1.05-1.44-1.68z"/>
  <path d="m134.45,140.12c.646.016 1.154.548.72.96-.63.07-.62-.51-.72-.96z"/>
  <path d="m100.13,140.35c.926-.141.349,1.581-.24,1.44-.175-.73.24-.87.24-1.44z"/>
  <path d="m127.25,140.35c1.019.821 2.26,1.42 2.64,2.881-1.1-.62-2.73-1.85-2.64-2.88z"/>
  <path d="m101.81,141.08c.945-.121.438,1.669-.24,1.439-.03-.6-.04-1.16.24-1.44z"/>
  <path d="m110.93 141.31c2.881 2.319 5.488 4.912 7.68 7.92-2.94-2.26-5.58-4.82-7.68-7.92z"/>
  <path d="m103.25,141.55c1.083-.261.654,2.024-.24,1.92-.05-.77.42-1.01.24-1.92z"/>
  <path d="m104.93,142.04c.943.23.181,1.397 0,1.92-.95-.24-.18-1.4 0-1.92z"/>
  <path d="m106.13,142.51c.658.269.723,1.981.48,2.4-.62-.3-.84-1.86-.48-2.4z"/>
  <path d="m99.409,145.39c-.318,7.891.582,14.547 0,21.601-2.103-.346-1.426-2.95-1.44-4.561-.044-5.061-.003-10.969 0-16.56 .655.175.483-.477.96-.48h.48z" fill="#6a737b"/>
  <path d="m164.45,152.12c.559,1.921.082,4.878.24,7.199-1.16-2.26-.05-5.19-.24-7.2z"/>
  <path d="m113.57,154.51c.832.228.535,2.527.24,3.12-.92-.31.11-1.87-.24-3.12z"/>
  <path d="m112.13,155c.908-.158.45,1.682.24,1.92-.79-.44-.06-.89-.24-1.92z"/>
  <path d="m167.33,155c.58.262.609,1.759-.24,2.16 .05-.76-.16-1.77.24-2.16z"/>
  <path d="m165.89,155.47c.547.333.09,1.671.24,2.4-.92.06-.46-2.06-.24-2.4z"/>
  <path d="m162.77,156.43c.85.531-.061,2.393.24,4.32-1.01-1.01-.19-3.2-.24-4.32z"/>
  <path d="m161.33,158.83c.916-.112.455,1.875.24,2.16-.97-.25.07-1.14-.24-2.16z"/>
  <path d="m159.41,160.27c.738-.367.738,1.567 0,1.2v-1.2z"/>
  <path d="m116.93,163.88c.908.97.505,4.403.24,5.76-.99-1.59-.19-4.56-.24-5.76z"/>
  <path d="m140.45,173.47c-3.063-1.896-3.77-6.15-6.48-8.399 .637,2.179 2.992,4.676 4.08,7.199-1.955-.765-2.134-3.305-3.6-4.56-.521,1.405 1.696,2.14 1.68,3.84-1.55-.37-1.667-2.173-2.88-2.88-.237.957.717.723.48,1.68-2.317-.723-4.117-1.963-6.48-2.64 1.954-1.646 4.731-2.469 6.96-3.84 2.72,2.56 4.19,6.38 6.24,9.6z" fill="#4c5a52"/>
  <path d="m111.17,167.23c.867-.227.335.945.48,1.44-.87.23-.34-.94-.48-1.44z"/>
  <path d="m113.09,167.23c.973-.093.265,1.496.48,2.16-.97.1-.27-1.49-.48-2.16z"/>
  <path d="m349.97,33.794c-.366,3.634.355,8.355-1.2,10.8 .534,1.347.25,5.585 0,6.96-2.467,2.096-5.572,3.307-8.399,4.8-8.221,4.341-17.131,8.631-25.68,13.2-33.697,18.006-68.617,35.268-102.72,53.28-.397,2.705-1.179,4.215-.961,6.96-18.839,12.648-39.78,26.86-59.52,40.32-2.067,1.409-6.372,5.461-8.64,5.52-1.119.029-3.108-1.029-4.56-1.68-4.071-1.825-8.149-4.153-12.24-5.761-3.518.779-5.19,3.646-8.4,4.08-2.43.328-5.998-1.666-8.64-2.88-2.934-1.348-5.579-3.061-8.16-3.84-1.105.016.045,2.285-.96,2.4-8.321-2.796-16.064-6.954-23.76-10.8-22.88-11.435-45.984-22.592-69.36-33.841-.548-.491.069-2.148-.48-2.64-2.064-.896-4.225-1.695-6-2.88-.159-2.721.319-6.079-.24-8.4-.309-1.108.94-.66 1.2-1.199-1.236-1.395-1.636-9.062-.48-11.04 1.438-2.462 11.218-4.828 15.84-6.48 16.326-5.837 32.147-12.3 48.479-18 22.065-7.7 43.559-16.218 64.56-24.24 32.888-12.563 64.58-23.83 96.96-36.24 10.672-4.09 21.402-8.505 32.16-12 1.115-.362 5.902-.183 8.399.24 2.796.473 6.211,2.263 9.36,3.36 21.163,7.373 44.923,15.713 65.52,23.04 2.46,2.503 5.75,4.175 7.92,6.964zm-54.24,27.361c12.647-6.75 26.028-12.672 38.399-19.44 4.16-2.275 8.597-4.244 12.48-6.96-1.376-1.585-3.875-3.323-4.32-5.04 2.007,1.208 3.318,4.342 5.52,4.56-.035-1.699-2.14-2.656-3.359-3.6-1.166-.902-2.787-2.878-4.561-1.44 .091,1.699 2.917,2.661 3.601,4.56-1.917-.963-2.836-2.924-4.561-4.08-.602.519-1.752.488-2.16,1.2 .478,1.047 2.481,1.833 2.16,2.88-1.443-.557-1.524-2.475-3.359-2.64-.728.918 1.628,1.541.96,2.4-1.004-.377-1.284-2.141-2.641-1.44-.791.557 1.2,1.014.24,1.68-.741-.058-.405-1.194-1.44-.96-.657.217.469.884-.479.96-.058-.422-.413-.547-.96-.48-11.165,5.795-22.784,11.136-33.84,17.04 .661,1.182 2.76,2.196 2.64,3.36-1.626-.774-1.759-3.041-4.319-2.88 .466,2.096 3.276,3.121 3.359,4.8-1.673-1.207-2.605-3.155-4.56-4.08 .188,2.309 4.196,4.11 4.56,6.24-1.867-1.893-3.495-4.024-5.76-5.52-18.577,8.624-36.57,17.83-55.2,26.4 .393,1.93 3.073,2.845 3.12,4.32-1.821-.899-2.174-3.266-4.56-3.6-.091,1.876 3.389,3.471 3.6,5.04-1.942-1.098-2.718-3.362-4.8-4.32-2.346,1.254-5.02,2.18-7.2,3.6 1.745,1.777 4.278,4.04 5.28,5.76-2.172-1.588-3.644-3.876-5.76-5.52-17.325,8.275-35.246,15.954-51.6,25.2 .974,1.508 3.421,2.815 3.6,4.319-1.841-1.198-2.778-3.302-4.8-4.319-20.125,10.035-40.623,19.696-60.72,29.76 2.251,3.509 6.113,5.406 8.16,9.12-3.292-2.549-5.635-6.046-8.88-8.641-2.33,1.688-6.517,2.173-9.84.96-.324-.235-.479-.64-.72-.96-27.15-11.396-54.306-24.132-81.12-35.76-3.907-1.694-8.713-2.89-10.08-6.24 32.549-11.698 64.623-24.798 96.96-36.479 30.887-11.158 61.173-24.033 91.92-34.8 20.442-7.159 40.476-15.329 60.479-23.28 1.336-.531 2.765-.565 3.84-1.68-6.752-.552-10.798,2.069-15.6,3.84-15.262,5.627-30.391,11.594-45.36,16.8-.264,1.224 2.185-.264 1.921.96-1.182.819-4.478-.477-5.28.72 .556.547 2.179-.631 2.88.48-.516.445-1.758.162-2.64.24-.085.63-.207,1.204-1.681.96-.942-.544 1.279-.872 0-.96-19.122,5.757-38.04,13.8-57.12,20.4-.312.596.704.996 0,1.2-.891.149-2.47-.39-2.64.48 .495.146 1.667-.387 1.44.48-.997.639-3.736-.385-4.8.72 .832.128 2.276-.356 2.4.48-1.168.597-3.111.138-4.08-.24-26.299,9.522-52.748,19.85-79.2,29.52-15.934,5.825-32.774,11.385-48,17.76-2.142.896-4.772,1.391-6.24,3.359 17.441,8.88 35.893,16.747 54.24,24.721 .069-.731-.038-1.639.72-1.681 .362.919-1.279,1.862-.24,1.92 12.616,6.318 26.055,11.665 39.12,17.521 6.849,3.07 13.741,6.165 20.64,8.64-1.346-1.213-2.08-3.04-3.84-3.84-.1-1.08-1.868-2.849-2.16-2.16 .338,1.233 1.802,2.448 1.44,3.601-1.507-.573-1.382-2.778-2.88-3.36-.18,1.015 1.302,1.982.24,2.4-.642-.959-.958-2.243-1.2-3.601 1.344-.078 1.923.363 2.88-.479 2.297,2.742 4.766,5.313 6.96,8.16 1.791.11 2.736-.624 3.6-1.44-2.734-2.786-5.726-5.314-7.92-8.64 3.111,2.648 5.589,5.931 8.88,8.399 39.976-19.225 78.389-40.011 118.32-59.279-.589-1.572-2.435-1.887-2.881-3.601 1.797.667 2.52,3.929 4.561,2.88-.499-1.998-4.123-4.183-4.8-6 2.18,1.5 3.404,3.955 5.76,5.28 15.333-7.606 31.339-15.371 46.32-23.04 2.152-1.102 4.476-2.129 6.239-3.84-1.654-1.466-3.298-2.942-4.56-4.8 2.16,1.276 3.36,3.509 5.28,5.035zm-151.68-12.96c.326.874 1.399,1 2.16,1.44 16.794-6.571 33.5-13.165 51.36-19.44 15.147-5.323 30.057-11.552 45.12-17.04 2.392-.872 5.121-2.258 6.72-2.16 2.025.124 5.751,2.005 8.4,2.88 18.46,6.099 37.186,13.542 55.199,19.44 1.354.443 3.158.356 4.08,1.68-27.743,14.017-55.886,27.634-84.239,41.04 .326,1.354 2.607.752 2.88,2.16-2.529-1.063-5.026-2-6.96.24 .344.376 1.251.189 1.199.96-3.928-.917-5.927,1.228-9.359,2.88-15.132,7.281-30.981,14.201-44.88,21.6 1.463.617 2.704,1.456 4.56,1.68 .705-1.157-2.803-1.064-2.16-2.16 1.202.479 2.253,1.107 3.6,1.44 16.988-8.932 35.478-16.362 52.319-25.44-.827-.379-2.787-.884-2.64-1.44 1.577.023 2.227.973 3.6,1.2 32.129-15.39 64.268-30.773 95.76-46.8-1.326-.913-3.674-.806-4.56-2.16 1.983.285 4.05,1.672 5.521,1.68 3.003-1.236 6.05-2.43 8.399-4.32-20.714-7.52-42.652-15.583-63.359-22.56-3.1-1.044-6.053-2.526-9.36-2.64 2.3,1.782 7.305,2.134 8.88,3.84-1.764-.238-3.477-.97-5.52-1.68-1.626-.565-3.718-1.916-5.28-1.92-1.549-.004-5.028,1.74-7.44,2.64-37.249,13.898-75.961,28.993-112.32,42.24-.181,1.141 1.604.316 1.2,1.68-1.06-.231-1.55-1.019-2.88-.965zm68.4,31.2c2.575,1.068 5.886,3.563 7.92,1.92-8.878-4.015-19.534-7.627-27.36-11.76 6.373,2.152 14.395,5.914 21.12,8.64 2.323.942 5.688,2.726 7.44,2.64 1.193-.058 2.636-1.347 4.32-2.16 2.28-1.101 4.708-1.523 5.279-2.88 .825.105 1.346-.095 1.92-.24 26.6-13.48 54.428-25.733 80.4-39.84-10.158-3.762-20.914-6.926-30.72-11.04 9.57,3.069 19.816,6.355 28.8,9.6 1.1.397 2.34,1.587 3.6.96-10.416-4.55-21.319-7.633-32.88-11.76-7.847-2.801-16.351-6.03-24.72-8.88-2.757-.938-6.652-2.683-8.641-2.64-1.298.028-3.825,1.188-5.76,1.92-13.343,5.046-26.16,10.297-39.12,14.88 1.624,1.656 4.74,1.82 6.96,2.88 .096-1.135-.076-2.003-.239-2.88 2.311-2.017 5.21-1.058 7.92,0 2.558.999 3.988,1.732 3.12,3.6-2.547,2.74-4.904.801-7.44.24-.546-.121-1.317.303-1.92.24-3.521-.372-6.904-3.436-10.32-3.36 2.319,1.806 5.698,2.315 8.641,3.36 3.06,1.086 6.155,2.068 8.64,3.6-6.201-2.039-12.477-4.003-18.24-6.48-28.168,10.072-55.261,21.219-83.52,31.2 5.067,3.573 12.601,4.679 17.76,8.16-3.132-.847-6.217-2.43-9.6-3.84-2.134-.889-7.599-3.668-9.84-3.6-1.278.039-3.064,1.399-5.04,2.16-25.262,9.73-50.382,18.435-74.88,27.84-1.676.644-3.681,1.14-5.04,2.4 1.516,1.77 3.933,2.45 6,3.359 14.224,6.257 28.958,13.347 42.96,19.2 1.024.429 2.603.472 3.12,1.68-15.129-5.921-31.176-13.792-46.56-20.399-1.841-.791-6.088-2.152-6.24-3.601-.204-1.941 4.004-2.938 5.76-3.6 14.114-5.32 27.476-10.119 41.04-15.12 2.24-.826 4.687-1.611 6.48-3.12-1.185-.123-1.695-.697-2.88-.24-.121.783 1.193.509.48,1.2-.557-.322-1.363-.397-1.92-.72-.325,1.259-1.195.497-1.92.72-5.243,1.613-10.697,3.955-16.08,6-13.352,5.075-27.319,9.978-40.56,15.12-2.591,1.007-5.445,1.909-7.68,3.6 2.893,2.258 6.533,3.327 9.84,4.801 18.579,8.275 37.91,16.809 56.4,25.199 4.07,1.848 8.631,3.838 13.2,5.761 4.469,1.88 8.991,4.764 13.2,5.76 4.586,1.085 8.432-1.999 12.24-3.84 17.79-8.601 35.194-17.108 52.32-25.681 2.911-1.457 6.156-2.397 8.64-4.56-1.582-.338-2.722-1.118-3.84-1.92-19.396,9.963-39.5,19.22-59.04,29.04-10.77-4.324-20.414-9.142-30.479-13.68 10.539,3.46 19.151,8.849 29.76,12.239 .115-.927-2.066-.798-1.44-1.439 1.929,1.13 4.174,1.522 6.24.239 .011-.971-1.637-.282-1.44-1.439 .903.217 1.552.688 2.64.72 10.544-4.976 20.633-10.407 31.44-15.12 .338-.84-1.454-.755-.72-1.199 .993.314 1.756.636 2.88.239-3.284-1.774-6.975-4.36-11.04-4.56 1.677,2.082 5.399,2.121 7.2,4.08-3.335-1.146-7.045-3.051-10.8-4.8-3.739-1.743-7.921-3.148-10.56-5.28 1.72.84 3.917,1.673 6,2.64 1.6.743 4.435,2.891 5.52,1.681-1.632-1.89-5.997-2.322-6.96-4.08 3.342,1.12 5.97,3.471 9.84,3.359 2.565,3.436 7.746,4.254 11.76,6.24 19.274-9.686 38.953-18.967 58.56-28.32-.344-.616-1.645-.276-1.68-1.2 1.832.917 4.406.887 5.28-.96-3.148-1.176-6.56-2.744-9.841-4.08-3.336-1.359-7.027-2.58-9.359-4.32 4.56,1.818 9.25,3.687 13.68,5.525zm0-50.641c1.589,1.244 4.409,2.879 6.72,1.92-1.45-1.369-4.11-2.472-6.72-1.92zm-.72,2.161c2.252.308 3.416,1.703 5.76,1.92-.978-1.903-3.732-2.027-5.76-2.88 .02.654-.4.483 0,.96zm6.96,1.68c.969-.071 1.872-.208 2.16-.96-.37-.279-2.17.063-2.16.96zm130.08,2.639c-1.679,1.201-4.169,1.591-5.52,3.12-.302,1.316.166,2.808-.24,4.32-.84-.76.508-3.708-.72-4.08-1.744.336.207,4.367-1.2,5.04 .009-1.787.354-2.896 0-4.32-.702-.062-.737.543-1.439.48-.242,1.833.49,3.587-.24,4.56-.434-1.036.434-2.678-.24-3.84-2.146-.547-1.021,2.179-1.68,3.12-.543-.772.211-1.591-.24-2.16-1.542.138-2.189,1.171-3.6,1.44 .135.521.572,1.965 0,2.4-.594-.206.07-1.67-.48-1.92-12.002,5.917-23.757,12.083-35.76,18 .375.803.242,2.029-.24,2.64-.216-.665.493-2.253-.479-2.16-1.431.227-.075,2.293-.96,3.36v-2.64c-.807-.007-1.27.33-1.681.72 .399.729.399,3.112 0,3.84-.115-1.245.259-2.979-.239-3.84-.703-.062-.738.542-1.44.48 .494.972.067,2.95 0,3.36-.551-.489-.087-1.993-.24-2.88-14.253,6.707-27.839,14.082-42,20.88v7.68c16.514-7.567 32.173-15.987 48.24-24 .281-1.317-.255-2.379.479-2.88v2.4c16.836-8.205 33.457-16.624 49.92-25.2-.35-2.687 1.22-5.943 0-7.92zm-30.72,24.721c-9.496,4.696-19.083,9.635-28.56,14.4-54.785,27.543-109.87,55.062-164.16,83.52-2.517,1.319-5.896,3.35-7.44,3.359-3.018.021-6.122-2.592-8.88-3.84-3.17-1.435-5.842-2.852-8.64-3.6 2.259,2.094 5.352,2.807 8.64,4.32 2.644,1.217 6.072,4.004 9.12,3.84 1.503-.081 4.836-2.115 7.2-3.36 35.554-18.721 71.973-36.969 107.28-54.72 38.968-19.592 77.38-38.78 114.72-57.84 .269-.346.259-.586-.24-.72-9.41,4.795-19.13,9.735-29.04,14.635zm26.64-11.76c.555,1.07.007,3.61.24,4.32 .941-.019 1.497-.423 2.16-.72 .242-2.299-.286-4.322.96-4.8-1.21-.645-2.33.869-3.36,1.2zm-.96,5.039c1.208-.199.971-4.243.239-4.8-.52,1.162-.11,3.25-.24,4.8zm-200.4-3.119c-.926-.034-1.109-.811-2.16-.72-.041.359.085.886-.24.96-.477-.003-.305-.655-.96-.48-18.006,6.713-35.771,13.669-53.76,20.4-.118.753.827.634.24,1.2-.587-.213-1.041-.56-1.92-.48 .095.865 1.188.732 1.68,1.2 19.679-7.36 38.963-15.117 59.04-22.08-.384-.896-1.515-1.046-2.64-1.2-.18.82.97.304.72,1.2zm99.84,48.96c-.218,1.222.495,3.375-.479,3.84v-3.36c-.958-.237-.723.718-1.681.48-.233,1.365.52,3.719-.479,4.319-.11-1.169.251-2.811-.24-3.6-1.58.02-.103,3.098-.96,3.84-.552-.567-.086-2.154-.24-3.12-32.68,16.453-65.912,33.216-98.16,49.92-4.632,2.399-9.561,4.419-13.68,7.681-.315-.309-.885-.309-1.2,0-.066,1.217.6,1.717-.24,2.159-.743-.058.375-1.975-.72-1.68-.704.336.224,2.304-.48,2.64-.661-.298.304-2.224-.96-1.92-1.063.553.375,2.402-.48,3.36-.758-.442.466-2.866-.96-2.64-.836.684.502,3.542-.72,3.84-.097-1.023.232-2.473-.24-3.12-2.123.037.005,4.325-1.44,5.04-.28-1.24.585-3.626-.48-4.08-1.266,1.175-.019,5.956-.72,7.2-.716-1.857-.274-4.459-.24-6.96-6.793-1.688-11.443-5.517-18-7.44 .087,2.522.004,5.431 0,8.4 4.792,2.007 9.036,4.563 14.16,6.24 .155-1.046-.313-2.714.24-3.36 .898.902-.565,3.589.48,3.84 .768-2.323-.155-5.155.72-6.479 .429,2.574-.069,4.368 0,6.72 3.262-.095 4.767-1.298 7.44-2.641 27.03-13.569 53.172-28.069 79.44-41.52 .588-.319-.433-.725.239-.96 1.675.551 2.937-1.381 4.561-1.68-.019-1.001-.344-3.124.24-3.601 .536.771.131,2.261 0,3.12 .806.007 1.27-.33 1.68-.72-.272-.76-.674-3.708.24-4.08 .275,1.164-.58,3.46.479,3.84 1.313-1.654-.051-4.618.96-5.76v5.04c14.446-6.674 27.805-14.436 41.76-21.6 .154-.967-.312-2.553.24-3.12 .55.41.088,1.832.24,2.64 2.359.439.295-3.545 1.68-4.08 .229,1.051-.591,3.151.721,3.12 1.264-.692-.013-2.437.72-3.6 .549.41.088,1.832.24,2.64 12.405-5.195 24.9-12.378 37.199-18.48 .132-.349-.28-1.241.24-1.2 .289.271.435.685 1.2.48 .151-.808-.31-2.229.24-2.64 .677.283-.269,2.188.72,2.16 .293-.889-.358-3.017.479-3.36 .242.798-.53,2.611.48,2.64 1.557.037.118-2.922.96-3.6 .271.723.198,1.471.24,2.88 14.208-6.832 27.526-14.553 41.76-21.36 .61-1.07-.16-3.52.479-4.56 .479.808-.485,2.981.48,3.84 1.616-.464.481-3.678 1.2-5.04 .233,1.366-.52,3.719.479,4.32 .679-1.274.77-3.878 0-5.04-33.23,16.766-66.07,33.93-99.84,50.155zm104.4-48.241c.798.295.587-1.622.239-1.68-.33.31-.24,1.043-.24,1.68zm-262.32,21.84c-.204-.917-1.354-.886-2.16-1.2-.012,1.132 1.065,1.175 2.16,1.2zm163.2,13.68c-.679-.198-.622.338-1.2.24 .054.45.619,1.591 0,1.92-.546-.174.221-1.661-.72-1.439-.307.013-.333.308-.72.24-.124,2.818-.068,4.565-.24,7.68 1.677-.243 2.718-1.122 4.08-1.68-.058-3.596.456-4.865 0-7.681-1.958,1.41.31,5.7-1.2,7.681-.08-2.879.18-5.014 0-6.961zm-53.04,26.396c-.093,2.392.27,4.799-.479,6-.47-1.206.505-4.039-.24-5.52-1,.12-1.526.713-2.4.96-.032,3.744-.351,5.097 0,7.92 18.188-8.373 35.036-18.085 53.04-26.641-.397-1.909.667-5.899-.479-7.68-16.62,8.189-33.26,16.351-49.44,24.961zm-194.4-6.24c1.809.831 3.315,1.965 5.52,2.4-.403-2.745-.016-4.413.48-6.72-2.034-.846-4.145-1.616-6-2.641-.435,2.121.21,4.011 0,6.961zm7.44-3.59c-.346.135-.585.374-.72.72-.013.146-.036.284-.24.24 1.042,1.831 3.316,2.269 5.04,3.12 5.81,2.868 11.531,5.286 17.28,7.92 15.413,7.061 30.506,14.21 45.84,20.88 5.897,2.565 11.966,4.936 17.76,7.44 .71.307 1.834,1.304 2.64,1.439 1.372.231 1.636-.26 3.12-.72-29.865-14.06-60.683-27.16-90.72-41.04zm-1.44,2.63c.026,6.387-.09,13.114.24,16.8 30.006,14.394 59.478,29.323 89.76,43.44 .186-7.268.119-11.632 0-19.92-30.247-13.03-60.35-27.49-90-40.32zm136.32,2.65c.022-.743-.725-.716-1.44-.721-.14.85.71.72 1.44.72zm-141.6,1.19c1.512.729 2.969,1.512 4.8,1.921-.357-1.72-3.825-3.07-4.8-1.92zm-.72,7.2c1.49,1.15 3.039,2.242 5.28,2.641 .539-1.861.096-4.705.24-6.96-2.079-.642-3.671-1.769-5.76-2.4 .152,2.69.062,3.65.24,6.72zm127.2,30.24c-.042.682 1.57-.29 1.2.72-1.132-.253-1.348.412-1.68.96 .377.023.832-.032.72.48-1.438.081-2.484.555-3.12,1.439-.448-.969.466-1.872-.48-2.16-1.212.469.262,3.623-.96,4.08-.313-.723.088-2.342-.48-3.359-1.206.926.158,3.466-.96,4.08-.531-.749.289-2.849-.72-3.12-.849.99.52,4.199-.72,4.8-.217-1.856.405-3.5-.48-4.32-1.097,1.304.031,4.831-.72,6.48-.877-1.737.615-4.878-.72-5.76-.936,2.075.521,6.3-.96,7.92v-6.96c-6.169-2.312-11.304-5.656-17.76-7.681v7.681c4.905,2.055 9.387,4.532 14.4,6.479 .759-.921-.419-3.778.72-4.32 .826,1.581-.889,4.656.96,5.28 .887-1.854-.618-5.279.72-6.24 .732,2.327-.345,4.355.24,6.48 6.568-1.692 12.155-5.594 18-8.64 17.767-9.259 35.709-17.262 53.04-26.881 .159-2.4-.318-5.438.24-7.439 .646,1.796-.044,5.516.24,6.96 1.046-.233 1.728-.832 2.64-1.2-.154-2.912.563-5.674 0-7.68-21.7,10.06-42.25,21.27-63.36,31.92zm80.88-22.56c-.777,1.063.44,4.12-.72,4.801-.791-1.045.368-2.979-.24-3.84-24.305,12.493-48.503,25.097-72.479,37.92 .584,1.721 1.948,3.317 3.36,5.52 .768,1.196 2.008,4.915 3.6,5.28 2.282.523 6.428-3.471 8.4-4.8 18.557-12.514 38.229-25.795 55.68-37.681 .592-2.497-.573-3.715.72-5.04 .128,1.765-.352,2.666 0,4.08 3.218-.148 2.801-4.645 3.36-6.72h-.48c-.46.11-.6.52-1.2.48zm-110.16,21.12c-.477.004-.305.655-.96.48-.003,5.591-.044,11.499 0,16.56 .014,1.61-.663,4.215 1.44,4.561 .582-7.054-.318-13.71 0-21.601h-.48zm35.281,18.49c-2.229,1.371-5.006,2.193-6.96,3.84 2.363.677 4.163,1.917 6.48,2.64 .237-.957-.717-.723-.48-1.68 1.212.707 1.33,2.51 2.88,2.88 .016-1.7-2.201-2.435-1.68-3.84 1.466,1.255 1.645,3.795 3.6,4.56-1.088-2.523-3.443-5.021-4.08-7.199 2.71,2.249 3.417,6.504 6.48,8.399-2.05-3.23-3.52-7.05-6.24-9.6z"/>
  <path d="m290.45,56.115c1.262,1.857 2.905,3.334 4.56,4.8-1.764,1.71-4.087,2.738-6.239,3.84-14.981,7.669-30.987,15.434-46.32,23.04-2.355-1.325-3.58-3.78-5.76-5.28 .677,1.816 4.301,4.001 4.8,6-2.041,1.049-2.764-2.213-4.561-2.88 .446,1.714 2.292,2.028 2.881,3.601-39.932,19.269-78.344,40.055-118.32,59.279-3.291-2.469-5.769-5.751-8.88-8.399 2.194,3.325 5.186,5.854 7.92,8.64-.863.816-1.809,1.551-3.6,1.44-2.194-2.847-4.663-5.418-6.96-8.16-.957.843-1.537.401-2.88.479 .243,1.357.559,2.642 1.2,3.601 1.062-.418-.42-1.386-.24-2.4 1.499.582 1.373,2.787 2.88,3.36 .361-1.152-1.102-2.367-1.44-3.601 .292-.688 2.06,1.08 2.16,2.16 1.76.8 2.494,2.627 3.84,3.84-6.899-2.475-13.791-5.569-20.64-8.64-13.065-5.855-26.504-11.202-39.12-17.521-1.039-.058.602-1.001.24-1.92-.758.042-.651.949-.72,1.681-18.347-7.974-36.798-15.841-54.24-24.721 1.468-1.969 4.098-2.463 6.24-3.359 15.226-6.375 32.066-11.935 48-17.76 26.452-9.67 52.901-19.998 79.2-29.52 .969.378 2.912.837 4.08.24-.124-.836-1.568-.352-2.4-.48 1.063-1.105 3.803-.081 4.8-.72 .228-.867-.945-.334-1.44-.48 .17-.87 1.75-.331 2.64-.48 .704-.204-.312-.604 0-1.2 19.08-6.6 37.998-14.643 57.12-20.4 1.279.088-.942.416 0,.96 1.474.244 1.596-.33 1.681-.96 .882-.078 2.124.205 2.64-.24-.701-1.111-2.324.067-2.88-.48 .803-1.197 4.099.099 5.28-.72 .264-1.224-2.185.264-1.921-.96 14.97-5.206 30.099-11.173 45.36-16.8 4.802-1.771 8.848-4.392 15.6-3.84-1.075,1.115-2.504,1.149-3.84,1.68-20.004,7.952-40.037,16.122-60.479,23.28-30.747,10.767-61.033,23.642-91.92,34.8-32.337,11.681-64.411,24.781-96.96,36.479 1.367,3.351 6.173,4.546 10.08,6.24 26.814,11.628 53.97,24.363 81.12,35.76 .241.32.396.725.72.96 3.323,1.213 7.51.729 9.84-.96 3.245,2.595 5.588,6.092 8.88,8.641-2.046-3.714-5.909-5.611-8.16-9.12 20.097-10.063 40.595-19.725 60.72-29.76 2.022,1.018 2.959,3.121 4.8,4.319-.179-1.504-2.626-2.812-3.6-4.319 16.354-9.246 34.275-16.925 51.6-25.2 2.116,1.644 3.588,3.932 5.76,5.52-1.002-1.72-3.535-3.983-5.28-5.76 2.181-1.419 4.854-2.345 7.2-3.6 2.082.958 2.857,3.222 4.8,4.32-.211-1.569-3.69-3.164-3.6-5.04 2.386.334 2.738,2.701 4.56,3.6-.047-1.476-2.728-2.39-3.12-4.32 18.63-8.57 36.623-17.776 55.2-26.4 2.265,1.496 3.893,3.627 5.76,5.52-.363-2.13-4.372-3.931-4.56-6.24 1.954.925 2.887,2.873 4.56,4.08-.083-1.68-2.894-2.705-3.359-4.8 2.561-.161 2.693,2.106 4.319,2.88 .12-1.164-1.979-2.178-2.64-3.36 11.056-5.904 22.675-11.245 33.84-17.04 .547-.067.902.058.96.48 .948-.076-.178-.743.479-.96 1.035-.234.699.902 1.44.96 .96-.666-1.031-1.123-.24-1.68 1.356-.701 1.637,1.063 2.641,1.44 .668-.859-1.688-1.481-.96-2.4 1.835.165 1.916,2.083 3.359,2.64 .321-1.047-1.683-1.833-2.16-2.88 .408-.712 1.559-.681 2.16-1.2 1.725,1.156 2.644,3.117 4.561,4.08-.684-1.898-3.51-2.86-3.601-4.56 1.773-1.438 3.395.538 4.561,1.44 1.22.944 3.324,1.9 3.359,3.6-2.201-.218-3.513-3.352-5.52-4.56 .445,1.717 2.944,3.455 4.32,5.04-3.884,2.716-8.32,4.685-12.48,6.96-12.371,6.768-25.752,12.69-38.399,19.44-1.92-1.531-3.12-3.764-5.28-5.045zm-.24,2.4c.95,1.29 1.886,2.594 3.36,3.36-.82-1.419-1.94-2.54-3.36-3.36zm50.64-24.96c-.765-1.155-1.407-2.433-2.88-2.88 .66,1.259 1.62,2.219 2.88,2.88zm-39.84,17.759c-.801-.239-.831-1.249-1.68-1.44-.01.949 1.3,2.38 1.68,1.44zm-2.88,7.201c-1.57-.912-2.753-3.484-4.319-3.6 1.36,1.119 2.57,3.664 4.32,3.6zm-1.44,1.199c-1.262-.582-2.063-2.892-3.36-2.64 1.34.432 2.21,3.585 3.36,2.64zm-6.72.96c.64,2.563 2.17,1.038 0,0zm-54.72,27.601c-1.061-1.66-2.42-3.02-4.08-4.081 1.1,1.622 2.56,2.875 4.08,4.081zm2.88.96c-1.102-1.858-2.817-3.102-4.319-4.561 .96,1.996 2.59,3.333 4.32,4.561zm-6.48.479c-.625-1.375-1.856-2.144-2.88-3.12 .44,1.555 1.64,2.358 2.88,3.12zm-44.16,20.876c-.848-2.032-2.639-3.121-4.08-4.56 .87,2.01 2.57,3.2 4.08,4.56zm.48,2.41c-1.088-2.113-2.854-3.546-4.561-5.04 1.08,2.12 2.84,3.56 4.56,5.04zm-4.8,1.43c-1.515-1.766-3.313-4.525-5.28-5.04 1.79,1.65 3.13,3.75 5.28,5.04zm2.64.73c-.861-2.02-2.712-3.048-4.08-4.561 .72,2.15 2.45,3.3 4.08,4.56zm-9.12-2.88c-.184-.776-.664-1.256-1.44-1.44 .18.77.66,1.25 1.44,1.44zm10.56,1.68c-1.356-.884-1.869-2.61-3.6-3.12 .86,1.22 2.15,3.28 3.6,3.12zm-8.64.24c-.403-.718-.753-1.487-1.68-1.681 .2.91.76,1.47 1.68,1.68zm-.48,2.15c-.661-1.259-1.621-2.219-2.88-2.88 .66,1.26 1.62,2.22 2.88,2.88zm-50.64,28.81c-1.969-3.312-5.048-5.513-7.68-8.16 2.1,3.18 4.93,5.62 7.68,8.16zm-1.92.72c-1.548-2.701-4.934-5.619-7.68-7.92 2.35,2.84 4.84,5.55 7.68,7.92zm3.36-1.92c-1.539-1.982-3.572-4.747-5.76-5.28 2.08,1.59 3.41,3.94 5.76,5.28zm-5.04,2.87c-2.093-3.267-5.047-5.673-7.92-8.16 2.44,2.93 4.91,5.81 7.92,8.16zm7.68-4.32c-.501-1.099-1.301-1.898-2.4-2.399 .26,1.24 1.55,2.54 2.4,2.4zm1.68-.72c-.025-1.016-.646-1.434-1.44-1.68-.4.64.68,1.45 1.44,1.68zm1.92-.71c.434-.412-.074-.944-.72-.96 .1.45.09,1.03.72.96zm-5.28,2.16c-.38-1.461-1.622-2.06-2.64-2.881-.09,1.02 1.54,2.25 2.64,2.88zm68.88-117.84h-3.12c-.06,1.008 3.22,1.178 3.12,0zm-63.84,23.76c.596.035 1.165.044 1.2-.48-.36-.381-1.37-.351-1.2.48zm-1.44.96c.387.316 2.115.518 2.16-.24-.39-.317-2.12-.519-2.16.24zm-4.32.48c.609.279 3.376.663 3.6-.24-.61-.279-3.38-.664-3.6.24zm-1.68,1.199c.201.204 1.876.658 1.68-.24-.18-.47-1.78-.357-1.68.24zm-124.08,45.84c.753,1.166 5.144.987 6.24.24-1.64-.393-4.925-.309-6.24-.24zm.96,2.16c1.011-.189 2.334-.065 2.64-.96-1.175.026-2.391.01-2.64.96zm2.64.716c.687.048 1.31.03 1.2-.72-.754-.11-.981.3-1.2.72zm49.92,23.04c.783.127 1.187-1.352.72-1.68-.2.61-.658.95-.72,1.68zm1.44.49c1.008-.032.716-1.364 1.2-1.92-.982.05-.831,1.24-1.2,1.92zm41.52,17.75c.589.141 1.166-1.581.24-1.44 0,.57-.415.71-.241,1.44zm1.681.72c.678.229 1.186-1.561.24-1.439-.28.29-.27.85-.24,1.44zm17.04,6.72c-2.191-3.008-4.799-5.601-7.68-7.92 2.1,3.1 4.74,5.66 7.68,7.92zm-15.6-5.76c.895.104 1.323-2.181.24-1.92 .18.91-.29,1.15-.24,1.92zm1.92.49c.181-.522.943-1.689 0-1.92-.18.52-.95,1.68 0,1.92zm1.68.96c.243-.419.178-2.132-.48-2.4-.36.53-.14,2.09.48,2.4z" fill="#4c5a52"/>
  <path d="m146.93,49.155c.404-1.364-1.381-.539-1.2-1.68 36.358-13.247 75.07-28.342 112.32-42.24 2.412-.9 5.892-2.645 7.44-2.64 1.562.004 3.654,1.354 5.28,1.92 2.043.71 3.756,1.442 5.52,1.68-1.575-1.707-6.58-2.059-8.88-3.84 3.308.114 6.261,1.596 9.36,2.64 20.707,6.977 42.646,15.04 63.359,22.56-2.35,1.89-5.396,3.083-8.399,4.32-1.471-.007-3.537-1.395-5.521-1.68 .886,1.354 3.233,1.247 4.56,2.16-31.492,16.027-63.631,31.41-95.76,46.8-1.373-.227-2.022-1.177-3.6-1.2-.147.556 1.812,1.061 2.64,1.44-16.842,9.078-35.331,16.508-52.319,25.44-1.347-.333-2.398-.962-3.6-1.44-.644,1.096 2.865,1.003 2.16,2.16-1.855-.224-3.097-1.062-4.56-1.68 13.898-7.399 29.748-14.319 44.88-21.6 3.433-1.652 5.432-3.797 9.359-2.88 .052-.771-.855-.584-1.199-.96 1.934-2.241 4.431-1.303 6.96-.24-.272-1.408-2.554-.806-2.88-2.16 28.354-13.406 56.496-27.023 84.239-41.04-.922-1.324-2.727-1.237-4.08-1.68-18.014-5.898-36.739-13.341-55.199-19.44-2.649-.875-6.375-2.756-8.4-2.88-1.599-.098-4.328,1.289-6.72,2.16-15.063,5.488-29.973,11.717-45.12,17.04-17.859,6.275-34.566,12.869-51.36,19.44-.761-.439-1.834-.566-2.16-1.44 1.33-.059 1.82.729 2.88.955zm118.08-45.361c1.326.515 2.738.942 4.08,1.44-.53-1.088-3.4-2.061-4.08-1.44zm73.68,24.48c-3.615-1.938-7.699-2.865-11.52-4.32-11.69-4.451-23.669-8.278-35.52-12.48-.187.054-.474.007-.48.24 15.86,5.341 31.83,11.843 47.52,16.56zm-16.56-4.319c-4.828-1.786-9.727-3.725-14.64-5.28-.058-.369-.396-.036-.48.24 9.693,3.428 19.959,7.561 29.521,10.32-4.5-2.32-9.53-3.48-14.4-5.28zm-1.44.96c-.014-.252-.308-.189-.24.24 4.401,1.518 8.462,3.377 13.2,4.56-3.79-2.134-8.52-3.326-12.96-4.8zm11.76,6c-2.138-1.623-5.245-2.275-8.16-3.12 2.22,1.535 5.35,2.169 8.16,3.12zm-4.56,1.919c-.059-.981-1.249-.83-1.92-1.2 .05.983 1,1.079 1.92,1.2z" fill="#e7e7e8"/>
  <path d="m236.69,29.955c.099.781 1.141.619 1.68.96-1.641.624-3.806-1.711-5.28,0-3.221-1.419-6.43-2.85-10.08-3.84-.287-.673-.264-1.656-.239-2.64 4.244-2.24 8.164,1.993 12.479,2.64 .077.563.379.901.24,1.68 .906,1.014 3.25.59 3.84,1.92-1.01-.116-1.78-.462-2.64-.72zm-3.36-1.92c-2.585-1.575-5.349-2.971-9.12-3.36 2.54,1.615 5.52,2.796 9.12,3.36zm-1.2,1.44c-2.159-1.841-5.355-2.644-8.399-3.6 2.2,1.8 5.55,2.445 8.4,3.6zm1.2-.48v.48c.97.969 1.31-1.386 0-.48z"/>
  <path d="m343.01,48.915c.77,1.162.679,3.766 0,5.04-.999-.601-.246-2.954-.479-4.32-.719,1.361.416,4.576-1.2,5.04-.966-.858-.001-3.032-.48-3.84-.64,1.04.131,3.49-.479,4.56-14.233,6.807-27.552,14.528-41.76,21.36-.042-1.409.031-2.157-.24-2.88-.842.678.597,3.637-.96,3.6-1.011-.029-.238-1.842-.48-2.64-.838.343-.187,2.471-.479,3.36-.988.029-.043-1.877-.72-2.16-.55.411-.089,1.832-.24,2.64-.766.205-.911-.209-1.2-.48-.521-.041-.108.852-.24,1.2-12.299,6.102-24.794,13.285-37.199,18.48-.152-.808.309-2.229-.24-2.64-.732,1.163.544,2.907-.72,3.6-1.312.031-.491-2.069-.721-3.12-1.385.535.68,4.52-1.68,4.08-.152-.808.31-2.229-.24-2.64-.552.567-.086,2.153-.24,3.12-13.955,7.164-27.313,14.926-41.76,21.6v-5.04c-1.011,1.142.354,4.105-.96,5.76-1.06-.38-.204-2.676-.479-3.84-.914.372-.513,3.32-.24,4.08-.41.39-.874.727-1.68.72 .131-.859.536-2.349 0-3.12-.584.477-.259,2.6-.24,3.601-1.624.299-2.886,2.23-4.561,1.68-.672.235.349.641-.239.96-26.268,13.45-52.41,27.95-79.44,41.52-2.673,1.343-4.178,2.546-7.44,2.641-.069-2.352.429-4.146 0-6.72-.875,1.324.048,4.156-.72,6.479-1.045-.251.418-2.938-.48-3.84-.553.646-.085,2.314-.24,3.36-5.124-1.677-9.367-4.233-14.16-6.24 .004-2.97.087-5.878 0-8.4 6.557,1.924 11.207,5.753 18,7.44-.034,2.501-.476,5.103.24,6.96 .702-1.244-.545-6.025.72-7.2 1.065.454.2,2.84.48,4.08 1.445-.715-.683-5.003 1.44-5.04 .472.647.143,2.097.24,3.12 1.223-.298-.116-3.156.72-3.84 1.426-.227.202,2.197.96,2.64 .855-.958-.583-2.808.48-3.36 1.264-.304.299,1.622.96,1.92 .704-.336-.224-2.304.48-2.64 1.095-.295-.022,1.622.72,1.68 .84-.442.174-.942.24-2.159 .315-.309.885-.309 1.2,0 4.119-3.262 9.048-5.281 13.68-7.681 32.248-16.704 65.48-33.467 98.16-49.92 .154.966-.312,2.553.24,3.12 .857-.742-.62-3.82.96-3.84 .491.789.13,2.431.24,3.6 .999-.601.246-2.954.479-4.319 .958.237.723-.718 1.681-.48v3.36c.975-.465.262-2.618.479-3.84 33.77-16.23 66.61-33.394 99.84-50.165zm-3.84,5.279c.87.059.541-2.323.24-2.64-.2,1.202-.07,1.326-.24,2.64zm-1.2-.239c-.064-.715.672-1.461-.239-1.68 .14.497-.3,1.576.24,1.68zm-37.92,21.839c.007-1.056.392-2.794-.24-3.12 .35,1.244-.68,2.805.24,3.12zm-7.68,3.121c.737.367.737-1.567 0-1.2v1.2zm-40.32,21.125c.09-.541.641-1.914-.239-2.4 .15.724-.31,2.062.24,2.4zm-7.44,4.08c-.29-1.471.599-4.119-.48-4.8 .45,1.46-.68,3.7.48,4.8zm-6.24.47c-.085-.649.3-3.001-.479-2.16 .47-.07-.69,2.28.48,2.16zm-1.44.49c-.305-1.01.627-2.007-.239-2.16-.32.38-.52,2.11.24,2.16zm-1.44.71c-.146-.495.388-1.667-.48-1.44 .14.5-.39,1.67.48,1.44zm-21.36,10.8c.204-.2.658-1.875-.239-1.68 .14.5-.3,1.58.24,1.68zm-1.68,2.16c.429.335.14-2.09.48-2.64-.396-.004-.135-.666-.48-.721v3.36zm-6.24,5.29c.22-.716.45-1.554-.239-1.92 .18.85-.75,1.64.24,1.92zm-89.04,45.59c.265-1.356.668-4.79-.24-5.76 .05,1.21-.75,4.18.24,5.76zm-5.52-.96c-.145-.495.387-1.667-.48-1.44 .14.5-.39,1.67.48,1.44zm1.92.72c-.215-.664.493-2.253-.48-2.16 .21.67-.49,2.26.48,2.16z" fill="#4c5a52"/>
  <path d="m100.61 120.67c4.59 2.13 9.767 3.674 13.68 6.48-4.5-2.21-9.57-3.87-13.68-6.48z"/>
  <path d="m96.769,122.59c3.276.405 6.639,2.801 9.84,4.08-.271,1.086-.886-.119-1.2-.24-2.53-.97-6.061-2.5-8.641-3.84z"/>
  <path d="m198.77,73.875c2.332,1.74 6.023,2.961 9.359,4.32 3.281,1.336 6.692,2.904 9.841,4.08-.874,1.847-3.448,1.877-5.28.96 .035.924 1.336.584 1.68,1.2-19.606,9.353-39.285,18.634-58.56,28.32-4.014-1.986-9.195-2.805-11.76-6.24-3.87.111-6.498-2.239-9.84-3.359 .963,1.758 5.328,2.19 6.96,4.08-1.085,1.21-3.92-.938-5.52-1.681-2.083-.967-4.28-1.8-6-2.64 2.639,2.132 6.821,3.537 10.56,5.28 3.755,1.749 7.464,3.653 10.8,4.8-1.801-1.959-5.522-1.998-7.2-4.08 4.065.199 7.756,2.785 11.04,4.56-1.124.396-1.887.075-2.88-.239-.734.444 1.058.359.72,1.199-10.807,4.713-20.896,10.145-31.44,15.12-1.088-.032-1.737-.503-2.64-.72-.197,1.157 1.451.469 1.44,1.439-2.065,1.283-4.311.891-6.24-.239-.626.642 1.555.513 1.44,1.439-10.609-3.391-19.221-8.779-29.76-12.239 10.066,4.538 19.71,9.355 30.479,13.68 19.54-9.82 39.644-19.077 59.04-29.04 1.118.802 2.258,1.582 3.84,1.92-2.484,2.162-5.729,3.103-8.64,4.56-17.126,8.572-34.53,17.08-52.32,25.681-3.809,1.841-7.654,4.925-12.24,3.84-4.208-.996-8.73-3.88-13.2-5.76-4.569-1.923-9.13-3.913-13.2-5.761-18.49-8.391-37.821-16.924-56.4-25.199-3.307-1.474-6.947-2.543-9.84-4.801 2.234-1.69 5.089-2.593 7.68-3.6 13.241-5.143 27.208-10.045 40.56-15.12 5.383-2.045 10.837-4.387 16.08-6 .725-.223 1.595.54 1.92-.72 .557.323 1.363.397 1.92.72 .713-.691-.601-.417-.48-1.2 1.185-.457 1.695.117 2.88.24-1.793,1.509-4.24,2.294-6.48,3.12-13.564,5.001-26.926,9.8-41.04,15.12-1.756.662-5.964,1.658-5.76,3.6 .152,1.448 4.399,2.81 6.24,3.601 15.384,6.607 31.43,14.479 46.56,20.399-.517-1.208-2.095-1.251-3.12-1.68-14.002-5.854-28.736-12.943-42.96-19.2-2.067-.909-4.484-1.59-6-3.359 1.359-1.261 3.364-1.757 5.04-2.4 24.498-9.405 49.618-18.109 74.88-27.84 1.976-.761 3.762-2.121 5.04-2.16 2.242-.068 7.707,2.711 9.84,3.6 3.383,1.41 6.467,2.993 9.6,3.84-5.159-3.481-12.693-4.587-17.76-8.16 28.259-9.981 55.352-21.128 83.52-31.2 5.764,2.477 12.039,4.441 18.24,6.48-2.484-1.532-5.58-2.514-8.64-3.6-2.942-1.044-6.321-1.554-8.641-3.36 3.416-.076 6.8,2.988 10.32,3.36 .603.063 1.374-.36 1.92-.24 2.536.561 4.894,2.5 7.44-.24 .868-1.868-.562-2.602-3.12-3.6-2.71-1.058-5.609-2.017-7.92,0 .163.877.335,1.746.239,2.88-2.22-1.06-5.336-1.224-6.96-2.88 12.96-4.583 25.777-9.834 39.12-14.88 1.935-.731 4.462-1.892 5.76-1.92 1.988-.042 5.884,1.702 8.641,2.64 8.369,2.85 16.873,6.079 24.72,8.88 11.561,4.126 22.464,7.209 32.88,11.76-1.26.627-2.5-.562-3.6-.96-8.983-3.245-19.229-6.53-28.8-9.6 9.806,4.113 20.562,7.278 30.72,11.04-25.973,14.107-53.801,26.36-80.4,39.84-.574.145-1.095.345-1.92.24-.571,1.357-2.999,1.779-5.279,2.88-1.685.813-3.127,2.102-4.32,2.16-1.752.085-5.117-1.698-7.44-2.64-6.726-2.726-14.747-6.488-21.12-8.64 7.826,4.132 18.482,7.745 27.36,11.76-2.034,1.643-5.345-.852-7.92-1.92-4.43-1.844-9.12-3.713-13.68-5.526zm40.56-43.2c-.59-1.331-2.934-.907-3.84-1.92 .139-.779-.163-1.116-.24-1.68-4.315-.647-8.235-4.88-12.479-2.64-.024.984-.048,1.967.239,2.64 3.65.99 6.859,2.421 10.08,3.84 1.475-1.711 3.64.624 5.28,0-.539-.341-1.581-.179-1.68-.96 .86.258 1.63.604 2.64.72zm9.12-17.52c3.44.96 7.127,2.952 10.56,3.12-3.39-.872-7.48-3.529-10.56-3.12zm4.08,2.639c-1.51-1.132-4.311-2.247-6.24-2.16 1.93.869 3.95,1.65 6.24,2.16zm-5.28-.96c-.838-.202-1.277-.802-2.399-.72 .2.693 1.82,1.203 2.4.72zm31.2,8.641c-2.006-1.516-5.529-2.789-8.16-2.88 2.77.911 5.31,2.052 8.16,2.88zm4.08,1.2c-.671-.774-2.685-1.469-3.601-1.2 .91.692 2.15,1.046 3.6,1.2zm6.48,3.599c-.058-.368-.395-.035-.479.24 7.405,2.595 14.583,5.417 22.319,7.68-6.66-3.261-14.62-5.217-21.84-7.92zm-50.16,4.08c.034-.994-1.19-.729-1.921-.96 .02.94 1.3.621 1.92.96zm-32.4,2.4c-3.165-1.786-7.267-.289-10.08.96 .679,1.608 3.645,1.868 5.521,2.64 1.59.655 2.78,1.322 4.56.24 .422-.378.314-1.286.72-1.68 1.94.46 3.409,1.392 5.521,1.68-1.64-1.782-6.04-1.329-6.24-3.84zm20.88.96c.105.825-.095,1.345-.24,1.92 3.232,1.976 7.266,3.571 10.561.72-.75-4.223-7.4-5.243-10.32-2.64zm74.16-.96c2.744.696 4.96,1.92 7.68,2.64-1.69-1.466-5.71-3.039-7.68-2.64zm-76.08,5.281c-4.091-2.309-9.317-3.483-13.92-5.28 3.83,2.572 9.22,3.58 13.92,5.28zm-7.92-1.681c-3.044-1.196-6.159-2.321-9.36-3.36 2.39,1.687 6.39,3.044 9.36,3.36zm37.44-1.439c.188,1.068-.319,1.44-.239,2.4 3.721,1.054 7.37,4.034 11.04,1.2-.119-.842-.358-1.562-.24-2.64-3.75-1.089-7.18-3.919-10.56-.96zm52.56,1.2c-1.478-.443-2.643-1.198-4.32-1.44 .89.868 2.93,1.861 4.32,1.44zm-122.88.96c.075,1.045.277,1.963.479,2.88 3.554,1.311 7.677,4.055 10.801.72 .49-4.634-8.65-6.119-11.28-3.6zm120.24-.241c-.605-.435-1.257-.823-2.399-.72 .2.693 1.82,1.203 2.4.72zm-90.24,2.161c.153,1.161-.317,1.697 0,2.4 3.329,1.736 7.129,3.289 10.32.48v-1.92c-2.83-1.712-7.18-3.427-10.32-.96zm39.36,1.92c-3.284-1.488-6.62-3.586-10.079-1.2-.288.673-.265,1.656-.24,2.64 3.432,1.284 6.945,4.258 10.56,1.44 .03-1.453.3-1.846-.24-2.88zm17.28.48c-.206,1.211-.064,1.342 0,2.64 3.476,1.128 7.353,4.175 10.561.96v-2.16c-2.95-1.776-7.23-3.977-10.56-1.44zm-93.6,6.959c1.792.002 3.937-1.532 3.6-3.36-.237-1.285-1.721-1.489-3.36-2.16-2.997-1.227-5.349-2.355-7.92,0 .315.725.165,1.916.48,2.64 2.03.135 4.9,2.878 7.2,2.88zm24.96-4.319c-.196.764-.153,1.767-.48,2.4 3.147,1.76 7.265,3.697 10.561.96-.095-.866-.311-1.609-.48-2.4-2.52-1.702-6.75-3.463-9.6-.96zm29.28,1.44c.275.992.275,1.889 0,2.88 2.531.749 4.399,2.16 7.199,2.64 .98-.94 2.406-1.434 3.84-1.92-.062-1.102-.255-1.16 0-2.16-3.67-1.191-7.61-4.68-11.04-1.44zm28.08,3.6c2.015,1.346 4.916,1.804 6.96,3.12 1.163-.677 2.555-1.125 3.601-1.92v-2.64c-3.33-1.363-10.16-5.142-10.56,1.44zm-103.68-.96v2.64c3.695,1.49 7.562,4.018 11.52,1.44v-2.64c-3.64-1.675-7.71-4.379-11.52-1.44zm31.68,1.679c.287.673.264,1.656.239,2.64 3.494,1.17 6.444,3.663 9.84,1.2 .232-.944.066-1.767 0-2.64-2.93-1.65-6.85-3.673-10.08-1.2zm39.36.96c-2.729-1.065-5.581-1.86-7.68,0 .159.881.255,1.825.479,2.64 2.271,1.009 4.576,1.984 6.96,2.88 .932-.908 2.442-1.238 3.601-1.92 .46-2.662-1.34-2.811-3.36-3.6zm20.88,1.44c.218.941.293,1.497-.24,2.16 2.302,1.299 5.059,2.142 7.681,3.12 1.279-.561 2.318-1.361 3.84-1.68-.067-.812-.382-1.378-.24-2.4-3.5-1.521-7.74-4.664-11.04-1.2zm-99.12,2.16c-3.187-1.379-5.978-2.202-8.64-.24-.093,1.323.26,1.666 0,2.64 3.731,1.29 7.896,4.375 11.52,1.2 .7-2.027-1.19-2.869-2.88-3.6zm36.24,2.4c-.433-.888-4.808-3.095-6.72-3.12-1.768-.023-3.155,1.555-4.32,1.44 .118.841.357,1.562.24,2.64 3.795,1.255 7.444,3.887 11.04.96-.3-.506.06-1.3-.24-1.92zm28.8-.239c-2.918-1.119-5.853-1.872-7.92.24 .312,1.175.056,1.593.24,2.64 3.911,1.333 7.532,3.838 11.04.72 .43-2.542-1.41-2.852-3.36-3.6zm22.56.96v2.4c3.463,1.425 7.374,4.149 11.04,1.44-.074-.874.038-1.562.239-2.16-3.44-1.857-7.53-4.606-11.28-1.68zm-109.44,1.44c-.148.892-.572,1.508-.72,2.4 3.795,1.714 8.613,4.907 12.72,1.68-.304-.817-.543-1.697-.72-2.64-3.44-1.659-7.41-4.032-11.28-1.44zm30.96,2.64v2.16c3.393,1.432 7.349,4.428 11.28,1.92 .222-1.086.209-1.604 0-2.88-3.45-1.501-7.54-3.859-11.28-1.2zm46.32,2.88c-.355-1.116-5.685-3.708-7.92-3.6-1.601.078-2.813,1.783-3.84,1.68v2.4c2.365.112 5.512,3.118 7.439,3.12 1.574.001 2.584-1.525 4.32-1.92-.16-.462.2-1.046 0-1.68zm18.72-.96c.236.959.236,1.44 0,2.4 3.54,1.217 7.735,4.708 11.04,1.44 .188-1.068-.319-1.44-.24-2.4-3.28-1.759-7.39-4.314-10.8-1.44zm-101.52-.241c5.445,1.995 10.909,5.25 16.56,6.24-5.727-2.193-11.068-4.772-17.04-6.72 .03.293.07.569.48.48zm-9.6,1.681c-.542,1.003.044,1.932 0,3.12 3.734,1.185 7.702,4.036 11.52,1.2 .287-.673.264-1.656.24-2.64-3.38-1.932-7.93-4.741-11.76-1.68zm33.12,1.919c.118.842.358,1.562.24,2.64 3.893,1.555 8.256,4.266 12,.96-.392-.983.086-1.352-.24-2.4-3.6-1.844-8.09-4.076-12-1.2zm.24,7.44c-4.633-2.807-10.272-4.607-15.6-6.72 4.57,2.867 10.35,4.53 15.6,6.72zm32.16-5.04c-.186,1.146.375,1.545.24,2.64 3.198,1.174 7.615,4.572 10.56,1.2 .595-.611-.23-1.838-.24-2.64-3.19-1.378-7.23-3.919-10.56-1.2zm32.88,0c-.319.721-.244,1.836-.24,2.88 2.915.845 5.352,2.168 8.16,3.12 1.325-.754 2.708-1.452 4.08-2.16-.264-.697-.217-1.704-.48-2.4-4.13-.85-7.63-4.323-11.52-1.44zm-76.8,2.161c-.93.83-2.608.912-3.6,1.68v2.4c4.094,1.107 8.377,4.8 12.24,1.44v-2.4c-4.802-2.238-9.423-4.656-14.64-6.48 1.29,1.833 4.65,1.59 6,3.36zm-8.4-2.4c2.149.732 4.51,2.527 6.72,2.4-2.333-1.106-4.833-2.046-7.2-3.12 .02.377-.03.831.48.72zm-27.601,1.679v2.64c4.041,1.414 8.373,4.66 12.48,1.44-.159-.881-.255-1.824-.48-2.64-3.58-1.642-8.19-4.648-12.001-1.44zm30.001.48c-.954-.246-1.441-.958-2.64-.96 .23.814 2.02,1.327 2.64.96zm37.68,3.361v2.64c2.296,1.224 5.009,2.032 7.44,3.12 1.45-.79 3.164-1.316 4.56-2.16-.315-.745.065-.685 0-1.68-3.38-2.206-8.05-4.792-12-1.92zm30,1.679c-.167,1.208.407,1.673.24,2.88 3.192,1.596 10.271,5.732 11.04-.72-3.1-1.712-7.67-5.126-11.28-2.16zm16.8,3.12c-2.851-2.029-6.771-2.988-10.08-4.56 2.64,2.236 6.63,3.134 10.08,4.56zm-95.28-.96c-.071,1.162-.243.98-.24,2.4 3.363,1.569 7.763,5.14 11.52,2.16v-2.64c-3.21-1.785-7.51-4.72-11.28-1.92zm93.36,2.161c.083-.882-.874-.726-1.439-.96 .01.791.68.917 1.44.96zm6.24.239c-1.022-.417-1.811-1.069-3.12-1.2 .42.763 2.62,2.094 3.12,1.2zm-29.28-.96c-1.277.802-2.828,1.332-4.08,2.16 .202.598.314,1.286.24,2.16 2.774,1.305 5.775,2.385 8.641,3.6 1.437-.883 3.221-1.419 4.56-2.399-.382-.579-.574-1.346-.72-2.161-3.19-.807-5.69-2.31-8.64-3.36zm24.72,3.121c-.146-.138-1.139-.562-1.2,0 .36.277 1.01.842 1.2,0zm-46.08,3.36v2.88c3.762.233 14.487,9.013 15.12,1.439-3.95-1.646-11.01-7.054-15.12-4.319zm-25.68,4.319c2.496,2.384 6.952,2.809 9.84,4.8 1.312-.688 3.391-.608 3.84-2.159-.445-.915-1.955-.766-2.4-1.681v-1.68c-3.42-3.543-7.72-1.08-11.28.72zm-117.6,6c-.516-1.084-2.082-1.118-3.12-1.68 .452,1.148 1.996,1.204 3.12,1.68zm4.8,5.996c-3.918-2.802-9.108-4.332-13.68-6.479 3.887,2.839 9.276,4.169 13.68,6.479zm-4.56-3.59c-1.413-1.309-4.146-2.571-6-2.641 1.857,1.018 3.954,1.801 6,2.641zm92.641-2.166c3.738,1.776 8.252,3.561 12,5.28 1.185.543 2.435,1.809 3.6,1.2-5.629-2.211-10.614-5.066-16.32-7.2-.05.528.19.768.72.724zm15.84,8.876c-3.913-2.487-8.623-4.178-12.96-6.24 3.77,2.63 8.43,4.37 12.96,6.24zm2.16-4.55c.006-.896-1.787-1.239-2.16-.96 .75.28 1.27.8 2.16.96zm43.44,3.12c-.365-.843-1.922-1.75-2.88-1.2 1,.35 1.61,1.1 2.88,1.2zm-44.16,3.84c-1.664-1.537-4.123-2.278-6.48-3.12 1.75,1.44 4.18,2.21 6.48,3.12zm.72,1.43c.933,1.042 3.096.789 3.84-.239 .28-2.11-4.54-2.6-3.84.24zm-7.44,2.88c.094,1.592 3.401,1.546 4.08.48 .29-2.08-3.88-2.33-4.08-.48zm-7.68,3.36c-.194,2.011 3.714,1.851 3.84.24-.16-1.75-3.42-1.89-3.84-.24zm-23.521,4.09c.045-1.005-1.142-.778-1.68-1.2 .035.92 1.335.58 1.68,1.2zm19.441,5.28c-3.914-2.807-9.09-4.351-13.68-6.48 4.11,2.6 9.18,4.26 13.68,6.48zm-.48-5.04c.16-1.752-3.745-2.396-3.84.239 .84,1.4 3.7,1.25 3.84-.24zm-8.4,4.31c.313.121.928,1.326 1.2.24-3.201-1.279-6.564-3.675-9.84-4.08 2.579,1.34 6.11,2.87 8.64,3.84zm3.12-.47c-.636-1.204-2.38-1.3-3.6-1.92 .67,1.16 2.32,1.35 3.6,1.92zm-23.281,4.08c7.168,3.381 14.879,6.594 22.08,9.12-10.26-4.899-21.085-9.188-31.2-14.16 2.633,2.12 5.91,3.52 9.119,5.04zm33.121.47c-2.035-2.045-5.408-2.752-8.16-4.08 2.08,2 5.48,2.68 8.16,4.08zm-5.52-.96c-1.876-.686-3.859-2.538-6-2.16 2.09.47 3.9,2.5 6,2.16zm-15.601,3.61c-.645-.09-1.668-1.033-2.16-.48 .738-.01 1.408,1.29 2.16.48zm2.64,0c.167-.67-1.194-1.016-1.44-.48 .306.33 1.133.14 1.44.48zm1.921.47c-.578.075-1.162-1.047-1.68-.24 .41.09 1.48.73 1.68.24zm7.2,4.8c-1.708-.532-2.854-1.626-4.8-1.92-1.51-.867-4.331-2.79-5.76-2.16 3.93.79 6.83,3.89 10.56,4.08zm2.16-.23c-2.461-2.02-6.078-2.882-9.12-4.32 2.7,1.78 5.9,3.06 9.12,4.32zm1.44-.96c-1.323-.758-2.693-1.467-4.32-1.921 1.04.88 3.08,2.02 4.32,1.92z" fill="#e7e7e8"/>
  <path d="m76.128 125c10.115 4.972 20.94 9.261 31.2 14.16-7.201-2.526-14.912-5.739-22.08-9.12-3.21-1.52-6.487-2.92-9.122-5.04z"/>
  <path d="m95.088,132.67c.492-.553 1.516.391 2.16.48-.751.82-1.421-.48-2.16-.48z"/>
  <path d="m100.13,133.39c.518-.807 1.102.315 1.68.24-.2.49-1.27-.15-1.68-.24z"/>
  <path d="m98.449,134.35c1.429-.63 4.25,1.293 5.76,2.16 1.946.294 3.092,1.388 4.8,1.92-3.73-.19-6.63-3.29-10.561-4.08z"/>
  <path d="m102.05 133.88c3.042 1.438 6.659 2.301 9.12 4.32-3.22-1.26-6.42-2.54-9.12-4.32z"/>
  <path d="m348.77,43.155c-16.463,8.576-33.084,16.995-49.92,25.2v-2.4c-.734.501-.198,1.562-.479,2.88-16.067,8.013-31.727,16.433-48.24,24v-7.68c14.161-6.798 27.747-14.173 42-20.88 .153.887-.311,2.391.24,2.88 .067-.411.494-2.388 0-3.36 .702.062.737-.542 1.44-.48 .498.862.124,2.596.239,3.84 .399-.729.399-3.112 0-3.84 .411-.39.874-.727 1.681-.72v2.64c.885-1.066-.471-3.133.96-3.36 .973-.093.264,1.496.479,2.16 .482-.611.615-1.837.24-2.64 12.003-5.917 23.758-12.083 35.76-18 .551.25-.113,1.714.48,1.92 .572-.435.135-1.879 0-2.4 1.41-.269 2.058-1.302 3.6-1.44 .451.569-.303,1.388.24,2.16 .658-.941-.467-3.667 1.68-3.12 .674,1.162-.193,2.804.24,3.84 .73-.973-.002-2.728.24-4.56 .702.063.737-.542 1.439-.48 .354,1.424.009,2.534 0,4.32 1.407-.673-.544-4.704 1.2-5.04 1.228.373-.12,3.32.72,4.08 .406-1.513-.062-3.004.24-4.32 1.351-1.529 3.841-1.919 5.52-3.12 1.22,1.976-.35,5.232 0,7.92zm-.96-.96c-.001-1.271.841-4.018-.239-5.28-.01,2.12-.64,3.844.24,5.28zm-1.44.96c-.147-1.968.432-4.728-.24-6-.39,2.159-.41,5.087.24,6zm-1.68-2.16c-.093-.351.863-2.684-.239-3.12 .15.965-.31,2.552.24,3.12zm0,2.16c.418-.446.31-1.72-.239-1.92 .14.574-.3,1.741.24,1.92zm-8.88,1.92c-.216-.665.493-2.253-.479-2.16 .1.776-.32,2.075.48,2.16zm-34.32,18.719c-.297-1.242.547-3.132-.24-3.36 .13.738-.63,2.836.24,3.36zm-1.44.241c.118-1.085.47-2.413-.24-3.12-.21.342.11,6.741.24,3.12zm-1.68.96c.903-.224.519-2.991.24-3.6-.61,1.226.31,2.208-.24,3.6zm-.96,3.839c-.274-1.526.517-3.541-.24-4.08 .35,1.601-.7,3.361.24,4.08zm2.16-1.439c.798.295.587-1.623.239-1.68 .19.832-.36.922-.24,1.68zm-46.08,21.84c-.604-1.692.676-3.332-.48-4.561 .29,1.393-.6,3.955.48,4.561zm-1.68,2.399c-.104-1.381.871-4.988-.24-6.48 .37,2.674-.79,4.679.24,6.48z" fill="#4c5a52"/>
  <path d="m244.85,87.794c1.146,1.78.082,5.771.479,7.68-18.004,8.556-34.852,18.268-53.04,26.641-.351-2.823-.032-4.176 0-7.92 .874-.247 1.4-.84 2.4-.96 .745,1.48-.229,4.313.24,5.52 .749-1.201.387-3.608.479-6 16.18-8.62 32.82-16.782 49.44-24.966zm-.96,4.321c-.252-.869.544-2.784-.48-2.88 .17.952-.42,2.658.48,2.88zm-47.76,25.435c.88-.697 1.116-3.801.24-5.04-.02,1.59-.32,2.85-.24,5.04zm-2.88,3.61c.837-1.694.75-5.412.24-6.96-.54,1.86-.1,4.7-.24,6.96z" fill="#4c5a52"/>
  <path d="m1.009,99.554c1.855,1.024 3.966,1.795 6,2.641-.496,2.307-.883,3.975-.48,6.72-2.205-.436-3.711-1.569-5.52-2.4 .21-2.96-.435-4.85 0-6.966zm.96,5.766c-.158-1.603.317-3.837-.24-5.04 .123,1.95-.646,3.46.24,5.04zm1.2,1.19c-.052-.448.39-3.197-.48-3.6 .332,1.35-.381,2.88.48,3.6z" fill="#4c5a52"/>
  <path d="m.769,109.88c2.089.632 3.681,1.759 5.76,2.4-.145,2.255.299,5.099-.24,6.96-2.241-.398-3.79-1.49-5.28-2.641-.178-3.08-.088-4.04-.24-6.72zm1.439,5.75c-.411-1.732.627-3.613-.48-4.8 .291,1.47-.598,4.12.48,4.8zm1.201,1.2c-.251-.869.544-2.784-.48-2.88 .251.87-.545,2.79.48,2.88z" fill="#4c5a52"/>
  <path d="m191.57,114.92c.563,2.006-.154,4.768 0,7.68-.912.368-1.594.967-2.64,1.2-.284-1.444.405-5.164-.24-6.96-.559,2.002-.081,5.039-.24,7.439-17.331,9.619-35.273,17.622-53.04,26.881-5.845,3.046-11.432,6.947-18,8.64-.585-2.125.492-4.153-.24-6.48-1.338.961.167,4.387-.72,6.24-1.849-.624-.134-3.699-.96-5.28-1.139.542.04,3.399-.72,4.32-5.013-1.947-9.495-4.425-14.4-6.479v-7.681c6.456,2.024 11.59,5.369 17.76,7.681v6.96c1.481-1.62.024-5.845.96-7.92 1.335.882-.157,4.022.72,5.76 .75-1.649-.377-5.177.72-6.48 .885.82.263,2.464.48,4.32 1.24-.601-.129-3.81.72-4.8 1.008.271.188,2.371.72,3.12 1.118-.614-.246-3.154.96-4.08 .569,1.018.167,2.637.48,3.359 1.222-.457-.252-3.611.96-4.08 .946.288.032,1.191.48,2.16 .635-.885 1.681-1.358 3.12-1.439 .112-.513-.343-.457-.72-.48 .332-.548.547-1.213 1.68-.96 .37-1.01-1.242-.038-1.2-.72 21.11-10.66 41.66-21.87 63.36-31.92zm-1.44,7.67c.941-1.301.494-5.264.24-6.96-.46,1.82-.22,5.51-.24,6.96zm-2.64-1.43c-.485-.969.676-2.737-.479-3.36 .26,1.01-.57,3.12.48,3.36zm-73.68,36.47c.295-.593.592-2.893-.24-3.12 .35,1.25-.68,2.81.24,3.12zm-1.44-.71c.21-.238.668-2.078-.24-1.92 .18,1.03-.55,1.48.24,1.92z" fill="#4c5a52"/>
  <path d="m97.008,145.88c.119,8.288.186,12.652 0,19.92-30.282-14.117-59.754-29.047-89.76-43.44-.33-3.686-.213-10.413-.24-16.8 29.651,12.82 59.754,27.28 90,40.32z" fill="#130f06"/>
  <path d="m210.29,123.79h.48c-.56,2.075-.143,6.571-3.36,6.72-.352-1.414.128-2.315 0-4.08-1.293,1.325-.128,2.543-.72,5.04-17.451,11.886-37.123,25.167-55.68,37.681-1.972,1.329-6.118,5.323-8.4,4.8-1.592-.365-2.833-4.084-3.6-5.28-1.412-2.202-2.776-3.799-3.36-5.52 23.977-12.823 48.174-25.427 72.479-37.92 .608.86-.551,2.795.24,3.84 1.16-.681-.058-3.737.72-4.801 .6.04.74-.37 1.2-.48zm-5.28,5.29c.738.367.738-1.567 0-1.2v1.2zm.24,2.16c.322-.352.491-1.901-.24-1.921 .14.57-.3,1.74.24,1.92zm-1.68,1.19c-.308-1.143.58-2.704-.24-2.88-.23.46-.69,2.83.24,2.88zm-1.92.73h.479v-1.92h-.479v1.92zm-1.2.72c-.041-.679.206-1.646-.479-1.68 .17.54-.43,1.87.48,1.68zm-35.76,25.43c-.159-2.321.318-5.278-.24-7.199 .19,2.02-.92,4.95.24,7.2zm2.4-2.15c.849-.401.82-1.898.24-2.16-.4.39-.19,1.4-.24,2.16zm-.96.72c-.15-.729.307-2.067-.24-2.4-.22.33-.68,2.45.24,2.4zm-3.12,2.87c-.3-1.928.61-3.789-.24-4.32 .05,1.12-.77,3.31.24,4.32zm-1.44.25c.215-.285.676-2.272-.24-2.16 .31,1.01-.73,1.9.24,2.16zm-2.16.47c.738.367.738-1.567 0-1.2v1.2z" fill="#4c5a52"/>
 </g>
</svg>
